<svg width="36" height="36" viewBox="0 0 36 36" fill="none" xmlns="http://www.w3.org/2000/svg">
<path d="M32.5049 9.04498H3.50244V26.9475H32.5049V9.04498Z" fill="white"/>
<path d="M32.4974 27.8925H3.50244C2.98494 27.8925 2.56494 27.4725 2.56494 26.955V9.04498C2.56494 8.52748 2.98494 8.10748 3.50244 8.10748H32.5049C33.0224 8.10748 33.4424 8.52748 33.4424 9.04498V26.9475C33.4424 27.465 33.0224 27.885 32.5049 27.885L32.4974 27.8925ZM4.43244 26.0175H31.5599V9.98248H4.43994V26.01L4.43244 26.0175Z" fill="#00579F"/>
<path d="M9.3 27.18C9.03 27.18 8.8125 26.9625 8.8125 26.6925V9.045C8.8125 8.775 9.03 8.5575 9.3 8.5575C9.57 8.5575 9.7875 8.775 9.7875 9.045V26.685C9.7875 26.955 9.57 27.1725 9.3 27.1725V27.18Z" fill="#00579F"/>
<path d="M15.0975 27.18C14.8275 27.18 14.61 26.9625 14.61 26.6925V9.045C14.61 8.775 14.8275 8.5575 15.0975 8.5575C15.3675 8.5575 15.585 8.775 15.585 9.045V26.685C15.585 26.955 15.3675 27.1725 15.0975 27.1725V27.18Z" fill="#00579F"/>
<path d="M20.9025 27.18C20.6325 27.18 20.415 26.9625 20.415 26.6925V9.045C20.415 8.775 20.6325 8.5575 20.9025 8.5575C21.1725 8.5575 21.39 8.775 21.39 9.045V26.685C21.39 26.955 21.1725 27.1725 20.9025 27.1725V27.18Z" fill="#00579F"/>
<path d="M26.7 27.18C26.43 27.18 26.2125 26.9625 26.2125 26.6925V9.045C26.2125 8.775 26.43 8.5575 26.7 8.5575C26.97 8.5575 27.1875 8.775 27.1875 9.045V26.685C27.1875 26.955 26.97 27.1725 26.7 27.1725V27.18Z" fill="#00579F"/>
<path d="M28.0125 9.63H25.3875V19.185H28.0125V9.63Z" fill="#00579F"/>
<path d="M16.41 9.63H13.785V19.185H16.41V9.63Z" fill="#00579F"/>
<path d="M10.6125 9.63H7.98755V19.185H10.6125V9.63Z" fill="#00579F"/>
</svg>
