<svg width="42" height="42" viewBox="0 0 42 42" fill="none" xmlns="http://www.w3.org/2000/svg">
<path d="M21.1488 18.48C27.7288 18.48 33.0663 13.1425 33.0663 6.5625H9.22253C9.22253 13.1425 14.56 18.48 21.14 18.48H21.1488Z" fill="white"/>
<path d="M21.1487 19.5738C13.9737 19.5738 8.13745 13.7375 8.13745 6.5625C8.13745 5.95875 8.62745 5.46875 9.2312 5.46875H33.0662C33.67 5.46875 34.16 5.95875 34.16 6.5625C34.16 13.7375 28.3237 19.5738 21.1487 19.5738ZM10.3775 7.65625C10.9287 13.1163 15.5487 17.3863 21.1487 17.3863C26.7487 17.3863 31.3687 13.1163 31.92 7.65625H10.3775Z" fill="#00579F"/>
<path d="M36.0937 10.7275H32.83C32.2262 10.7275 31.7362 10.2375 31.7362 9.63373C31.7362 9.02998 32.2262 8.53998 32.83 8.53998H36.0937C36.6975 8.53998 37.1875 9.02998 37.1875 9.63373C37.1875 10.2375 36.6975 10.7275 36.0937 10.7275Z" fill="#00579F"/>
<path d="M9.17 10.7275H5.90625C5.3025 10.7275 4.8125 10.2375 4.8125 9.63373C4.8125 9.02998 5.3025 8.53998 5.90625 8.53998H9.17C9.77375 8.53998 10.2637 9.02998 10.2637 9.63373C10.2637 10.2375 9.77375 10.7275 9.17 10.7275Z" fill="#00579F"/>
<path d="M11.3925 34.4925C11.2875 34.4925 11.1912 34.475 11.0862 34.4488C10.5087 34.2825 10.1675 33.6788 10.3337 33.0925L14.945 17.08C15.1112 16.5025 15.7237 16.1613 16.3012 16.3275C16.8787 16.4938 17.22 17.0975 17.0537 17.6838L12.4425 33.6963C12.3025 34.1775 11.865 34.4838 11.3925 34.4838V34.4925Z" fill="#00579F"/>
<path d="M31.4825 36.085C31.01 36.085 30.5725 35.77 30.4325 35.2975L25.5237 18.2525C25.3575 17.675 25.69 17.0625 26.2762 16.8962C26.8537 16.73 27.4662 17.0625 27.6325 17.6487L32.5412 34.6937C32.7075 35.2712 32.375 35.8837 31.7887 36.05C31.6837 36.0762 31.5875 36.0937 31.4825 36.0937V36.085Z" fill="#00579F"/>
<path d="M28.4987 25.6813H14.49C13.8862 25.6813 13.3962 25.1913 13.3962 24.5875C13.3962 23.9838 13.8862 23.4938 14.49 23.4938H28.4987C29.1025 23.4938 29.5925 23.9838 29.5925 24.5875C29.5925 25.1913 29.1025 25.6813 28.4987 25.6813Z" fill="#00579F"/>
<path d="M11.3925 35.4462C12.7166 35.4462 13.79 34.3728 13.79 33.0487C13.79 31.7246 12.7166 30.6512 11.3925 30.6512C10.0684 30.6512 8.995 31.7246 8.995 33.0487C8.995 34.3728 10.0684 35.4462 11.3925 35.4462Z" fill="white"/>
<path d="M11.3925 36.5313C9.4675 36.5313 7.90125 34.965 7.90125 33.04C7.90125 31.115 9.4675 29.5488 11.3925 29.5488C13.3175 29.5488 14.8837 31.115 14.8837 33.04C14.8837 34.965 13.3175 36.5313 11.3925 36.5313ZM11.3925 31.745C10.675 31.745 10.0887 32.3313 10.0887 33.0488C10.0887 33.7663 10.675 34.3525 11.3925 34.3525C12.11 34.3525 12.6962 33.7663 12.6962 33.0488C12.6962 32.3313 12.11 31.745 11.3925 31.745Z" fill="#00579F"/>
</svg>
