<svg width="36" height="36" viewBox="0 0 36 36" fill="none" xmlns="http://www.w3.org/2000/svg">
<path d="M2.16003 16.2674L18 5.06995L33.84 16.2674" fill="white"/>
<path d="M31.545 14.8199V30.9299H4.45496V14.8199" fill="white"/>
<path d="M11.2875 6.29993H8.09998V10.2299L11.2875 8.26493V6.29993Z" fill="#00579F"/>
<path d="M1.00485 16.7278C0.691015 16.7278 0.377184 16.5829 0.184057 16.3013C-0.137821 15.8507 -0.0251632 15.223 0.425466 14.9011L17.4206 2.88704C17.7666 2.63759 18.2334 2.63759 18.5794 2.88704L35.5745 14.9011C36.0252 15.223 36.1378 15.8507 35.8159 16.3013C35.4941 16.7519 34.8664 16.8646 34.4158 16.5427L18 4.93901L1.58423 16.5427C1.40719 16.6715 1.20602 16.7278 1.00485 16.7278Z" fill="#00579F"/>
<path d="M32.5329 32.4595H3.46729C2.91205 32.4595 2.46143 32.0089 2.46143 31.4537V14.1688C2.46143 13.6136 2.91205 13.163 3.46729 13.163C4.02253 13.163 4.47316 13.6136 4.47316 14.1688V30.4478H31.519V14.1688C31.519 13.6136 31.9696 13.163 32.5248 13.163C33.0801 13.163 33.5307 13.6136 33.5307 14.1688V31.4537C33.5307 32.0089 33.0801 32.4595 32.5248 32.4595H32.5329Z" fill="#00579F"/>
<path d="M7.90916 10.6282C7.82064 10.6282 7.73213 10.604 7.65166 10.5638C7.48267 10.4753 7.38611 10.2983 7.38611 10.1051V5.88853C7.38611 5.59884 7.61947 5.36548 7.90916 5.36548H11.3291C11.6188 5.36548 11.8522 5.59884 11.8522 5.88853V7.99683C11.8522 8.18191 11.7556 8.34285 11.6027 8.43941L8.18276 10.5477C8.10229 10.596 8.00572 10.6282 7.90916 10.6282ZM8.43221 6.41158V9.17168L10.8061 7.70714V6.41158H8.43221Z" fill="#00579F"/>
<path d="M20.8729 32.033H15.1354C14.5801 32.033 14.1295 31.5824 14.1295 31.0272V20.2362C14.1295 19.681 14.5801 19.2303 15.1354 19.2303H20.8729C21.4281 19.2303 21.8787 19.681 21.8787 20.2362V31.0272C21.8787 31.5824 21.4281 32.033 20.8729 32.033ZM16.1413 30.0213H19.867V21.2421H16.1413V30.0213Z" fill="#00579F"/>
<path d="M27.9863 19.2142H25.025C24.8561 19.2142 24.7192 19.3511 24.7192 19.52V23.4469C24.7192 23.6158 24.8561 23.7527 25.025 23.7527H27.9863C28.1552 23.7527 28.2921 23.6158 28.2921 23.4469V19.52C28.2921 19.3511 28.1552 19.2142 27.9863 19.2142Z" fill="#00579F"/>
<path d="M10.9748 19.2142H8.01355C7.84467 19.2142 7.70776 19.3511 7.70776 19.52V23.4469C7.70776 23.6158 7.84467 23.7527 8.01355 23.7527H10.9748C11.1437 23.7527 11.2806 23.6158 11.2806 23.4469V19.52C11.2806 19.3511 11.1437 19.2142 10.9748 19.2142Z" fill="#00579F"/>
</svg>
