<svg width="36" height="36" viewBox="0 0 36 36" fill="none" xmlns="http://www.w3.org/2000/svg">
<path d="M32.1901 19.395V31.8075H26.5051V25.08H22.1776V31.8075H16.4926V4.1925H32.1901V12.09" stroke="#00579F" stroke-width="1.875" stroke-linecap="round" stroke-linejoin="round"/>
<path d="M35.4081 19.98L32.1906 15.9675L28.9731 19.98H35.4081Z" fill="#00579F"/>
<path d="M16.4851 15.6675H2.12256V31.8075H16.4851V15.6675Z" stroke="#00579F" stroke-width="1.875" stroke-linecap="round" stroke-linejoin="round"/>
<path d="M22.6956 19.0276H20.1606V21.6001H22.6956V19.0276Z" fill="#00579F"/>
<path d="M7.665 19.0275H5.13V21.6H7.665V19.0275Z" fill="#00579F"/>
<path d="M13.4847 19.0276H10.9497V21.6001H13.4847V19.0276Z" fill="#00579F"/>
<path d="M7.665 24.3149H5.13V26.8874H7.665V24.3149Z" fill="#00579F"/>
<path d="M13.4847 24.3149H10.9497V26.8874H13.4847V24.3149Z" fill="#00579F"/>
<path d="M22.6956 13.6274H20.1606V16.1999H22.6956V13.6274Z" fill="#00579F"/>
<path d="M28.5155 13.6274H25.9805V16.1999H28.5155V13.6274Z" fill="#00579F"/>
<path d="M22.6956 8.23499H20.1606V10.8075H22.6956V8.23499Z" fill="#00579F"/>
<path d="M28.5155 8.23499H25.9805V10.8075H28.5155V8.23499Z" fill="#00579F"/>
</svg>
