<svg width="36" height="36" viewBox="0 0 36 36" fill="none" xmlns="http://www.w3.org/2000/svg">
<path d="M31.4625 31.6874H4.53753C3.74253 31.6874 3.09753 30.9974 3.09753 30.1499V5.85745C3.09753 5.00995 3.74253 4.31995 4.53753 4.31995H31.4625C32.2575 4.31995 32.9025 5.00995 32.9025 5.85745V30.1499C32.9025 30.9974 32.2575 31.6874 31.4625 31.6874Z" fill="white"/>
<path d="M31.4625 32.6249H4.53753C3.22503 32.6249 2.16003 31.5149 2.16003 30.1499V5.85745C2.16003 4.49245 3.22503 3.38245 4.53753 3.38245H31.4625C32.775 3.38245 33.84 4.49245 33.84 5.85745V30.1499C33.84 31.5149 32.775 32.6249 31.4625 32.6249ZM4.53753 5.24995C4.26003 5.24995 4.03503 5.51995 4.03503 5.84995V30.1424C4.03503 30.4724 4.26003 30.7424 4.53753 30.7424H31.4625C31.74 30.7424 31.965 30.4724 31.965 30.1424V5.85745C31.965 5.52745 31.74 5.25745 31.4625 5.25745H4.53753V5.24995Z" fill="#00579F"/>
<path d="M18 25.7775C14.64 25.7775 11.25 25.6125 7.92749 25.29C7.82249 25.29 7.70999 25.245 7.63499 25.1775C7.53749 25.095 7.46249 24.975 7.45499 24.8475C7.26749 22.29 7.17749 19.6875 7.17749 17.1225C7.17749 14.5575 7.27499 11.955 7.45499 9.39754C7.46249 9.27004 7.52249 9.15004 7.61999 9.06004C7.70999 8.97754 7.83749 8.93254 7.95749 8.94004C14.595 8.30254 21.4425 8.30254 28.08 8.94004C28.185 8.94004 28.2975 8.98504 28.3725 9.05254C28.47 9.13504 28.545 9.25504 28.5525 9.38254C28.74 11.9325 28.83 14.535 28.83 17.1075C28.83 19.68 28.74 22.1925 28.56 24.705C28.56 24.735 28.56 24.765 28.545 24.795L28.515 24.9225C28.4625 25.1175 28.2975 25.2675 28.0875 25.2825C24.7575 25.605 21.3675 25.77 18 25.77V25.7775ZM8.39249 24.36C14.7375 24.9525 21.2625 24.9525 27.6075 24.36C27.7725 21.9675 27.855 19.53 27.855 17.115C27.855 14.7 27.7725 12.27 27.6075 9.87004C21.2625 9.27754 14.7375 9.27754 8.39249 9.87004C8.22749 12.27 8.14499 14.7075 8.14499 17.115C8.14499 19.5225 8.22749 21.9525 8.39249 24.36Z" fill="#00579F"/>
</svg>
