<svg width="36" height="36" viewBox="0 0 36 36" fill="none" xmlns="http://www.w3.org/2000/svg">
<path d="M12.09 16.5225C11.745 16.8675 11.49 17.2725 11.31 17.7075C10.8975 18.735 9.89254 19.38 8.76754 19.425C7.28254 19.485 5.86504 20.0475 4.77754 21.1275C2.29504 23.61 2.54254 27.885 5.32504 30.6675C8.11504 33.4575 12.3825 33.6975 14.865 31.215C15.945 30.135 16.5075 28.7175 16.5675 27.225C16.6125 26.1 17.2575 25.0875 18.285 24.6825C18.7275 24.51 19.125 24.2475 19.47 23.9025C21.12 22.2525 20.805 19.26 18.765 17.22C16.725 15.18 13.7325 14.865 12.0825 16.515L12.09 16.5225Z" fill="white"/>
<path d="M10.6125 33.87C10.4625 33.87 10.3125 33.87 10.1625 33.855C8.13003 33.735 6.18003 32.8425 4.67253 31.3275C1.52253 28.1775 1.27503 23.3025 4.12503 20.46C5.32503 19.26 6.96753 18.555 8.73753 18.4875C9.51753 18.4575 10.1925 18.015 10.4475 17.3625C10.6725 16.7925 11.01 16.2825 11.43 15.8625C12.435 14.865 13.8375 14.4 15.3825 14.565C16.86 14.7225 18.2925 15.435 19.4325 16.575C20.5725 17.715 21.285 19.155 21.435 20.625C21.6 22.17 21.135 23.58 20.1375 24.5775C19.71 25.005 19.2075 25.335 18.6375 25.56C17.985 25.8225 17.5425 26.49 17.5125 27.27C17.4375 29.04 16.74 30.675 15.54 31.8825C14.25 33.1725 12.5175 33.87 10.62 33.87H10.6125ZM14.7825 16.4025C13.9725 16.4025 13.26 16.6725 12.75 17.1825C12.5025 17.43 12.315 17.7225 12.18 18.0525C11.6475 19.395 10.32 20.295 8.80503 20.3625C7.48503 20.415 6.32253 20.91 5.44503 21.7875C3.33003 23.9025 3.57753 27.585 5.99253 30C7.17753 31.185 8.69253 31.89 10.2675 31.98C11.8125 32.07 13.2 31.56 14.205 30.555C15.0825 29.6775 15.5775 28.515 15.63 27.195C15.69 25.6725 16.5975 24.3525 17.94 23.82C18.27 23.685 18.5625 23.4975 18.81 23.25C19.4025 22.6575 19.6725 21.795 19.5675 20.82C19.455 19.77 18.9375 18.735 18.0975 17.895C17.265 17.0625 16.2225 16.5375 15.1725 16.425C15.0375 16.41 14.9025 16.4025 14.775 16.4025H14.7825Z" fill="#00579F"/>
<path d="M26.9625 9.17998L26.82 9.03748C26.235 8.45248 26.31 7.39498 27 6.63748L29.58 3.79498C30.33 2.96998 31.5 2.81998 32.1375 3.45748L32.5425 3.86248C33.18 4.49998 33.03 5.66998 32.205 6.41998L29.3625 8.99998C28.605 9.68998 27.555 9.76498 26.9625 9.17998Z" fill="#00579F"/>
<path d="M27.9675 10.065C27.4575 10.065 26.9775 9.88498 26.6175 9.53248L26.475 9.38998C25.7025 8.61748 25.7775 7.26748 26.64 6.32248L29.22 3.47998C29.7225 2.93248 30.3975 2.60248 31.08 2.58748C31.62 2.57248 32.1225 2.76748 32.4825 3.12748L32.8875 3.53248C33.2475 3.89248 33.435 4.38748 33.4275 4.93498C33.4125 5.61748 33.09 6.29248 32.535 6.79498L29.6925 9.37498C29.1825 9.83998 28.56 10.0725 27.975 10.0725L27.9675 10.065ZM27.3075 8.84248C27.7125 9.24748 28.47 9.15748 29.0325 8.64748L31.875 6.06748C32.22 5.75248 32.4375 5.31748 32.445 4.90498C32.445 4.70998 32.4075 4.43248 32.19 4.21498L31.785 3.80998C31.5675 3.59248 31.29 3.56248 31.095 3.55498C30.6825 3.56248 30.255 3.77998 29.9325 4.12498L27.3525 6.96748C26.8425 7.52998 26.7525 8.28748 27.1575 8.69248L27.3 8.83498L27.3075 8.84248Z" fill="#00579F"/>
<path d="M29.8275 9.74251C29.7 9.74251 29.58 9.69752 29.4825 9.60001L26.4 6.51751C26.2125 6.33001 26.2125 6.01501 26.4 5.82751C26.5875 5.64001 26.9025 5.64001 27.09 5.82751L30.1725 8.91001C30.36 9.09751 30.36 9.41251 30.1725 9.60001C30.075 9.69752 29.955 9.74251 29.8275 9.74251Z" fill="#00579F"/>
<path d="M31.38 8.35502C31.2525 8.35502 31.1325 8.31002 31.035 8.21252L27.7875 4.96502C27.6 4.77752 27.6 4.46252 27.7875 4.27502C27.975 4.08752 28.29 4.08752 28.4775 4.27502L31.725 7.52252C31.9125 7.71002 31.9125 8.02502 31.725 8.21252C31.6275 8.31002 31.5075 8.35502 31.38 8.35502Z" fill="#00579F"/>
<path d="M32.925 6.97498C32.7975 6.97498 32.6775 6.92998 32.58 6.83248L29.1675 3.41998C28.98 3.23248 28.98 2.91748 29.1675 2.72998C29.355 2.54248 29.67 2.54248 29.8575 2.72998L33.27 6.14248C33.4575 6.32998 33.4575 6.64498 33.27 6.83248C33.1725 6.92998 33.0525 6.97498 32.925 6.97498Z" fill="#00579F"/>
<path d="M27.5055 9.72689L26.2751 8.49652L12.6616 22.1101L13.8919 23.3405L27.5055 9.72689Z" fill="#00579F"/>
<path d="M13.89 23.82C13.7625 23.82 13.6425 23.775 13.545 23.6775L12.315 22.4475C12.225 22.3575 12.1725 22.23 12.1725 22.1025C12.1725 21.975 12.225 21.8475 12.315 21.7575L25.9275 8.145C26.0175 8.055 26.145 8.0025 26.2725 8.0025C26.4 8.0025 26.5275 8.055 26.6175 8.145L27.8475 9.375C28.035 9.5625 28.035 9.8775 27.8475 10.065L14.235 23.6775C14.1375 23.775 14.0175 23.82 13.89 23.82ZM13.35 22.1025L13.89 22.6425L26.8125 9.72L26.2725 9.18L13.35 22.1025Z" fill="#00579F"/>
<path d="M12.225 26.175C13.5504 26.175 14.625 25.1005 14.625 23.775C14.625 22.4495 13.5504 21.375 12.225 21.375C10.8995 21.375 9.82495 22.4495 9.82495 23.775C9.82495 25.1005 10.8995 26.175 12.225 26.175Z" fill="#00579F"/>
<path d="M12.225 26.67C11.4525 26.67 10.725 26.37 10.185 25.8225C9.64502 25.275 9.33752 24.555 9.33752 23.7825C9.33752 23.01 9.63752 22.2825 10.185 21.7425C11.28 20.6475 13.1775 20.6475 14.2725 21.7425C14.82 22.29 15.12 23.01 15.12 23.7825C15.12 24.555 14.82 25.2825 14.2725 25.8225C13.725 26.37 12.9975 26.67 12.2325 26.67H12.225ZM12.225 21.87C11.715 21.87 11.235 22.0725 10.875 22.4325C10.515 22.7925 10.3125 23.2725 10.3125 23.7825C10.3125 24.2925 10.515 24.7725 10.875 25.1325C11.595 25.8525 12.855 25.8525 13.5825 25.1325C13.9425 24.7725 14.145 24.2925 14.145 23.7825C14.145 23.2725 13.9425 22.7925 13.5825 22.4325C13.2225 22.0725 12.7425 21.87 12.2325 21.87H12.225Z" fill="#00579F"/>
</svg>
