<svg width="36" height="36" viewBox="0 0 36 36" fill="none" xmlns="http://www.w3.org/2000/svg">
<path d="M10.695 3.78748H25.2975C27.8775 3.78748 29.97 5.87998 29.97 8.45997V18.825H6.02246V8.45997C6.02246 5.87998 8.11496 3.78748 10.695 3.78748Z" fill="white"/>
<path d="M29.9775 19.7625H6.02246C5.50496 19.7625 5.08496 19.3425 5.08496 18.825V8.45998C5.08496 5.36998 7.60496 2.84998 10.695 2.84998H25.2975C28.3875 2.84998 30.9075 5.36998 30.9075 8.45998V18.825C30.9075 19.3425 30.4875 19.7625 29.97 19.7625H29.9775ZM6.96746 17.8875H29.04V8.45998C29.04 6.39748 27.3675 4.72498 25.305 4.72498H10.695C8.63246 4.72498 6.95996 6.39748 6.95996 8.45998V17.8875H6.96746Z" fill="#00579F"/>
<path d="M2.39246 18.825H33.6V25.5825C33.6 26.5425 32.82 27.3225 31.86 27.3225H4.13996C3.17996 27.3225 2.39996 26.5425 2.39996 25.5825V18.825H2.39246Z" fill="white"/>
<path d="M31.86 28.2675H4.14002C2.66252 28.2675 1.46252 27.0675 1.46252 25.59V18.8325C1.46252 18.315 1.88252 17.895 2.40002 17.895H33.6075C34.125 17.895 34.545 18.315 34.545 18.8325V25.59C34.545 27.0675 33.345 28.2675 31.8675 28.2675H31.86ZM3.33002 19.7625V25.5825C3.33002 26.025 3.69002 26.385 4.13252 26.385H31.86C32.3025 26.385 32.6625 26.025 32.6625 25.5825V19.7625H3.33002Z" fill="#00579F"/>
<path d="M4.61996 11.5875H7.42496C8.65496 11.5875 9.65246 12.585 9.65246 13.815V18.825H2.39246V13.815C2.39246 12.585 3.38996 11.5875 4.61996 11.5875Z" fill="white"/>
<path d="M9.65246 19.7625H2.39246C1.87496 19.7625 1.45496 19.3425 1.45496 18.825V13.815C1.45496 12.0675 2.87246 10.65 4.61996 10.65H7.42496C9.17246 10.65 10.59 12.0675 10.59 13.815V18.825C10.59 19.3425 10.17 19.7625 9.65246 19.7625ZM3.32996 17.8875H8.71496V13.815C8.71496 13.1025 8.13746 12.525 7.42496 12.525H4.61996C3.90746 12.525 3.32996 13.1025 3.32996 13.815V17.8875Z" fill="#00579F"/>
<path d="M28.5675 11.5875H31.3725C32.6025 11.5875 33.6 12.585 33.6 13.815V18.825H26.34V13.815C26.34 12.585 27.3375 11.5875 28.5675 11.5875Z" fill="white"/>
<path d="M33.6075 19.7625H26.3475C25.83 19.7625 25.41 19.3425 25.41 18.825V13.815C25.41 12.0675 26.8275 10.65 28.575 10.65H31.38C33.1275 10.65 34.545 12.0675 34.545 13.815V18.825C34.545 19.3425 34.125 19.7625 33.6075 19.7625ZM27.285 17.8875H32.67V13.815C32.67 13.1025 32.0925 12.525 31.38 12.525H28.575C27.8625 12.525 27.285 13.1025 27.285 13.815V17.8875Z" fill="#00579F"/>
<path d="M5.05495 33.15C4.99495 33.15 4.94245 33.15 4.88245 33.135C4.37245 33.0375 4.04245 32.55 4.13245 32.04L5.05495 27.1575C5.13745 26.715 5.52745 26.3925 5.97745 26.3925H18C18.5175 26.3925 18.9375 26.8125 18.9375 27.33C18.9375 27.8475 18.5175 28.2675 18 28.2675H6.75745L5.97745 32.385C5.89495 32.835 5.49745 33.15 5.05495 33.15Z" fill="#00579F"/>
<path d="M30.945 33.15C30.5025 33.15 30.1125 32.835 30.0225 32.385L29.2425 28.2675H18C17.4825 28.2675 17.0625 27.8475 17.0625 27.33C17.0625 26.8125 17.4825 26.3925 18 26.3925H30.0225C30.4725 26.3925 30.8625 26.715 30.945 27.1575L31.8675 32.04C31.965 32.55 31.6275 33.0375 31.1175 33.135C31.0575 33.15 30.9975 33.15 30.945 33.15Z" fill="#00579F"/>
<path d="M31.86 28.2675H4.14002C2.66252 28.2675 1.46252 27.0675 1.46252 25.59V18.8325C1.46252 18.315 1.88252 17.895 2.40002 17.895H33.6075C34.125 17.895 34.545 18.315 34.545 18.8325V25.59C34.545 27.0675 33.345 28.2675 31.8675 28.2675H31.86ZM3.33002 19.7625V25.5825C3.33002 26.025 3.69002 26.385 4.13252 26.385H31.86C32.3025 26.385 32.6625 26.025 32.6625 25.5825V19.7625H3.33002Z" fill="#00579F"/>
</svg>
