<svg width="36" height="36" viewBox="0 0 36 36" fill="none" xmlns="http://www.w3.org/2000/svg">
<g clip-path="url(#clip0_128_31015)">
<path d="M25.6632 22.3463C28.0449 18.9119 27.2107 14.2104 23.8002 11.8453C20.3896 9.48019 15.694 10.347 13.3124 13.7814C10.9307 17.2159 11.7648 21.9173 15.1754 24.2824C18.586 26.6476 23.2816 25.7807 25.6632 22.3463Z" fill="white"/>
<path d="M18 34.875C27.3198 34.875 34.875 27.3198 34.875 18C34.875 8.68019 27.3198 1.125 18 1.125C8.68019 1.125 1.125 8.68019 1.125 18C1.125 27.3198 8.68019 34.875 18 34.875Z" fill="white"/>
<path d="M18 36C8.07366 36 0 27.9263 0 18C0 8.07366 8.07366 0 18 0C27.9263 0 36 8.07366 36 18C36 27.9263 27.9263 36 18 36ZM18 2.27952C9.32694 2.27952 2.27043 9.33602 2.27043 18.0091C2.27043 26.6821 9.32694 33.7386 18 33.7386C26.6731 33.7386 33.7296 26.6821 33.7296 18.0091C33.7296 9.33602 26.6731 2.27043 18 2.27043V2.27952Z" fill="#00579F"/>
<path d="M18.0493 8.98747C18.2107 8.98747 18.3721 8.98747 18.5335 8.99642C23.5005 9.25597 27.284 13.4982 26.9881 18.4743C26.7012 23.2804 22.7025 27.0125 17.9507 27.0125C17.7893 27.0125 17.6279 27.0125 17.4665 27.0036C12.4995 26.744 8.71601 22.5018 9.01188 17.5257C9.29878 12.7196 13.2975 8.98747 18.0493 8.98747ZM18.0493 6.75C12.0782 6.75 7.12012 11.4218 6.77046 17.3914C6.59114 20.3986 7.5953 23.2894 9.60362 25.5268C11.603 27.7554 14.3554 29.071 17.35 29.2321C17.5472 29.241 17.7534 29.25 17.9507 29.25C23.9219 29.25 28.8799 24.5782 29.2295 18.6086C29.4089 15.6014 28.4047 12.7106 26.3964 10.4732C24.397 8.24463 21.6446 6.929 18.65 6.7679C18.4528 6.75895 18.2466 6.75 18.0493 6.75Z" fill="#00579F"/>
<path d="M26.1287 23.3026C26.1287 23.3026 24.6584 22.5172 22.2896 21.5125C18.0149 19.7042 17.8062 24.5996 17.8062 24.5996L17.4431 28.125L15.4464 27.8145L15.8639 24.1977C15.8639 24.1977 16.5537 19.8503 11.9704 20.3069C8.00425 20.6997 8.18577 21.0285 8.18577 21.0285L7.87719 19.147C7.87719 19.147 7.65937 19.2566 11.5711 18.5442C16.2179 17.6948 14.076 13.8223 14.076 13.8223L11.9522 9.79459L13.5042 9L15.4918 12.4798C15.4918 12.4798 17.5067 16.3979 20.7195 13.6306C23.9324 10.8632 24.3862 10.0869 24.3862 10.0869L25.5206 11.8039L22.4712 15.0462C22.4712 15.0462 19.8936 17.4756 22.9249 19.421C25.9563 21.3664 27 21.7683 27 21.7683L26.1287 23.3118V23.3026Z" fill="#00579F"/>
<path d="M19.1202 19.3869C19.6866 18.5702 19.487 17.4512 18.6743 16.8877C17.8617 16.3242 16.7438 16.5294 16.1774 17.3462C15.611 18.1629 15.8106 19.2819 16.6233 19.8454C17.4359 20.4089 18.5538 20.2037 19.1202 19.3869Z" fill="white"/>
</g>
<defs>
<clipPath id="clip0_128_31015">
<rect width="36" height="36" fill="white"/>
</clipPath>
</defs>
</svg>
