<svg width="36" height="36" viewBox="0 0 36 36" fill="none" xmlns="http://www.w3.org/2000/svg">
<path d="M15.3075 25.5074V29.8349C15.3075 30.8099 14.52 31.5974 13.545 31.5974H22.4475C21.4725 31.5974 20.685 30.8099 20.685 29.8349V25.5074" fill="white"/>
<path d="M22.455 32.5349H13.5525C13.035 32.5349 12.615 32.1149 12.615 31.5974C12.615 31.0799 13.035 30.6599 13.5525 30.6599C14.01 30.6599 14.3775 30.2924 14.3775 29.8349V25.5074C14.3775 24.9899 14.7975 24.5699 15.315 24.5699C15.8325 24.5699 16.2525 24.9899 16.2525 25.5074V29.8349C16.2525 30.1199 16.2075 30.3974 16.125 30.6599H19.89C19.8075 30.3974 19.7625 30.1274 19.7625 29.8349V25.5074C19.7625 24.9899 20.1825 24.5699 20.7 24.5699C21.2175 24.5699 21.6375 24.9899 21.6375 25.5074V29.8349C21.6375 30.2849 22.005 30.6599 22.4625 30.6599C22.98 30.6599 23.4 31.0799 23.4 31.5974C23.4 32.1149 22.98 32.5349 22.4625 32.5349H22.455Z" fill="#00579F"/>
<path d="M31.1924 4.40247H4.81494C4.40073 4.40247 4.06494 4.73825 4.06494 5.15247V24.7575C4.06494 25.1717 4.40073 25.5075 4.81494 25.5075H31.1924C31.6067 25.5075 31.9424 25.1717 31.9424 24.7575V5.15247C31.9424 4.73825 31.6067 4.40247 31.1924 4.40247Z" fill="white"/>
<path d="M31.1925 26.445H4.8075C3.8775 26.445 3.12 25.6875 3.12 24.7575V5.15247C3.12 4.22247 3.8775 3.46497 4.8075 3.46497H31.185C32.115 3.46497 32.8725 4.22247 32.8725 5.15247V24.765C32.8725 25.695 32.115 26.4525 31.185 26.4525L31.1925 26.445ZM5.0025 24.57H31.005V5.33997H5.0025V24.57Z" fill="#00579F"/>
<path d="M26.9025 32.535H9.09753C8.58003 32.535 8.16003 32.115 8.16003 31.5975C8.16003 31.08 8.58003 30.66 9.09753 30.66H26.9025C27.42 30.66 27.84 31.08 27.84 31.5975C27.84 32.115 27.42 32.535 26.9025 32.535Z" fill="#00579F"/>
<path d="M27.705 20.235H8.29496C7.97246 20.235 7.70996 19.9725 7.70996 19.65V8.34C7.70996 8.0175 7.97246 7.755 8.29496 7.755H27.705C28.0275 7.755 28.29 8.0175 28.29 8.34V19.65C28.29 19.9725 28.0275 20.235 27.705 20.235ZM8.68496 19.26H27.315V8.73001H8.68496V19.26Z" fill="#00579F"/>
</svg>
