<svg width="36" height="36" viewBox="0 0 36 36" fill="none" xmlns="http://www.w3.org/2000/svg">
<path d="M18 24.21H4.46997V30.3225H18V24.21Z" fill="white"/>
<path d="M18 31.2525H4.46997C3.95247 31.2525 3.53247 30.8325 3.53247 30.315V24.2025C3.53247 23.685 3.95247 23.265 4.46997 23.265H18C18.5175 23.265 18.9375 23.685 18.9375 24.2025V30.315C18.9375 30.8325 18.5175 31.2525 18 31.2525ZM5.40747 29.3775H17.0625V25.14H5.40747V29.3775Z" fill="#00579F"/>
<path d="M31.53 24.21H18V30.3225H31.53V24.21Z" fill="white"/>
<path d="M31.53 31.2525H18C17.4825 31.2525 17.0625 30.8325 17.0625 30.315V24.2025C17.0625 23.685 17.4825 23.265 18 23.265H31.53C32.0475 23.265 32.4675 23.685 32.4675 24.2025V30.315C32.4675 30.8325 32.0475 31.2525 31.53 31.2525ZM18.9375 29.3775H30.5925V25.14H18.9375V29.3775Z" fill="#00579F"/>
<path d="M24.765 17.985H11.235V24.0975H24.765V17.985Z" fill="white"/>
<path d="M24.765 25.035H11.235C10.7175 25.035 10.2975 24.615 10.2975 24.0975V17.985C10.2975 17.4675 10.7175 17.0475 11.235 17.0475H24.765C25.2825 17.0475 25.7025 17.4675 25.7025 17.985V24.0975C25.7025 24.615 25.2825 25.035 24.765 25.035ZM12.1725 23.16H23.8275V18.9225H12.1725V23.16Z" fill="#00579F"/>
<path d="M26.4225 12.9151H23.265V5.68506H26.4225C27.9 5.68506 29.31 6.26256 30.3675 7.29756L30.915 7.83756C31.7325 8.64006 31.7325 9.96006 30.915 10.7626L30.3675 11.3026C29.3175 12.3376 27.9 12.9151 26.4225 12.9151Z" fill="white"/>
<path d="M26.4225 13.8526H23.265C22.7475 13.8526 22.3275 13.4326 22.3275 12.9151V5.68506C22.3275 5.16756 22.7475 4.74756 23.265 4.74756H26.4225C28.155 4.74756 29.79 5.41506 31.02 6.63006L31.5675 7.17006C32.145 7.74006 32.46 8.49006 32.46 9.30006C32.46 10.1101 32.145 10.8676 31.5675 11.4301L31.02 11.9701C29.7825 13.1851 28.1475 13.8526 26.4225 13.8526ZM24.2025 11.9776H26.4225C27.66 11.9776 28.8225 11.4976 29.7075 10.6351L30.255 10.0951C30.4725 9.88506 30.585 9.60006 30.585 9.30006C30.585 9.00006 30.465 8.71506 30.255 8.50506L29.7075 7.96506C28.8225 7.09506 27.66 6.62256 26.4225 6.62256H24.2025V11.9776Z" fill="#00579F"/>
<path d="M23.2724 10.2375H11.0024C10.4849 10.2375 10.0649 9.81755 10.0649 9.30005C10.0649 8.78255 10.4849 8.36255 11.0024 8.36255H23.2724C23.7899 8.36255 24.2099 8.78255 24.2099 9.30005C24.2099 9.81755 23.7899 10.2375 23.2724 10.2375Z" fill="#00579F"/>
<path d="M7.13994 12.8025C6.74994 12.8025 6.35994 12.705 5.99994 12.5025C5.25744 12.0825 4.81494 11.3325 4.81494 10.4775V8.11501C4.81494 7.26751 5.25744 6.51001 5.99994 6.09001C6.74244 5.67001 7.61994 5.69251 8.33994 6.13501L10.2749 7.31251C10.9724 7.74001 11.3849 8.47501 11.3849 9.29251C11.3849 10.11 10.9724 10.8525 10.2749 11.2725L8.33994 12.45C7.96494 12.6825 7.55244 12.795 7.13244 12.795L7.13994 12.8025ZM7.13994 7.67251C7.04244 7.67251 6.95994 7.71001 6.92244 7.73251C6.85494 7.77001 6.69744 7.88251 6.69744 8.12251V10.485C6.69744 10.7175 6.85494 10.8375 6.92244 10.875C6.98994 10.9125 7.16994 10.9875 7.37244 10.8675L9.30744 9.69001C9.49494 9.57751 9.52494 9.40501 9.52494 9.30751C9.52494 9.21001 9.49494 9.03751 9.30744 8.92501L7.37244 7.74751C7.28994 7.69501 7.21494 7.68001 7.13994 7.68001V7.67251Z" fill="#00579F"/>
</svg>
