<svg width="36" height="36" viewBox="0 0 36 36" fill="none" xmlns="http://www.w3.org/2000/svg">
<path d="M28.005 28.8975L28.41 29.79C28.6425 30.3075 29.01 30.7725 29.49 31.155L29.6175 31.26" fill="white"/>
<path d="M29.61 32.1975C29.4 32.1975 29.1975 32.13 29.0175 31.9875L28.89 31.8825C28.305 31.41 27.84 30.8175 27.5475 30.18L27.1425 29.2875C26.925 28.815 27.1425 28.26 27.6075 28.0425C28.08 27.825 28.635 28.0425 28.8525 28.5075L29.2575 29.4C29.43 29.7825 29.715 30.135 30.075 30.4275L30.2025 30.5325C30.6075 30.855 30.6675 31.4475 30.3375 31.8525C30.15 32.0775 29.88 32.1975 29.61 32.1975Z" fill="#00579F"/>
<path d="M7.99495 28.8975L7.58995 29.79C7.35745 30.3075 6.98995 30.7725 6.50995 31.155L6.38245 31.26" fill="white"/>
<path d="M6.39002 32.1975C6.12002 32.1975 5.85002 32.0775 5.66252 31.8525C5.34002 31.4475 5.40002 30.8625 5.79752 30.5325L5.92502 30.4275C6.28502 30.135 6.57002 29.7825 6.74252 29.4L7.14752 28.5075C7.36502 28.035 7.92002 27.825 8.39252 28.0425C8.86502 28.26 9.07502 28.815 8.85752 29.2875L8.45252 30.18C8.16002 30.825 7.69501 31.4175 7.11002 31.89L6.98252 31.995C6.81002 32.1375 6.60002 32.205 6.39002 32.205V32.1975Z" fill="#00579F"/>
<path d="M21.675 16.8225H31.5675C32.9025 16.8225 33.8625 18.09 33.51 19.3725L32.055 23.73C31.215 26.7825 28.4475 28.89 25.2825 28.89H19.98H15.9975H10.695C7.52998 28.89 4.76248 26.775 3.92248 23.73L2.46748 19.3725C2.11498 18.09 3.08248 16.8225 4.40998 16.8225H21.6525H21.675Z" fill="white"/>
<path d="M25.29 29.835H10.71C7.13999 29.835 3.98249 27.4275 3.03749 23.985L1.59749 19.6725C1.33499 18.7275 1.52249 17.79 2.08499 17.0475C2.64749 16.305 3.50249 15.885 4.43249 15.885H31.5675C32.4975 15.885 33.3525 16.3125 33.915 17.0475C34.4775 17.79 34.665 18.7275 34.4175 19.62L32.9475 24.03C32.0175 27.4275 28.86 29.835 25.29 29.835ZM4.43249 17.76C4.09499 17.76 3.77999 17.9175 3.56999 18.1875C3.36749 18.4575 3.29999 18.8025 3.38999 19.125L4.82999 23.4375C5.56499 26.1225 7.97999 27.96 10.71 27.96H25.29C28.02 27.96 30.435 26.1225 31.155 23.49L32.625 19.08C32.7 18.8025 32.6325 18.4575 32.43 18.1875C32.22 17.9175 31.9125 17.76 31.5675 17.76H4.43249Z" fill="#00579F"/>
<path d="M8.88745 17.76C8.36995 17.76 7.94995 17.34 7.94995 16.8225V8.09999C7.94995 5.72999 9.87745 3.80249 12.2475 3.80249C13.395 3.80249 14.475 4.25249 15.285 5.06249C15.6525 5.42999 15.6525 6.02249 15.285 6.38999C14.9175 6.75749 14.325 6.75749 13.9575 6.38999C13.5 5.93249 12.8925 5.67749 12.24 5.67749C10.905 5.67749 9.81745 6.76499 9.81745 8.09999V16.8225C9.81745 17.34 9.39745 17.76 8.87995 17.76H8.88745Z" fill="#00579F"/>
<path d="M14.3475 7.7775L14.325 6.1125C14.325 5.76 14.6025 5.4675 14.9625 5.46L16.6275 5.4375C17.1975 5.4375 17.4975 6.12 17.1 6.5325L15.4575 8.2125C15.06 8.625 14.3625 8.3475 14.355 7.77L14.3475 7.7775Z" fill="#00579F"/>
</svg>
