<svg width="36" height="36" viewBox="0 0 36 36" fill="none" xmlns="http://www.w3.org/2000/svg">
<path d="M29.43 28.0499C32.4124 28.0499 34.83 25.592 34.83 22.5599C34.83 19.5279 32.4124 17.0699 29.43 17.0699C26.4477 17.0699 24.03 19.5279 24.03 22.5599C24.03 25.592 26.4477 28.0499 29.43 28.0499Z" fill="white"/>
<path d="M29.4225 28.995C25.9275 28.995 23.085 26.1075 23.085 22.5675C23.085 19.0275 25.9275 16.14 29.4225 16.14C32.9175 16.14 35.76 19.0275 35.76 22.5675C35.76 26.1075 32.9175 28.995 29.4225 28.995ZM29.4225 18.0075C26.9625 18.0075 24.96 20.055 24.96 22.56C24.96 25.065 26.9625 27.1125 29.4225 27.1125C31.8825 27.1125 33.885 25.065 33.885 22.56C33.885 20.055 31.8825 18.0075 29.4225 18.0075Z" fill="#00579F"/>
<path d="M6.57004 28.0499C9.55238 28.0499 11.97 25.592 11.97 22.5599C11.97 19.5279 9.55238 17.0699 6.57004 17.0699C3.58771 17.0699 1.17004 19.5279 1.17004 22.5599C1.17004 25.592 3.58771 28.0499 6.57004 28.0499Z" fill="white"/>
<path d="M6.57749 28.995C3.08249 28.995 0.23999 26.1075 0.23999 22.5675C0.23999 19.0275 3.08249 16.14 6.57749 16.14C10.0725 16.14 12.915 19.0275 12.915 22.5675C12.915 26.1075 10.0725 28.995 6.57749 28.995ZM6.57749 18.0075C4.11749 18.0075 2.11499 20.055 2.11499 22.56C2.11499 25.065 4.11749 27.1125 6.57749 27.1125C9.03749 27.1125 11.04 25.065 11.04 22.56C11.04 20.055 9.03749 18.0075 6.57749 18.0075Z" fill="#00579F"/>
<path d="M16.6801 23.4974H6.57005C6.23255 23.4974 5.91755 23.3174 5.75255 23.0175C5.58755 22.7249 5.58755 22.3649 5.76755 22.0724L11.1526 13.1324L10.0051 10.7249C9.78005 10.2599 9.98255 9.69745 10.4476 9.47245C10.9201 9.24745 11.4751 9.44995 11.7001 9.91495L12.9526 12.5549H24.9751C25.4926 12.5549 25.9126 12.9749 25.9126 13.4924C25.9126 14.0099 25.4926 14.4299 24.9751 14.4299H13.8451L17.5201 22.155C17.6551 22.4474 17.6401 22.7849 17.4676 23.0549C17.2951 23.3249 16.9951 23.4899 16.6726 23.4899L16.6801 23.4974ZM8.23505 21.6224H15.2026L12.1276 15.1649L8.23505 21.6224Z" fill="#00579F"/>
<path d="M29.43 23.4975C29.0775 23.4975 28.74 23.3025 28.5825 22.965L22.7625 10.725C22.6275 10.4325 22.6424 10.095 22.8149 9.82502C22.9874 9.55502 23.2874 9.39002 23.6099 9.39002H25.8599C26.3924 9.39002 26.91 9.17252 27.285 8.79002L28.7549 7.29002C29.1149 6.92252 29.715 6.91502 30.0824 7.27502C30.4499 7.63502 30.4575 8.22752 30.0975 8.60252L28.6274 10.1025C27.8999 10.845 26.8949 11.265 25.8599 11.265H25.0949L30.2774 22.1625C30.5024 22.6275 30.2999 23.19 29.8349 23.415C29.7074 23.475 29.565 23.505 29.43 23.505V23.4975Z" fill="#00579F"/>
<path d="M16.68 23.4975C16.455 23.4975 16.23 23.415 16.05 23.25C15.6675 22.8975 15.645 22.305 15.99 21.9225L24.2925 12.855C24.645 12.4725 25.2375 12.45 25.62 12.795C26.0025 13.1475 26.025 13.74 25.68 14.1225L17.3775 23.19C17.19 23.3925 16.9425 23.4975 16.6875 23.4975H16.68Z" fill="#00579F"/>
<path d="M25.8525 11.265H23.6025C23.085 11.265 22.665 10.845 22.665 10.3275C22.665 9.81002 23.085 9.39002 23.6025 9.39002H25.8525C26.385 9.39002 26.9025 9.17252 27.2775 8.79002L28.7475 7.29002C29.1075 6.92252 29.7075 6.91502 30.075 7.27502C30.4425 7.63502 30.45 8.22752 30.09 8.60252L28.62 10.1025C27.8925 10.845 26.8875 11.265 25.8525 11.265Z" fill="#00579F"/>
<path d="M13.6949 11.265H8.81995C8.30245 11.265 7.88245 10.845 7.88245 10.3275C7.88245 9.81001 8.30245 9.39001 8.81995 9.39001H13.6949C14.2124 9.39001 14.6324 9.81001 14.6324 10.3275C14.6324 10.845 14.2124 11.265 13.6949 11.265Z" fill="#00579F"/>
</svg>
