<svg width="36" height="36" viewBox="0 0 36 36" fill="none" xmlns="http://www.w3.org/2000/svg">
<path d="M7.99503 5.10754H28.0125C28.6425 5.10754 29.1525 5.61754 29.1525 6.24754V30.9H6.84753V6.24754C6.84753 5.61754 7.35753 5.10754 7.98753 5.10754H7.99503Z" fill="white"/>
<path d="M32.9423 35.9902H3.91979C3.24644 35.9902 2.69995 35.4437 2.69995 34.7704V2.70317C2.69995 1.21008 3.91003 0 5.40312 0H31.4492C32.9423 0 34.1524 1.21008 34.1524 2.70317V34.7802C34.1524 35.4535 33.6059 36 32.9325 36L32.9423 35.9902ZM5.1494 33.5506H31.7224V2.70317C31.7224 2.55679 31.6053 2.43969 31.459 2.43969H5.41288C5.2665 2.43969 5.1494 2.55679 5.1494 2.70317V33.5603V33.5506Z" fill="#00579F"/>
<path d="M32.9423 6.44081H3.91984C3.56853 6.44081 3.28552 6.15781 3.28552 5.80649V2.69345C3.28552 1.5224 4.23212 0.575806 5.40317 0.575806H31.4493C32.6203 0.575806 33.5669 1.5224 33.5669 2.69345V5.80649C33.5669 6.15781 33.2839 6.44081 32.9326 6.44081H32.9423ZM4.56392 5.17217H32.308V2.69345C32.308 2.22503 31.9274 1.84444 31.459 1.84444H5.41293C4.94451 1.84444 4.56392 2.22503 4.56392 2.69345V5.17217Z" fill="#00579F"/>
<path d="M13.6884 20.7471C13.3371 20.7471 13.0541 20.4641 13.0541 20.1128C13.0541 17.1461 15.4645 14.7357 18.4409 14.7357C18.7922 14.7357 19.0752 15.0187 19.0752 15.37C19.0752 15.7214 18.7922 16.0044 18.4409 16.0044C16.1769 16.0044 14.3325 17.8488 14.3325 20.1128C14.3325 20.4641 14.0495 20.7471 13.6982 20.7471H13.6884Z" fill="#00579F"/>
<path d="M18.4311 29.7057C13.1419 29.7057 8.83826 25.4021 8.83826 20.1129C8.83826 14.8236 13.1419 10.52 18.4311 10.52C23.7203 10.52 28.0239 14.8236 28.0239 20.1129C28.0239 25.4021 23.7203 29.7057 18.4311 29.7057ZM18.4311 12.9597C14.4886 12.9597 11.2779 16.1703 11.2779 20.1129C11.2779 24.0554 14.4886 27.266 18.4311 27.266C22.3736 27.266 25.5843 24.0554 25.5843 20.1129C25.5843 16.1703 22.3736 12.9597 18.4311 12.9597Z" fill="#00579F"/>
</svg>
