<svg width="48" height="48" viewBox="0 0 48 48" fill="none" xmlns="http://www.w3.org/2000/svg">
<path d="M28.3205 24.98L25.3205 23.62L24.0605 15.45L42.7805 23.97C42.7805 23.97 41.2105 25.83 35.0505 25.82C29.8105 25.82 28.3105 24.98 28.3105 24.98H28.3205Z" fill="#ADD9F4" stroke="#00579F" stroke-linecap="round" stroke-linejoin="round"/>
<path d="M10.7891 21.13L13.4291 36.37L16.3691 31.76" stroke="#00579F" stroke-linecap="round" stroke-linejoin="round"/>
<path d="M20.8645 9.31604C21.4246 8.5763 21.5431 7.72259 21.1292 7.40922C20.7153 7.09585 19.9257 7.44148 19.3657 8.18122C18.8056 8.92096 18.6871 9.77467 19.101 10.088C19.5149 10.4014 20.3045 10.0558 20.8645 9.31604Z" fill="#8DC63F"/>
<path d="M7.83569 11.0738C8.42599 10.3579 8.57983 9.50987 8.1793 9.17958C7.77878 8.84929 6.97555 9.16185 6.38524 9.87769C5.79494 10.5935 5.6411 11.4416 6.04163 11.7719C6.44216 12.1022 7.24539 11.7896 7.83569 11.0738Z" fill="#8DC63F"/>
<path d="M24.0696 15.45L42.7896 23.96L36.9996 33.18L25.7696 25.79L24.0696 15.45ZM24.0696 15.45L9.59961 16.46" stroke="#00579F" stroke-width="1.56" stroke-linecap="round" stroke-linejoin="round"/>
<path d="M28.3205 24.98L25.3205 23.62L24.0605 15.45L42.7805 23.97C42.7805 23.97 41.2105 25.83 35.0505 25.82C29.8105 25.82 28.3105 24.98 28.3105 24.98H28.3205Z" fill="#ADD9F4" stroke="#00579F" stroke-linecap="round" stroke-linejoin="round"/>
<path d="M20.8645 9.31604C21.4246 8.5763 21.5431 7.72259 21.1292 7.40922C20.7153 7.09585 19.9257 7.44148 19.3657 8.18122C18.8056 8.92096 18.6871 9.77467 19.101 10.088C19.5149 10.4014 20.3045 10.0558 20.8645 9.31604Z" fill="#8DC63F"/>
<path d="M7.83569 11.0738C8.42599 10.3579 8.57983 9.50987 8.1793 9.17958C7.77878 8.84929 6.97555 9.16185 6.38524 9.87769C5.79494 10.5935 5.6411 11.4416 6.04163 11.7719C6.44216 12.1022 7.24539 11.7896 7.83569 11.0738Z" fill="#8DC63F"/>
<path d="M9.59969 16.46L9.30969 14.49C9.01969 12.47 7.78969 10.7 5.99969 9.70996L4.17969 8.70996" stroke="#00579F" stroke-width="1.56" stroke-linecap="round" stroke-linejoin="round"/>
<path d="M28.3199 24.9799L25.3199 23.62L24.0899 15.7L23.7999 13.73C23.5099 11.71 22.2799 9.93995 20.4899 8.94995L18.6699 7.94995" stroke="#00579F" stroke-width="1.56" stroke-linecap="round" stroke-linejoin="round"/>
<path d="M28.3196 24.98L22.5296 34.2L11.2996 26.81L9.59961 16.46L28.3196 24.98Z" fill="#ADD9F4" stroke="#00579F" stroke-linecap="round" stroke-linejoin="round"/>
<path d="M28.3196 24.98L22.5296 34.2L11.2996 26.81L9.59961 16.46L28.3196 24.98Z" stroke="#00579F" stroke-width="1.56" stroke-linecap="round" stroke-linejoin="round"/>
<path d="M6.62991 10.43C6.92991 9.86999 7.51991 9.57999 8.11991 9.64999C7.65991 9.23999 7.14991 8.87999 6.59991 8.58999L4.76991 7.61999C4.15991 7.28999 3.39991 7.52999 3.06991 8.13999C2.74991 8.74999 2.97991 9.50999 3.58991 9.83999L5.41991 10.81C5.82991 11.03 6.20991 11.31 6.54991 11.63C6.41991 11.25 6.42991 10.82 6.62991 10.44V10.43Z" fill="#8DC63F"/>
<path d="M19.6492 8.66996C19.9292 8.09996 20.5192 7.79996 21.1092 7.83996C20.6392 7.43996 20.1192 7.09996 19.5592 6.82996L17.6992 5.91996C17.0792 5.60996 16.3292 5.86996 16.0192 6.48996C15.7192 7.10996 15.9692 7.85996 16.5892 8.16996L18.4492 9.07996C18.8692 9.28996 19.2592 9.54996 19.5992 9.85996C19.4492 9.48996 19.4592 9.05996 19.6492 8.66996Z" fill="#8DC63F"/>
<path d="M42.8103 23.98C41.9203 24.92 38.5803 25.62 34.6003 25.62C32.1203 25.62 29.8703 25.41 28.3203 24.97" stroke="#00579F" stroke-width="1.56" stroke-linecap="round" stroke-linejoin="round"/>
<path d="M24.0696 15.45L42.7896 23.96L36.9996 33.18L25.7696 25.79L24.0696 15.45ZM24.0696 15.45L9.59961 16.46" stroke="#00579F" stroke-width="1.56" stroke-linecap="round" stroke-linejoin="round"/>
<path d="M9.59969 16.46L9.30969 14.49C9.01969 12.47 7.78969 10.7 5.99969 9.70996L4.17969 8.70996" stroke="#00579F" stroke-linecap="round" stroke-linejoin="round"/>
<path d="M28.3199 24.9799L25.3199 23.62L24.0899 15.7L23.7999 13.73C23.5099 11.71 22.2799 9.93995 20.4899 8.94995L18.6699 7.94995" stroke="#00579F" stroke-linecap="round" stroke-linejoin="round"/>
<path d="M22.5305 34.2L11.9805 27.25" stroke="#00579F" stroke-width="2.5" stroke-linecap="round" stroke-linejoin="round"/>
<path d="M6.62991 10.43C6.92991 9.86999 7.51991 9.57999 8.11991 9.64999C7.65991 9.23999 7.14991 8.87999 6.59991 8.58999L4.76991 7.61999C4.15991 7.28999 3.39991 7.52999 3.06991 8.13999C2.74991 8.74999 2.97991 9.50999 3.58991 9.83999L5.41991 10.81C5.82991 11.03 6.20991 11.31 6.54991 11.63C6.41991 11.25 6.42991 10.82 6.62991 10.44V10.43Z" fill="#8DC63F"/>
<path d="M19.6492 8.66996C19.9292 8.09996 20.5192 7.79996 21.1092 7.83996C20.6392 7.43996 20.1192 7.09996 19.5592 6.82996L17.6992 5.91996C17.0792 5.60996 16.3292 5.86996 16.0192 6.48996C15.7192 7.10996 15.9692 7.85996 16.5892 8.16996L18.4492 9.07996C18.8692 9.28996 19.2592 9.54996 19.5992 9.85996C19.4492 9.48996 19.4592 9.05996 19.6492 8.66996Z" fill="#8DC63F"/>
<path d="M24.9099 15.83L42.7899 23.96V23.98H42.8099C42.7899 24 42.7599 24.02 42.7399 24.04L37.0099 33.18L22.5399 34.2L11.3799 26.84L9.66992 16.86" stroke="#00579F" stroke-width="2.5" stroke-linecap="round" stroke-linejoin="round"/>
<path d="M24.7009 23.68L17.2409 20.12C17.2409 20.01 17.2109 19.9 17.2109 19.78C17.2109 17.56 18.9209 15.76 21.0409 15.76C21.9809 15.76 22.8409 16.13 23.5009 16.73C24.0609 15.25 25.4409 14.2 27.0509 14.2C27.6809 14.2 28.2709 14.38 28.8009 14.67C29.5309 13.98 30.4909 13.55 31.5509 13.55C33.2709 13.55 34.7509 14.65 35.3709 16.22C38.9109 16.26 40.6609 19.22 40.6609 22.95C40.6609 23.91 40.4709 25.47 39.1809 26.35L38.1809 26.88L34.1609 28.99L25.7409 26.88L24.7009 23.69" fill="white"/>
<path d="M24.7009 23.68L17.2409 20.12C17.2409 20.01 17.2109 19.9 17.2109 19.78C17.2109 17.56 18.9209 15.76 21.0409 15.76C21.9809 15.76 22.8409 16.13 23.5009 16.73C24.0609 15.25 25.4409 14.2 27.0509 14.2C27.6809 14.2 28.2709 14.38 28.8009 14.67C29.5309 13.98 30.4909 13.55 31.5509 13.55C33.2709 13.55 34.7509 14.65 35.3709 16.22C38.9109 16.26 40.6609 19.22 40.6609 22.95C40.6609 23.91 40.4709 25.47 39.1809 26.35L38.1809 26.88L34.1609 28.99L25.7409 26.88L24.7009 23.69" stroke="#00579F" stroke-linecap="round" stroke-linejoin="round"/>
<path d="M39.1561 21.9383C39.3841 21.4596 39.2132 20.9021 38.7744 20.6931C38.3357 20.4841 37.7951 20.7027 37.5671 21.1814C37.3391 21.6601 37.51 22.2175 37.9488 22.4265C38.3875 22.6355 38.9281 22.4169 39.1561 21.9383Z" fill="#ACD9F5"/>
<path d="M28.5206 17.4737C28.6631 17.1745 28.5564 16.8261 28.2821 16.6955C28.0079 16.5649 27.6701 16.7015 27.5276 17.0007C27.3851 17.2998 27.4918 17.6483 27.7661 17.7789C28.0403 17.9095 28.3781 17.7729 28.5206 17.4737Z" fill="#ACD9F5"/>
<path d="M23.6046 19.7941C23.7471 19.495 23.6403 19.1466 23.3661 19.0159C23.0919 18.8853 22.754 19.0219 22.6115 19.3211C22.469 19.6203 22.5758 19.9687 22.8501 20.0993C23.1243 20.2299 23.4621 20.0933 23.6046 19.7941Z" fill="#ACD9F5"/>
<path d="M31.6713 17.913C31.9088 17.4144 31.7295 16.8331 31.2707 16.6146C30.812 16.396 30.2476 16.6231 30.0101 17.1217C29.7726 17.6203 29.9519 18.2017 30.4107 18.4202C30.8694 18.6387 31.4338 18.4116 31.6713 17.913Z" fill="#ACD9F5"/>
<path d="M33.0115 23.6931C33.2396 23.2145 33.0687 22.657 32.6299 22.448C32.1911 22.239 31.6506 22.4576 31.4226 22.9363C31.1946 23.4149 31.3655 23.9724 31.8042 24.1814C32.243 24.3904 32.7835 24.1718 33.0115 23.6931Z" fill="#ACD9F5"/>
<path d="M29.1311 21.2461C29.2594 20.9769 29.1612 20.6623 28.9119 20.5436C28.6626 20.4248 28.3566 20.5468 28.2283 20.8161C28.1001 21.0853 28.1982 21.3999 28.4475 21.5186C28.6968 21.6374 29.0029 21.5154 29.1311 21.2461Z" fill="#ACD9F5"/>
<path d="M28.3196 24.98L22.5296 34.2L11.2996 26.81L9.59961 16.46L28.3196 24.98Z" fill="#ADD9F4" stroke="#00579F" stroke-linecap="round" stroke-linejoin="round"/>
<path d="M42.7891 23.96L37.0091 33.18L22.5391 34.2L28.3191 24.98C29.8691 25.42 32.1191 25.63 34.5991 25.63C38.5791 25.63 41.9091 24.93 42.8091 23.99" fill="white"/>
<path d="M42.7891 23.96L37.0091 33.18L22.5391 34.2L28.3191 24.98C29.8691 25.42 32.1191 25.63 34.5991 25.63C38.5791 25.63 41.9091 24.93 42.8091 23.99" stroke="#00579F" stroke-linecap="round" stroke-linejoin="round"/>
<path d="M34.46 41.3501L35.61 40.6101C34.86 39.8101 34.35 38.5801 34.33 37.1301C34.3 35.8701 34.64 34.7001 35.2 33.8101L35 32.9201L35.62 32.6601C35.95 32.5601 36.34 32.4901 36.64 32.4701C38.48 32.3201 40.01 34.2901 40.07 36.8701C40.12 39.1901 38.71 41.5401 37.14 42.0401L35.59 42.2101" fill="#00579F"/>
<path d="M34.46 41.3501L35.61 40.6101C34.86 39.8101 34.35 38.5801 34.33 37.1301C34.3 35.8701 34.64 34.7001 35.2 33.8101L35 32.9201L35.62 32.6601C35.95 32.5601 36.34 32.4901 36.64 32.4701C38.48 32.3201 40.01 34.2901 40.07 36.8701C40.12 39.1901 38.71 41.5401 37.14 42.0401L35.59 42.2101" stroke="#00579F" stroke-width="1.56" stroke-linecap="round" stroke-linejoin="round"/>
<path d="M38.7408 36.81C38.8608 39.5 37.5308 41.9 35.7708 42.17C34.0108 42.45 32.4908 40.49 32.3708 37.81C32.2508 35.13 33.5808 32.72 35.3408 32.45C37.1008 32.18 38.6208 34.13 38.7408 36.81Z" fill="white" stroke="#00579F" stroke-width="1.6" stroke-linecap="round" stroke-linejoin="round"/>
<path d="M36.8617 37.11C36.9117 38.22 36.3617 39.21 35.6317 39.32C34.9017 39.43 34.2817 38.63 34.2317 37.52C34.1817 36.41 34.7317 35.42 35.4617 35.31C36.1917 35.2 36.8117 36 36.8617 37.11Z" fill="#ACD9F5"/>
<path d="M34.9391 37.32H32.8991C29.2191 37.32 25.6091 36.24 22.5391 34.2" stroke="#00579F" stroke-linecap="round" stroke-linejoin="round"/>
</svg>
