<svg width="48" height="48" viewBox="0 0 48 48" fill="none" xmlns="http://www.w3.org/2000/svg">
<path d="M31.6233 30.4899C31.1133 29.9799 30.8333 29.8399 30.1333 29.6499C30.2233 29.4799 30.2933 29.2899 30.3533 29.0999C30.9133 27.2499 29.9333 24.5299 27.3233 22.0999C26.2133 21.0599 24.8633 20.1099 23.1433 19.2999C23.6933 18.1799 24.0033 16.9299 24.0033 15.5999C24.0033 15.1199 23.9633 14.6399 23.8833 14.1699C25.4733 13.6499 26.6333 12.1599 26.6333 10.3899C26.6333 8.19992 24.8533 6.41992 22.6633 6.41992C21.3433 6.41992 20.1633 7.05992 19.4333 8.07992C17.1033 6.85992 14.2133 6.81992 11.8533 7.95992C11.1233 7.00992 9.97326 6.41992 8.72326 6.41992C6.53326 6.41992 4.75326 8.19992 4.75326 10.3899C4.75326 12.0299 5.75326 13.4499 7.19326 14.0399C7.09326 14.5599 7.04326 15.0799 7.04326 15.5999C7.04326 16.9799 7.38326 18.2899 7.97326 19.4399C7.67326 19.5499 7.39326 19.7199 7.15326 19.9299C5.58326 21.3199 4.46326 22.6999 3.75326 24.1499C2.16326 27.3799 1.90326 29.8199 3.00326 31.4199C3.85326 32.6699 5.32326 33.0499 6.35326 33.0999C5.80326 34.1299 5.46326 35.3899 5.43326 36.7799C5.40326 38.3199 5.80326 39.5299 6.63326 40.3699C7.43326 41.1799 8.55326 41.5899 9.97326 41.5899C9.99326 41.5899 10.0133 41.5899 10.0333 41.5899C12.3633 41.5699 13.8333 40.3699 14.3133 38.2099C14.7833 38.2699 15.2533 38.3099 15.7233 38.3099C17.1633 38.3099 18.6033 38.0499 19.9733 37.5199C20.1533 37.4499 20.3133 37.3599 20.4833 37.2799C20.5233 37.2999 20.5533 37.3399 20.6033 37.3499C20.9933 37.4899 21.3833 37.6199 21.7733 37.7499C23.1733 38.2099 24.4433 38.5299 25.6433 38.7499C26.0533 38.8199 26.4633 38.8799 26.8733 38.9299H26.9833C27.3933 38.9999 27.8533 39.0599 28.3233 39.0599C28.7933 39.0599 29.2833 38.9999 29.7633 38.8099C31.0933 38.2899 32.1233 36.9899 32.5833 35.2399C32.7233 34.7099 32.8133 34.1699 32.8333 33.6499C32.8933 32.4799 32.4533 31.3299 31.6233 30.4999V30.4899Z" fill="white" stroke="#00539F" stroke-width="2.5" stroke-miterlimit="10" stroke-linecap="round"/>
<path d="M31.4831 35.4201C30.8731 37.7101 29.2931 38.7401 27.9031 38.4101C26.5131 38.0801 25.8431 36.5301 26.4431 34.2401C27.0531 31.9501 28.6731 30.3501 30.0631 30.6801C31.4531 31.0101 32.0931 33.1301 31.4831 35.4201Z" fill="#ACD9F5"/>
<path d="M31.5123 35.3101C30.8923 37.6701 29.2523 38.7301 27.8223 38.3901C26.3923 38.0501 25.6923 36.4501 26.3223 34.0901C26.9523 31.7301 28.6123 30.0901 30.0523 30.4201C31.4923 30.7501 32.1423 32.9401 31.5223 35.3001L31.5123 35.3101Z" stroke="#00539F" stroke-linecap="round" stroke-linejoin="round"/>
<path d="M8.19336 32.0001C8.40336 32.9301 8.76336 33.8101 9.22336 34.6001C9.86336 35.6901 10.8134 36.4901 11.8934 36.9101L11.9834 36.9501C14.4434 37.9001 17.1034 37.8901 19.5434 36.9101C20.4834 36.5301 25.4834 34.8601 24.6934 27.5901C24.4334 25.2101 23.6534 22.9501 20.9234 20.5701" stroke="#00539F" stroke-linecap="round" stroke-linejoin="round"/>
<path fill-rule="evenodd" clip-rule="evenodd" d="M18.4126 25.5601C17.1726 25.6601 16.8726 26.7301 16.8626 26.7601C16.8326 26.6901 16.3626 25.7201 15.1526 25.8201C14.0926 25.9001 13.6026 26.9001 13.6726 27.8301C13.7326 28.5901 14.0326 29.2101 15.3626 30.3201C16.7026 31.4301 17.1626 32.0401 17.2826 32.1901C17.3826 32.0201 17.7426 31.3401 18.8926 30.0501C20.0426 28.7501 20.2426 28.0901 20.1826 27.3301C20.1126 26.4101 19.4726 25.5001 18.4126 25.5801V25.5601Z" fill="#89C240"/>
<path d="M26.8332 22.3801C27.5732 23.2201 28.2632 24.1101 28.8132 25.0901C29.1832 25.7601 29.5032 26.4701 29.6532 27.2201C29.7532 27.7501 29.7732 28.3001 29.6532 28.8301C29.5632 29.2401 29.3932 29.6301 29.1432 29.9701C28.9432 30.2401 28.7132 30.4901 28.4432 30.6901C28.2632 30.8301 28.0632 30.9501 27.8632 31.0601C27.1432 31.4201 26.2132 31.1801 25.6932 30.6001C25.1232 29.9701 24.9032 29.0701 24.7832 28.2501" stroke="#00539F" stroke-linecap="round" stroke-linejoin="round"/>
<path d="M25.4923 10.3901C25.4923 8.83006 24.2223 7.56006 22.6623 7.56006C21.3323 7.56006 20.2123 8.49006 19.9223 9.73006C18.6923 8.81006 17.1823 8.26006 15.5323 8.26006C14.0023 8.26006 12.5923 8.73006 11.4123 9.53006C11.0423 8.39006 9.99234 7.56006 8.73234 7.56006C7.17234 7.56006 5.90234 8.83006 5.90234 10.3901C5.90234 11.9501 7.10234 13.1401 8.60234 13.2101C8.34234 13.9601 8.19234 14.7701 8.19234 15.6101C8.19234 19.6601 11.4823 22.9501 15.5323 22.9501C19.5823 22.9501 22.8723 19.6601 22.8723 15.6101C22.8723 14.7701 22.7223 13.9601 22.4623 13.2101C22.5323 13.2101 22.6023 13.2301 22.6723 13.2301C24.2323 13.2301 25.5023 11.9601 25.5023 10.4001L25.4923 10.3901Z" stroke="#00539F" stroke-linecap="round" stroke-linejoin="round"/>
<path d="M12.4927 15.2801C13.0119 15.2801 13.4327 14.8592 13.4327 14.3401C13.4327 13.8209 13.0119 13.4001 12.4927 13.4001C11.9736 13.4001 11.5527 13.8209 11.5527 14.3401C11.5527 14.8592 11.9736 15.2801 12.4927 15.2801Z" fill="#00539F"/>
<path d="M18.9029 15.2801C19.422 15.2801 19.8429 14.8592 19.8429 14.3401C19.8429 13.8209 19.422 13.4001 18.9029 13.4001C18.3837 13.4001 17.9629 13.8209 17.9629 14.3401C17.9629 14.8592 18.3837 15.2801 18.9029 15.2801Z" fill="#00539F"/>
<path d="M12.7422 18.2901C13.5522 18.9101 14.5722 19.3001 15.7022 19.3001C16.8322 19.3001 17.7922 18.9301 18.5922 18.3401" stroke="#00539F" stroke-linecap="round" stroke-linejoin="round"/>
<path d="M15.6719 18.6601V17.0301" stroke="#00539F" stroke-linecap="round" stroke-linejoin="round"/>
<path d="M16.9421 15.8601C16.6721 15.4601 15.6721 15.4601 15.6721 15.4601C15.6721 15.4601 14.6721 15.4601 14.4021 15.8601C14.0921 16.3101 14.5621 17.5201 15.6721 17.5201C16.7821 17.5201 17.2521 16.3001 16.9421 15.8601Z" fill="#00539F"/>
<path fill-rule="evenodd" clip-rule="evenodd" d="M8.65296 20.1001C6.89296 20.2601 4.88296 23.4101 4.39296 24.4001C0.362962 32.5701 6.52296 32.0501 6.52296 32.0501C8.07296 31.9001 9.70296 31.0701 9.51296 28.7501C9.47296 27.6101 9.58296 26.4801 9.78296 25.3601C9.98296 24.2401 10.383 23.1701 10.423 22.0301V21.6701C10.473 20.7101 9.83296 19.9901 8.66296 20.1001H8.65296Z" stroke="#00539F" stroke-linecap="round" stroke-linejoin="round"/>
<path d="M13.3539 36.7401C13.2939 39.5701 11.8939 40.4201 10.0239 40.4401C8.15386 40.4601 6.51386 39.6301 6.57386 36.8001C6.63386 33.9701 8.19386 31.6701 10.0739 31.6501C11.9539 31.6301 13.4139 33.9101 13.3539 36.7401Z" fill="#ACD9F5"/>
<path d="M13.7825 37.3901C13.7125 40.5801 12.1425 41.5501 10.0325 41.5601C7.92255 41.5701 6.07255 40.6401 6.14255 37.4501C6.21255 34.2601 7.97255 31.6601 10.0825 31.6401C12.1925 31.6201 13.8525 34.1901 13.7825 37.3901Z" stroke="#00539F" stroke-linecap="round" stroke-linejoin="round"/>
</svg>
