<svg width="48" height="48" viewBox="0 0 48 48" fill="none" xmlns="http://www.w3.org/2000/svg">
<path d="M25.3496 13.99V40.66" stroke="#00579F" stroke-linecap="round" stroke-linejoin="round"/>
<path d="M18.0703 19.8V22.96L22.4903 22.47V19.12L18.0703 19.8Z" fill="#ACD9F5"/>
<path d="M34.8008 25.84V29.1L38.9408 29.31V26.22L34.8008 25.84Z" fill="#ACD9F5"/>
<path d="M33.8009 25.75L29.3809 25.34V28.84L33.8009 29.06V25.75Z" fill="#ACD9F5"/>
<path d="M34.22 20.72C35.1699 20.72 35.94 19.7977 35.94 18.66C35.94 17.5223 35.1699 16.6 34.22 16.6C33.2701 16.6 32.5 17.5223 32.5 18.66C32.5 19.7977 33.2701 20.72 34.22 20.72Z" fill="white" stroke="#00579F" stroke-linecap="round" stroke-linejoin="round"/>
<path d="M34.4299 18.83L33.6699 19.14L34.1999 18.62L34.3499 17.65L34.4299 18.83Z" fill="#00579F"/>
<path d="M34.7493 7.33997L13.5793 11.79L7.2793 17.52" stroke="#00579F" stroke-width="2.5" stroke-linecap="round" stroke-linejoin="round"/>
<path d="M32.3691 32.34L36.2291 32.38V39.66L32.3691 40.2V32.34Z" fill="#8DC63F"/>
<path d="M25.3491 14.3L28.6391 14.94L34.7491 7.33997L40.0891 16.7L42.7091 17.32V39.13L25.3491 40.66L5.28906 39.59V18.01L25.3491 14.3Z" stroke="#00579F" stroke-width="2.5" stroke-linecap="round" stroke-linejoin="round"/>
<path d="M18.0703 25.6101V28.9601L22.4903 28.6601V25.1801L18.0703 25.6101Z" fill="#ACD9F5"/>
<path d="M18.0703 31.58V35L22.4903 34.97V31.37L18.0703 31.58Z" fill="#ACD9F5"/>
<path d="M11.9491 20.74L8.78906 21.22V24L11.9491 23.65V20.74Z" fill="#ACD9F5"/>
<path d="M12.9492 20.58V23.53L17.0692 23.07V19.95L12.9492 20.58Z" fill="#ACD9F5"/>
<path d="M12.9492 26.09V29.2999L17.0692 29.03V25.7L12.9492 26.09Z" fill="#ACD9F5"/>
<path d="M11.9491 26.1899L8.78906 26.4899V29.5899L11.9491 29.3699V26.1899Z" fill="#ACD9F5"/>
<path d="M11.9491 31.88L8.78906 32.04V35.08L11.9491 35.05V31.88Z" fill="#ACD9F5"/>
<path d="M12.9492 31.83V35.04L17.0692 35.01V31.63L12.9492 31.83Z" fill="#ACD9F5"/>
</svg>
