<svg width="72" height="72" viewBox="0 0 72 72" fill="none" xmlns="http://www.w3.org/2000/svg">
<path d="M61.9346 66.0451C61.6496 66.0451 61.3646 66.0301 61.0646 65.9851L34.2596 62.6851C31.1396 62.2351 28.7246 59.4451 28.7246 56.3251V47.0401C28.7246 46.0051 29.5646 45.1651 30.5996 45.1651C31.6346 45.1651 32.4746 46.0051 32.4746 47.0401V56.3251C32.4746 57.6001 33.4946 58.7851 34.7546 58.9651L61.5446 62.2651C61.6946 62.2801 61.7996 62.2951 61.9046 62.2951C63.0146 62.2951 63.8696 61.4401 63.8696 60.3001V18.2401C63.8696 17.1901 63.6446 16.3801 63.2396 16.0051C62.9546 15.7351 62.4596 15.6301 61.7996 15.6901H61.6196C61.5296 15.7051 61.4246 15.7051 61.3196 15.7351L38.5646 19.9951C37.5446 20.1901 36.5696 19.5151 36.3746 18.4951C36.1796 17.4751 36.8546 16.5001 37.8746 16.3051L60.6446 12.0451C60.8996 12.0001 61.1396 11.9851 61.3646 11.9701C63.6746 11.7751 65.0396 12.5701 65.7896 13.2601C66.9896 14.3701 67.6346 16.0951 67.6346 18.2401V60.2851C67.6346 63.5101 65.1296 66.0301 61.9196 66.0301L61.9346 66.0451Z" fill="#00539F"/>
<path d="M45.584 45.3H58.094V56.55L45.584 55.74V45.3Z" fill="#ACD9F5"/>
<path d="M58.0947 57.33C58.0947 57.33 58.0647 57.33 58.0497 57.33L45.5397 56.535C45.1197 56.505 44.8047 56.16 44.8047 55.755V45.315C44.8047 44.88 45.1497 44.535 45.5847 44.52H58.0947C58.3047 44.52 58.4997 44.61 58.6497 44.745C58.7997 44.895 58.8747 45.09 58.8747 45.3V56.55C58.8747 56.775 58.7847 56.97 58.6197 57.12C58.4697 57.255 58.2747 57.33 58.0797 57.33H58.0947ZM46.3797 55.005L57.3147 55.695V46.08H46.3797V55.005Z" fill="#ACD9F5"/>
<path d="M37.2004 27.8099C36.8404 27.8099 36.5254 27.5399 36.4654 27.1799C36.4054 26.7749 36.6754 26.3849 37.0954 26.3249L58.2904 22.9949C58.6954 22.9349 59.0854 23.2049 59.1454 23.6249C59.2054 24.0299 58.9354 24.4199 58.5154 24.4799L37.3204 27.8099C37.3204 27.8099 37.2454 27.8099 37.2004 27.8099Z" fill="#00539F"/>
<path d="M37.2605 33.96C36.8855 33.96 36.5555 33.675 36.5105 33.3C36.4655 32.895 36.7505 32.52 37.1705 32.475L58.3055 30.015C58.7255 29.97 59.0855 30.27 59.1305 30.675C59.1755 31.08 58.8905 31.455 58.4705 31.5L37.3355 33.96C37.3355 33.96 37.2755 33.96 37.2455 33.96H37.2605Z" fill="#00539F"/>
<path d="M37.2598 40.0048C36.8698 40.0048 36.5398 39.6898 36.5098 39.2998C36.4798 38.8798 36.7948 38.5348 37.2148 38.5048L58.3498 37.2898C58.7548 37.2748 59.1148 37.5748 59.1448 37.9948C59.1748 38.4148 58.8598 38.7598 58.4398 38.7898L37.3048 40.0048C37.3048 40.0048 37.2748 40.0048 37.2598 40.0048Z" fill="#00539F"/>
<path d="M31.1096 34.4849C32.0696 34.4849 32.8646 33.6899 32.8646 32.7299V7.70994C32.8646 6.74994 32.0696 5.95494 31.1096 5.96994L6.10461 6.08994C5.14461 6.08994 4.34961 6.88494 4.34961 7.85994V32.7299C4.34961 33.6899 5.14461 34.4849 6.10461 34.4849H16.0196C16.9796 34.4849 18.4646 34.8599 19.3046 35.3249L30.8846 41.6999C31.7246 42.1649 32.0846 41.8349 31.6646 40.9649L29.3096 36.0749C28.8896 35.2049 29.3396 34.4849 30.2996 34.4849H31.1096Z" fill="#8DC63F"/>
<path d="M20.1593 23.25C20.1593 22.74 20.0393 22.335 19.7843 22.035C19.5293 21.735 19.0793 21.465 18.4493 21.21C17.8193 20.955 17.2193 20.685 16.6793 20.415C16.1393 20.1449 15.6743 19.845 15.2843 19.485C14.8943 19.125 14.5943 18.735 14.3843 18.27C14.1743 17.805 14.0693 17.25 14.0693 16.59C14.0693 15.495 14.4443 14.58 15.1793 13.875C15.9143 13.17 16.9043 12.75 18.1493 12.63V10.575H19.6943V12.675C20.8793 12.855 21.8243 13.335 22.4993 14.145C23.1743 14.955 23.5193 15.975 23.5193 17.205H20.2193C20.2193 16.53 20.0843 16.005 19.8293 15.645C19.5743 15.285 19.1993 15.105 18.7193 15.105C18.2843 15.105 17.9543 15.24 17.7143 15.51C17.4743 15.78 17.3543 16.155 17.3543 16.62C17.3543 17.085 17.4893 17.49 17.7593 17.76C18.0293 18.045 18.4643 18.315 19.0793 18.57C19.6793 18.825 20.2493 19.095 20.7893 19.365C21.3293 19.635 21.7943 19.95 22.1843 20.31C22.5743 20.67 22.8743 21.075 23.0993 21.54C23.3243 22.005 23.4293 22.575 23.4293 23.235C23.4293 24.345 23.0693 25.2599 22.3643 25.9499C21.6593 26.6549 20.6993 27.06 19.4843 27.18V29.145H17.9393V27.18C16.5143 27.03 15.4343 26.55 14.6693 25.725C13.9193 24.9 13.5293 23.82 13.5293 22.4699H16.8143C16.8143 23.205 16.9793 23.775 17.3093 24.165C17.6393 24.555 18.1043 24.75 18.7043 24.75C19.1543 24.75 19.4993 24.615 19.7543 24.36C20.0093 24.09 20.1293 23.73 20.1293 23.28L20.1593 23.25Z" fill="white"/>
</svg>
