<svg width="73" height="72" viewBox="0 0 73 72" fill="none" xmlns="http://www.w3.org/2000/svg">
<path d="M8.23628 55.8L25.0663 50.535L39.1213 48.9C39.1213 48.9 41.9713 43.47 40.8463 42.78C39.7213 42.09 33.0013 38.04 31.6963 37.605C30.4063 37.17 17.9113 35.595 17.9113 35.595C17.9113 35.595 13.6063 38.55 11.8663 39.105C10.1263 39.66 -0.823717 55.62 8.23628 55.8Z" fill="white"/>
<path d="M50.7628 41.4C50.7628 41.4 43.5328 37.1249 19.0378 49.6499L11.5228 52.08C11.5228 52.08 6.19781 54.0749 5.53781 48.7949C5.05781 44.7899 1.87781 28.65 21.8278 23.04C21.8278 23.04 29.4478 20.64 36.4978 21.66C43.3078 22.635 48.6028 29.025 50.7628 41.4Z" fill="white"/>
<path d="M19.0371 49.6497C19.0371 49.6497 24.0021 54.1047 33.5871 54.8997C41.9121 55.5747 44.1021 51.0147 50.4921 48.5847C57.2421 46.0197 58.3521 45.6897 67.3821 47.2797L50.7621 41.3997" fill="white"/>
<path d="M26.4464 19.5149C26.9264 21.7799 25.4864 20.4749 23.7464 21.3149C21.6764 22.3349 18.7364 23.5199 18.2564 21.2699C17.7764 19.0199 19.2164 16.7849 21.4664 16.3049C23.7164 15.8249 25.9664 17.2499 26.4464 19.5149Z" fill="#00539F"/>
<path d="M19.0362 49.6498C10.9662 30.8998 21.8262 23.0548 21.8262 23.0548C21.8262 23.0548 16.3662 22.9948 14.0412 24.0748C11.7162 25.1548 1.50118 36.1948 2.49118 42.7498C3.48118 49.3048 1.32118 55.2298 5.44618 54.9598C9.57118 54.6898 19.0362 49.6498 19.0362 49.6498Z" fill="#ACD9F5"/>
<path d="M32.6426 20.5801C32.6426 20.5801 38.4926 20.5801 40.5026 29.2351" stroke="#00539F" stroke-width="1.5" stroke-miterlimit="10" stroke-linecap="round" stroke-linejoin="round"/>
<path d="M53.1625 41.325C53.1625 41.325 44.8225 38.175 18.4375 50.745" stroke="#00539F" stroke-width="1.5" stroke-miterlimit="10" stroke-linecap="round" stroke-linejoin="round"/>
<path d="M32.7919 21.4048C34.0219 21.4048 35.2669 21.4798 36.4969 21.6598C43.2919 22.6348 48.6019 29.0248 50.7619 41.3998L67.3969 47.2798C67.6969 47.4148 67.6969 47.9848 67.1419 47.9848C67.0819 47.9848 67.0069 47.9698 66.9169 47.9548C62.9869 47.0998 60.6019 46.6348 58.4869 46.6348C56.0719 46.6348 54.0469 47.2498 50.5069 48.5848C44.5369 50.8498 42.2419 54.9598 35.2069 54.9598C34.6969 54.9598 34.1569 54.9448 33.5869 54.8848C24.0019 54.1048 19.0369 49.6348 19.0369 49.6348L11.5219 52.0648C11.5219 52.0648 9.99186 52.7248 8.47686 52.7248C7.18686 52.7248 5.89686 52.2448 5.59686 50.4598C4.93686 46.4848 1.87686 28.6498 21.8269 23.0398C21.8269 23.0398 27.0169 21.4048 32.7919 21.4048ZM32.7919 17.6548C26.7919 17.6548 21.4369 19.2448 20.7619 19.4398C5.88186 23.6548 -0.823141 34.8748 1.90686 51.0598C2.47686 54.4198 4.99686 56.4898 8.49186 56.4898C10.4269 56.4898 12.1969 55.8598 12.8269 55.6048L18.3919 53.8048C20.9119 55.4398 25.9369 58.0348 33.3019 58.6348C33.9619 58.6948 34.6069 58.7098 35.2219 58.7098C40.7419 58.7098 44.0569 56.5798 46.9969 54.7048C48.5419 53.7148 50.0119 52.7848 51.8569 52.0798C55.3519 50.7598 56.8369 50.3698 58.5019 50.3698C60.1669 50.3698 62.2819 50.7598 66.1369 51.5998C66.4819 51.6748 66.8269 51.7048 67.1569 51.7048C69.1969 51.7048 70.8919 50.3398 71.2819 48.4048C71.6719 46.4998 70.6669 44.5648 68.8819 43.7998C68.8069 43.7698 68.7319 43.7398 68.6569 43.7098L54.0469 38.5498C50.5519 22.2898 41.9869 18.6298 37.0519 17.9098C35.7019 17.7448 34.2769 17.6548 32.7919 17.6548Z" fill="#00539F"/>
<path d="M50.8528 32.3702C50.5978 32.3402 46.7578 31.9802 41.5078 32.7452C41.7178 33.9152 42.0028 35.5652 42.1678 37.0052C46.9078 36.3302 50.3728 36.6452 50.4328 36.6452C51.6178 36.7502 52.6678 35.8952 52.7878 34.7252C52.8928 33.5402 52.0228 32.4902 50.8528 32.3702Z" fill="#00539F"/>
<path d="M41.5079 32.7451C41.4779 32.7451 41.4629 32.7451 41.4329 32.7601C38.1629 33.2401 34.3529 34.1551 30.5129 35.8501C29.4329 36.3301 28.9379 37.6051 29.4179 38.6851C29.7779 39.4801 30.5579 39.9601 31.3829 39.9601C31.6679 39.9601 31.9679 39.9001 32.2529 39.7801C35.6579 38.2651 39.0929 37.4551 42.0329 37.0201C42.0779 37.0201 42.1229 37.0051 42.1529 37.0051C42.0029 35.5651 41.7179 33.9151 41.5079 32.7451Z" fill="#8DC63F"/>
</svg>
