<svg width="49" height="48" viewBox="0 0 49 48" fill="none" xmlns="http://www.w3.org/2000/svg">
<path d="M19.0312 29.51H11.9512V42.11H19.0312V29.51Z" fill="white"/>
<path d="M34.5898 30.45L40.7098 28.92L40.5498 34.9L34.5898 35.06V30.45Z" fill="#ACD9F5"/>
<path d="M29.2607 9.84004C26.3807 9.84004 24.0107 10.23 23.7207 10.72L25.5807 4.44004C25.5807 4.08004 27.2307 3.79004 29.2607 3.79004C31.2907 3.79004 32.9407 4.08004 32.9407 4.44004L34.8007 10.72C34.5107 10.23 32.1407 9.84004 29.2607 9.84004Z" fill="#8DC63F"/>
<path d="M29.8298 11.8101C29.6398 11.8101 29.4498 11.8201 29.2598 11.8201C29.4598 11.8201 29.6498 11.8201 29.8298 11.8101Z" fill="#9CCBE5"/>
<path d="M29.2614 11.8201C32.3376 11.8201 34.8314 11.3768 34.8314 10.8301C34.8314 10.2833 32.3376 9.84009 29.2614 9.84009C26.1852 9.84009 23.6914 10.2833 23.6914 10.8301C23.6914 11.3768 26.1852 11.8201 29.2614 11.8201Z" stroke="#00579F" stroke-miterlimit="10"/>
<path d="M23.6914 10.83L25.5814 4.45005C25.5814 4.09005 27.2314 3.80005 29.2614 3.80005C31.2914 3.80005 32.9414 4.09005 32.9414 4.45005L34.8314 10.83" stroke="#00579F" stroke-miterlimit="10"/>
<path d="M29.2598 13.79V17.22" stroke="#00579F" stroke-width="2.5" stroke-miterlimit="10" stroke-linecap="round" stroke-linejoin="round"/>
<path d="M29.2598 19.2201V20.7501" stroke="#00579F" stroke-width="2.5" stroke-miterlimit="10" stroke-linecap="round" stroke-linejoin="round"/>
<path d="M29.2598 10.02V17.22" stroke="#00579F" stroke-miterlimit="10"/>
<path d="M29.5508 35.4301L40.8008 34.6901" stroke="#00579F" stroke-miterlimit="10" stroke-linecap="round" stroke-linejoin="round"/>
<path d="M18.5703 21.59C19.9903 21.33 21.3003 22.4 21.3003 23.82V27.29" fill="white"/>
<path d="M18.5703 21.59C19.9903 21.33 21.3003 22.4 21.3003 23.82V27.29" stroke="#00579F" stroke-miterlimit="10" stroke-linecap="round" stroke-linejoin="round"/>
<path d="M40.7305 40.59V28.92" stroke="#00579F" stroke-miterlimit="10" stroke-linecap="round" stroke-linejoin="round"/>
<path d="M34.4609 29.55V34.5601" stroke="#00579F" stroke-miterlimit="10" stroke-linecap="round" stroke-linejoin="round"/>
<path d="M40.7608 28.9201C40.7608 28.9201 44.4308 28.7401 44.4308 29.3401V30.3301V39.6201C44.4308 40.2201 43.9608 40.7301 43.3508 40.7801L27.7008 44.0701C26.4908 44.1701 25.2808 44.1801 24.0808 44.0801L11.1408 42.7801C10.3808 42.7001 9.80078 42.0801 9.80078 41.3301V29.2701C9.80078 28.3501 10.4408 27.5601 11.3508 27.3501L12.2408 27.2501V24.3101C12.2408 23.1401 13.0508 22.1201 14.1908 21.8401L17.6208 20.9901C18.7008 20.7201 19.8208 20.7001 20.9008 20.9201L32.6908 21.8301C34.1408 22.1301 35.1808 23.3901 35.1808 24.8401V29.3601L40.7008 28.9101" stroke="#00579F" stroke-width="2.5" stroke-miterlimit="10" stroke-linecap="round" stroke-linejoin="round"/>
<path d="M29.3705 43.65V29.31C29.3705 28.48 28.7705 27.77 27.9405 27.62L23.9805 27.29" stroke="#00579F" stroke-miterlimit="10" stroke-linecap="round" stroke-linejoin="round"/>
<path d="M12.7104 31.26C12.7104 31.26 13.6804 30.43 14.0504 30.37C14.4204 30.31 13.9804 29.42 13.7004 29.39C13.4204 29.36 13.3204 29.78 12.7904 29.15C12.2604 28.53 11.3804 28.99 11.7604 29.74C12.1404 30.48 11.9704 30.86 12.7104 31.26Z" fill="#00579F"/>
<path d="M18.4305 43.37L16.9005 43.77C15.8105 44.06 14.6905 44.2 13.5705 44.2H11.2605C9.94055 44.2 8.63055 44 7.37055 43.61L6.59055 43.37C6.56055 43.36 6.53055 43.36 6.50055 43.36L4.80055 43.51C4.65055 43.52 4.54055 43.39 4.58055 43.24L4.99055 41.68C4.99055 41.67 4.99055 41.66 5.00055 41.65C5.03055 41.39 5.43055 37.6 6.76055 34.77C8.08055 31.95 10.9505 31.73 11.1905 31.72C11.2005 31.72 11.2105 31.72 11.2205 31.72C11.5105 31.65 15.9605 30.72 18.0105 35.45C18.0105 35.46 18.0205 35.47 18.0305 35.48C18.1505 35.66 19.6005 37.92 19.1605 40.73C19.1505 40.77 19.1605 40.82 19.1805 40.86L20.4705 43.26C20.5505 43.41 20.4305 43.59 20.2605 43.57L18.5205 43.37C18.4805 43.36 18.4605 43.36 18.4305 43.37Z" fill="white"/>
<path d="M11.9708 31.7C11.9708 31.7 9.84078 33.41 9.13078 36.95C8.42078 40.49 8.73078 40.72 10.3208 41.91C11.9108 43.1 10.7908 43.82 10.7908 43.82L4.80078 44.05L5.39078 39.56L7.63078 33.19L10.5608 31.41L11.9708 31.7Z" fill="#ACD9F5"/>
<path d="M18.4305 43.37L16.9005 43.77C15.8105 44.06 14.6905 44.2 13.5705 44.2H11.2605C9.94055 44.2 8.63055 44 7.37055 43.61L6.59055 43.37C6.56055 43.36 6.53055 43.36 6.50055 43.36L4.80055 43.51C4.65055 43.52 4.54055 43.39 4.58055 43.24L4.99055 41.68C4.99055 41.67 4.99055 41.66 5.00055 41.65C5.03055 41.39 5.43055 37.6 6.76055 34.77C8.08055 31.95 10.9505 31.73 11.1905 31.72C11.2005 31.72 11.2105 31.72 11.2205 31.72C11.5105 31.65 15.9605 30.72 18.0105 35.45C18.0105 35.46 18.0205 35.47 18.0305 35.48C18.1505 35.66 19.6005 37.92 19.1605 40.73C19.1505 40.77 19.1605 40.82 19.1805 40.86L20.4705 43.26C20.5505 43.41 20.4305 43.59 20.2605 43.57L18.5205 43.37C18.4805 43.36 18.4605 43.36 18.4305 43.37Z" stroke="#00579F" stroke-width="2.5" stroke-miterlimit="10" stroke-linecap="round" stroke-linejoin="round"/>
<path d="M12.3098 32.23C12.3098 32.23 10.1798 32.4 9.33984 36.37L12.3098 32.23Z" fill="white"/>
<path d="M12.3098 32.23C12.3098 32.23 10.1798 32.4 9.33984 36.37" stroke="#00579F" stroke-miterlimit="10" stroke-linecap="round" stroke-linejoin="round"/>
<path d="M12.3008 32.41C12.3008 32.41 14.2708 32.71 14.7008 35.42L12.3008 32.41Z" fill="white"/>
<path d="M12.3008 32.41C12.3008 32.41 14.2708 32.71 14.7008 35.42" stroke="#00579F" stroke-miterlimit="10" stroke-linecap="round" stroke-linejoin="round"/>
<path d="M25.8905 43.6501V29.4101C25.8905 28.0501 24.6705 27.2301 23.2805 27.2601L11.5605 28.0401" stroke="#00579F" stroke-miterlimit="10" stroke-linecap="round" stroke-linejoin="round"/>
</svg>
