<?xml version="1.0" encoding="UTF-8" standalone="no"?>
<!DOCTYPE svg PUBLIC "-//W3C//DTD SVG 1.1//EN" "http://www.w3.org/Graphics/SVG/1.1/DTD/svg11.dtd">
<svg width="100%" height="100%" viewBox="0 0 487 220" version="1.1" xmlns="http://www.w3.org/2000/svg" xmlns:xlink="http://www.w3.org/1999/xlink" xml:space="preserve" xmlns:serif="http://www.serif.com/" style="fill-rule:evenodd;clip-rule:evenodd;stroke-linejoin:round;stroke-miterlimit:2;">
    <g transform="matrix(1,0,0,1,-42.6979,-115.6)">
        <g transform="matrix(1.36011,0,0,1.36011,-102.754,-81.2607)">
            <g transform="matrix(1,0,0,1,2.84217e-14,0.0696693)">
                <path d="M175.377,144.67C176.121,144.775 178.243,145.808 180.853,147.35C197.52,157.202 216.842,165.123 234.085,169.173C238.092,170.115 241.495,171.073 241.649,171.304C242.388,172.417 243.544,185.742 243.755,195.581C244.131,213.048 242.7,225.229 238.618,239.319C234.746,252.687 229.991,262.437 221.332,274.77C216.645,281.445 205.892,291.37 197.994,296.309C189.773,301.451 176.746,307.048 175.927,305.792C175.837,305.655 175.61,305.797 175.377,305.981C175.145,305.797 174.917,305.655 174.828,305.792C174.008,307.048 160.981,301.451 152.761,296.309C144.863,291.37 134.109,281.445 129.422,274.77C120.763,262.437 116.009,252.687 112.136,239.319C108.054,225.229 106.623,213.048 106.999,195.581C107.21,185.742 108.367,172.417 109.106,171.304C109.259,171.073 112.662,170.115 116.669,169.173C133.913,165.123 153.234,157.202 169.901,147.35C172.511,145.808 174.633,144.775 175.377,144.67Z" style="fill:rgb(71,71,82);"/>
                <clipPath id="_clip1">
                    <path d="M175.377,144.67C176.121,144.775 178.243,145.808 180.853,147.35C197.52,157.202 216.842,165.123 234.085,169.173C238.092,170.115 241.495,171.073 241.649,171.304C242.388,172.417 243.544,185.742 243.755,195.581C244.131,213.048 242.7,225.229 238.618,239.319C234.746,252.687 229.991,262.437 221.332,274.77C216.645,281.445 205.892,291.37 197.994,296.309C189.773,301.451 176.746,307.048 175.927,305.792C175.837,305.655 175.61,305.797 175.377,305.981C175.145,305.797 174.917,305.655 174.828,305.792C174.008,307.048 160.981,301.451 152.761,296.309C144.863,291.37 134.109,281.445 129.422,274.77C120.763,262.437 116.009,252.687 112.136,239.319C108.054,225.229 106.623,213.048 106.999,195.581C107.21,185.742 108.367,172.417 109.106,171.304C109.259,171.073 112.662,170.115 116.669,169.173C133.913,165.123 153.234,157.202 169.901,147.35C172.511,145.808 174.633,144.775 175.377,144.67Z"/>
                </clipPath>
                <g clip-path="url(#_clip1)">
                    <g transform="matrix(1,0,0,1.15575,-2.84217e-14,-49.3302)">
                        <rect x="72.916" y="160.206" width="102.163" height="156.075" style="fill:rgb(113,113,132);"/>
                    </g>
                </g>
            </g>
            <g transform="matrix(1.72085,0,0,1.72085,20.5914,128.881)">
                <path d="M90.809,76.628C91.125,76.293 92.026,74.404 92.812,72.431C97.551,60.539 103.95,51.271 115.568,39.475C117.894,37.114 119.72,35.104 119.625,35.009C119.064,34.449 113.115,37.032 109.787,39.282C102.575,44.157 95.508,52.47 90.958,61.43C90.607,62.121 90.189,62.686 90.03,62.686C89.871,62.686 88.712,61.87 87.455,60.871C82.578,56.998 79.129,55.026 76.864,54.815C75.311,54.671 73.839,55.552 73.706,56.705C73.631,57.349 73.99,57.82 76.28,60.079C80.572,64.314 83.096,67.494 86.226,72.608C88.017,75.534 89.383,77.239 89.937,77.239C90.102,77.239 90.494,76.964 90.809,76.628Z" style="fill:rgb(255,253,252);"/>
            </g>
            <g transform="matrix(1.1596,0,0,1.06592,-38.1622,-7.39903)">
                <path d="M261.963,232.651L261.963,176.69L433.834,176.69L433.834,191.004L421.296,232.651L261.963,232.651Z" style="fill:rgb(52,52,60);"/>
            </g>
            <g transform="matrix(1.1596,0,0,1.06592,-38.1622,-7.39903)">
                <path d="M251.397,176.69L433.834,176.69L419.103,225.395L249.36,225.395C251.547,214.631 252.331,204.105 252.058,190.283C251.973,185.98 251.715,181.009 251.397,176.69Z" style="fill:rgb(71,71,82);"/>
            </g>
            <g transform="matrix(1.1596,0,0,1.06592,-38.1622,44.5167)">
                <path d="M249.36,176.69L433.834,176.69L433.834,191.004L421.296,232.651L222.036,232.651C224.397,230.204 226.594,227.714 228.413,225.395C229.441,224.085 230.349,222.83 231.098,221.669C239.211,209.099 243.648,199.152 247.276,185.527C248.078,182.518 248.77,179.595 249.36,176.69Z" style="fill:rgb(52,52,60);"/>
            </g>
            <g transform="matrix(1.1596,0,0,1.06592,-38.1622,44.5167)">
                <path d="M249.36,176.69L433.834,176.69L419.103,225.395L228.413,225.395C229.441,224.085 230.349,222.83 231.098,221.669C239.211,209.099 243.648,199.152 247.276,185.527C248.078,182.518 248.77,179.595 249.36,176.69Z" style="fill:rgb(113,113,132);"/>
            </g>
        </g>
        <g transform="matrix(1,0,0,1,2.84217e-14,0.0696693)">
            <path d="M175.079,316.242L175.377,316.211L175.675,316.242C175.576,316.251 175.477,316.259 175.377,316.265C175.278,316.259 175.178,316.251 175.079,316.242Z" style="fill:rgb(76,76,76);"/>
        </g>
        <g id="g1">
        </g>
        <g transform="matrix(1,0,0,1,-63.9306,18.9432)">
            <g transform="matrix(48,0,0,48,556.466,197.998)">
            </g>
            <text x="338.69px" y="197.998px" style="font-family:'FinderRegular', 'Finder';font-size:48px;fill:rgb(255,253,252);">LICENSED</text>
        </g>
        <g transform="matrix(1,0,0,1,-63.9306,93.6125)">
            <g transform="matrix(48,0,0,48,536.258,197.998)">
            </g>
            <text x="338.69px" y="197.998px" style="font-family:'FinderRegular', 'Finder';font-size:48px;fill:rgb(255,253,252);">INSURED</text>
        </g>
    </g>
</svg>
