<svg width="48" height="48" viewBox="0 0 48 48" fill="none" xmlns="http://www.w3.org/2000/svg">
<path d="M12.2305 42.11L16.3105 42.39V7.07996L12.3405 9.30996L12.2305 42.11Z" fill="#ACD9F5" stroke="#ACD9F5" stroke-linecap="round" stroke-linejoin="round"/>
<path d="M23.2502 6.31995L33.9502 9.06995V40.3899L23.2402 41.6299L23.2502 6.31995Z" stroke="#00579F" stroke-linecap="round" stroke-linejoin="round"/>
<path d="M23.2496 6.43005L11.5996 9.51005V40.7901L23.2396 41.6301L23.2496 6.43005Z" stroke="#00579F" stroke-linecap="round" stroke-linejoin="round"/>
<path d="M10.6406 8.95999L23.2906 5.60999L34.9006 9.02998V17.49V28.96V40.71L23.2806 42.06L10.6406 41.15V8.95999Z" stroke="#00579F" stroke-width="2.5" stroke-linecap="round" stroke-linejoin="round"/>
<path d="M31.4091 32.8101L27.7891 32.9801" stroke="#00579F" stroke-linecap="round" stroke-linejoin="round"/>
<path d="M31.4091 11.33L27.7891 10.35" stroke="#00579F" stroke-linecap="round" stroke-linejoin="round"/>
<path d="M28.0705 13.26L38.7705 15.66V24.38L28.0605 24.47L28.0705 13.26Z" fill="#8DC63F" stroke="#8DC63F" stroke-linecap="round" stroke-linejoin="round"/>
<path d="M34.9609 15.2L36.1809 13.98L38.7709 14.59V17.06L34.9609 15.2Z" fill="#8DC63F" stroke="#8DC63F" stroke-linecap="round" stroke-linejoin="round"/>
<path d="M30.4902 19.8199L23.2402 20.3399V29.6499H30.4902" fill="#ADD9F4"/>
<path d="M30.4902 19.8199L23.2402 20.3399V29.6499H30.4902" stroke="#00579F" stroke-linecap="round" stroke-linejoin="round"/>
<path d="M30.4902 18.66L41.1902 19.72V29.56L30.4902 29.65V18.66Z" fill="white" stroke="#00579F" stroke-linecap="round" stroke-linejoin="round"/>
<path d="M38.1708 22.18L34.5508 22.03" stroke="#00579F" stroke-linecap="round" stroke-linejoin="round"/>
</svg>
