<svg width="48" height="48" viewBox="0 0 48 48" fill="none" xmlns="http://www.w3.org/2000/svg">
<path d="M22.0495 17.9301V21.9001L4.68945 23.6201V20.5201L22.0495 17.9301Z" fill="#ACD9F5"/>
<path d="M40.7099 30.37H37.4199V37.79L40.7099 37.5V30.37Z" fill="#8DC63F"/>
<path d="M29.7407 30.48L25.9707 30.5V38.73L29.7407 38.4V30.48Z" fill="#8DC63F"/>
<path d="M21.9495 16.87L4.68945 19.4V39.08L22.0495 40.08L44.5595 37.45V17.59" stroke="#00579F" stroke-width="2.5" stroke-linecap="round" stroke-linejoin="round"/>
<path d="M28.2306 7.92004L21.0406 18.41L2.14062 20.67L9.14062 11.62L28.2306 7.92004Z" fill="white" stroke="#00579F" stroke-width="2.5" stroke-linecap="round" stroke-linejoin="round"/>
<path d="M13.3505 27.69C13.4805 27.5 13.6005 27.33 13.7205 27.15C13.9805 26.78 14.2705 26.46 14.6705 26.29C15.6405 25.89 16.6905 26.55 16.9405 27.76C17.0905 28.49 16.9505 29.18 16.6305 29.81C16.3405 30.37 15.9705 30.87 15.5705 31.32C14.9205 32.05 14.2605 32.77 13.6005 33.49C13.5605 33.53 13.5305 33.54 13.4805 33.49C12.5805 32.64 11.6705 31.82 10.8505 30.86C10.4805 30.42 10.1305 29.96 9.93052 29.38C9.70052 28.71 9.65052 28.03 9.94052 27.37C10.4405 26.25 11.6205 25.94 12.4905 26.71C12.7605 26.95 12.9905 27.26 13.2305 27.54C13.2705 27.58 13.3005 27.63 13.3405 27.68L13.3505 27.69Z" fill="#8DC63F"/>
<path d="M22.0508 16.86V40.08" stroke="#00579F" stroke-linecap="round" stroke-linejoin="round"/>
<path d="M33.7305 16.46V38.15" stroke="#00579F" stroke-linecap="round" stroke-linejoin="round"/>
<path d="M28.2305 7.92004L33.7305 17.09" stroke="#00579F" stroke-width="2.5" stroke-linecap="round" stroke-linejoin="round"/>
<path d="M31.1191 12.3701L39.6091 10.0601L33.7291 17.0901" stroke="#00579F" stroke-width="2.5" stroke-linecap="round" stroke-linejoin="round"/>
<path d="M39.6094 10.0601L45.8594 19.2701" stroke="#00579F" stroke-width="2.5" stroke-linecap="round" stroke-linejoin="round"/>
<path d="M29.7407 24.2101L25.9707 24.0001V20.3101L29.7407 20.7101V24.2101Z" fill="#ACD9F5"/>
<path d="M40.7099 24.75L37.4199 24.57V21.58L40.7099 21.93V24.75Z" fill="#ACD9F5"/>
<path d="M17.8806 13.16L13.2406 13.85L11.3906 16.44L16.1706 15.82L17.8806 13.16Z" fill="#ACD9F5"/>
</svg>
