<svg width="48" height="48" viewBox="0 0 48 48" fill="none" xmlns="http://www.w3.org/2000/svg">
<path d="M22.8203 26.91C21.9403 26.91 21.3803 26.36 21.3603 25.48L21.3403 24.57C21.3303 23.95 21.3103 23.34 21.2903 22.72C21.2903 22.53 21.2603 22.09 21.5403 21.69C21.3403 21.44 21.2403 21.1 21.2503 20.68C21.2503 20.21 21.2003 18.17 21.1803 17.67C21.1603 17.3 21.2503 17.02 21.3903 16.81C21.2503 16.62 21.1503 16.36 21.1403 16.01L21.0903 13.59C21.0903 13.23 21.1403 12.97 21.3003 12.74C21.0503 12.39 21.0503 11.96 21.0403 11.71C21.0403 11.54 21.0403 11.42 21.0403 11.32L21.0203 10.96C20.9403 9.42002 21.5903 8.89002 22.4903 8.15002C22.4903 8.15002 22.8203 7.87002 22.8403 7.86002C22.7403 7.76002 22.6803 7.62002 22.6603 7.48002C22.6403 7.31002 22.6803 7.14002 22.7703 7.00002L22.7303 5.35002C22.7103 4.59002 23.9403 4.44002 24.6803 4.43002H24.8303C25.6603 4.43002 26.6503 4.57002 26.6703 5.26002L26.7103 6.86002C26.7803 6.94002 26.8303 7.03002 26.8603 7.13002C26.8903 7.25002 26.9203 7.48002 26.7303 7.73002C26.7203 7.75002 26.7103 7.76002 26.6903 7.78002C26.7003 7.79002 27.0903 8.08002 27.0903 8.08002C27.9903 8.75002 28.6403 9.24002 28.6403 10.73V11.14C28.6403 11.14 28.6403 11.2 28.6603 11.59C28.6603 11.79 28.6803 12.21 28.4503 12.58C28.6203 12.81 28.7103 13.11 28.7103 13.46C28.7103 13.97 28.7403 15.26 28.7603 15.78C28.7803 16.15 28.6903 16.43 28.5503 16.64C28.7003 16.84 28.7803 17.08 28.7903 17.34C28.8103 17.97 28.8703 20.17 28.8703 20.79C28.8703 20.98 28.8303 21.27 28.6303 21.53C28.8203 21.78 28.9103 22.1 28.9203 22.48C28.9203 23.06 28.9403 23.65 28.9603 24.23L28.9903 25.33C29.0103 26.21 28.4503 26.79 27.5603 26.81C27.5603 26.81 22.8503 26.92 22.8403 26.92L22.8203 26.91Z" fill="white"/>
<path d="M24.8108 4.92001C25.5608 4.92001 26.1408 5.07001 26.1508 5.26001L26.1908 7.10001C26.3208 7.15001 26.4208 7.26001 26.3008 7.41001C26.2808 7.44001 26.1008 7.52001 26.1008 7.53001C26.0708 7.83001 26.1808 8.02001 26.4108 8.20001C27.4908 9.03001 28.1108 9.31001 28.1208 10.72C28.1208 11.54 28.1108 10.78 28.1408 11.6C28.1608 12.02 28.1108 12.38 27.6408 12.59C28.0508 12.76 28.1808 13.06 28.1808 13.45C28.1808 13.97 28.2108 15.27 28.2308 15.79C28.2508 16.17 28.1308 16.46 27.7508 16.64C27.8008 16.67 27.8408 16.7 27.8808 16.72C28.1208 16.86 28.2508 17.07 28.2608 17.34C28.2808 17.96 28.3308 20.16 28.3408 20.78C28.3408 21.14 28.1308 21.37 27.7908 21.51C28.2308 21.7 28.3808 22.03 28.3908 22.47C28.4008 23.42 28.4308 24.37 28.4508 25.32C28.4608 25.92 28.1108 26.28 27.5108 26.29C25.9608 26.33 24.4008 26.36 22.8508 26.4C22.8408 26.4 22.8208 26.4 22.8108 26.4C22.2008 26.4 21.8708 26.07 21.8508 25.45C21.8308 24.53 21.8208 23.6 21.7808 22.68C21.7608 22.22 21.8708 21.85 22.3408 21.62C21.8308 21.46 21.7308 21.1 21.7308 20.66C21.7308 20.17 21.6808 18.11 21.6608 17.62C21.6408 17.24 21.7608 16.95 22.1308 16.78C22.1008 16.76 22.0808 16.73 22.0608 16.72C21.7508 16.57 21.6208 16.31 21.6208 15.98C21.6108 15.43 21.5808 14.1 21.5708 13.56C21.5708 13.12 21.6508 12.95 22.0608 12.7C21.5608 12.52 21.5308 12.12 21.5208 11.69C21.5208 11.33 21.5208 11.3 21.5208 11.3C21.5208 11.3 21.5208 11.28 21.5008 10.91C21.4208 9.48001 22.0308 9.15001 23.0908 8.25001C23.3108 8.07001 23.4008 7.87001 23.3608 7.59001C23.3508 7.59001 23.3208 7.56001 23.3008 7.56001C23.0608 7.49001 23.0808 7.26001 23.2408 7.17001L23.2008 5.32001C23.2008 5.11001 23.8508 4.93001 24.6608 4.91001C24.7108 4.91001 24.7508 4.91001 24.8008 4.91001M24.8108 3.92001H24.6508C24.1808 3.93001 23.7208 3.99001 23.3708 4.09001C22.3108 4.39001 22.2108 5.07001 22.2208 5.35001L22.2608 6.86001C22.1608 7.06001 22.1308 7.29001 22.1508 7.52001C22.1508 7.59001 22.1708 7.65001 22.1908 7.72001L22.1608 7.75001C21.2208 8.52001 20.4208 9.19001 20.5108 10.98C20.5208 11.19 20.5308 11.29 20.5308 11.34C20.5308 11.45 20.5308 11.57 20.5308 11.71C20.5308 11.93 20.5308 12.34 20.7208 12.75C20.6208 12.99 20.5808 13.27 20.5808 13.6L20.6008 14.47C20.6108 15.04 20.6308 15.68 20.6308 16.02C20.6308 16.31 20.7008 16.58 20.8108 16.82C20.7108 17.06 20.6608 17.34 20.6708 17.69C20.6908 18.17 20.7408 20.22 20.7408 20.67C20.7408 21.1 20.8208 21.44 20.9608 21.71C20.8408 21.99 20.7708 22.32 20.7908 22.74C20.8108 23.36 20.8308 23.97 20.8408 24.59L20.8608 25.49C20.8908 26.66 21.6608 27.41 22.8208 27.41H22.8808L24.6808 27.37L27.5408 27.3C28.6908 27.27 29.4808 26.45 29.4508 25.31C29.4508 24.95 29.4308 24.59 29.4208 24.23C29.4008 23.64 29.3908 23.05 29.3808 22.47C29.3808 22.09 29.2908 21.78 29.1708 21.53C29.2808 21.3 29.3308 21.05 29.3308 20.78C29.3308 20.12 29.2708 17.91 29.2508 17.32C29.2508 17.07 29.1808 16.83 29.0808 16.62C29.1808 16.36 29.2308 16.07 29.2208 15.76C29.2008 15.26 29.1708 13.96 29.1708 13.47C29.1708 13.11 29.1008 12.81 28.9808 12.57C29.0908 12.29 29.1408 11.96 29.1308 11.58C29.1208 11.31 29.1108 11.19 29.1108 11.13V10.74C29.1108 8.99001 28.2608 8.36001 27.3608 7.69001C27.3408 7.68001 27.3208 7.66001 27.3008 7.65001C27.3608 7.44001 27.3708 7.22001 27.3008 7.01001C27.2708 6.90001 27.2308 6.80001 27.1708 6.71001L27.1408 5.27001C27.1308 4.67001 26.7108 3.95001 24.8008 3.95001L24.8108 3.92001Z" fill="#00539F"/>
<path d="M26.3407 7.22001C26.3407 7.22001 25.1207 6.79001 23.2207 7.22001H26.3407Z" fill="white"/>
<path d="M26.3407 7.22001C26.3407 7.22001 25.1207 6.79001 23.2207 7.22001" stroke="#00539F" stroke-linecap="round" stroke-linejoin="round"/>
<path d="M17.0798 26.78C16.4898 26.78 16.0598 26.42 15.8998 25.79L15.7198 25.06C15.5998 24.57 15.4798 24.08 15.3498 23.59C15.2598 23.27 15.2598 22.98 15.3498 22.73C15.1498 22.55 15.0198 22.3 14.9498 21.96C14.8698 21.58 14.4598 19.96 14.3498 19.56C14.2698 19.27 14.2798 19.03 14.3498 18.84C14.1998 18.69 14.0798 18.49 14.0198 18.24L13.5398 16.3C13.4698 16.02 13.4698 15.8 13.5398 15.59C13.2898 15.34 13.2098 15 13.1698 14.8C13.1398 14.68 13.1198 14.58 13.0998 14.49L13.0198 14.2C12.6598 12.94 13.1198 12.35 13.6998 11.6L13.8698 11.38C13.7898 11.31 13.7298 11.22 13.6998 11.12C13.6498 10.98 13.6498 10.82 13.6998 10.68L13.3798 9.39003C13.3198 9.16003 13.3698 8.83003 13.9198 8.53003C14.1598 8.40003 14.4898 8.28003 14.8398 8.19003C15.1898 8.10003 15.5298 8.06003 15.7998 8.06003C16.4298 8.06003 16.6398 8.34003 16.6898 8.57003L16.9998 9.82003C17.0698 9.87003 17.1198 9.94003 17.1698 10.02C17.2598 10.19 17.2698 10.38 17.1898 10.57L17.4798 10.7C18.3198 11.07 18.9798 11.37 19.2598 12.61L19.3298 12.94C19.3298 12.94 19.3498 13 19.4298 13.29C19.4698 13.45 19.5598 13.78 19.4498 14.12C19.5998 14.27 19.7298 14.48 19.7998 14.78C19.8898 15.19 20.1498 16.22 20.2598 16.63C20.3398 16.92 20.3298 17.16 20.2598 17.36C20.4098 17.5 20.5098 17.68 20.5598 17.88C20.6898 18.38 21.1298 20.14 21.2498 20.64C21.2898 20.79 21.3098 21.03 21.2098 21.28C21.3798 21.44 21.5198 21.67 21.5898 21.99C21.6998 22.47 21.8198 22.94 21.9398 23.42L22.1498 24.27C22.3298 25.01 21.9498 25.64 21.2098 25.82L17.4898 26.75C17.3498 26.78 17.2198 26.8 17.0898 26.8L17.0798 26.78Z" fill="#A5D2ED"/>
<path d="M15.7799 8.55002C16.0099 8.55002 16.1699 8.59002 16.1899 8.68002L16.5599 10.15C16.6699 10.17 16.7699 10.23 16.7099 10.38C16.6999 10.41 16.5699 10.5 16.5699 10.51C16.5999 10.76 16.7199 10.89 16.9399 10.99C17.9599 11.46 18.5099 11.58 18.7599 12.71C18.9099 13.37 18.7599 12.76 18.9399 13.41C19.0299 13.74 19.0499 14.05 18.7199 14.29C19.0799 14.36 19.2399 14.57 19.3099 14.89C19.3999 15.31 19.6599 16.35 19.7799 16.76C19.8599 17.06 19.8199 17.31 19.5499 17.52C19.5999 17.54 19.6299 17.55 19.6699 17.56C19.8899 17.63 20.0299 17.77 20.0899 17.99C20.2199 18.49 20.6599 20.24 20.7799 20.74C20.8499 21.03 20.7199 21.25 20.4699 21.42C20.8599 21.49 21.0399 21.73 21.1299 22.08C21.3099 22.84 21.5099 23.6 21.6999 24.36C21.8199 24.84 21.5999 25.19 21.1199 25.31C19.8799 25.62 18.6399 25.93 17.3999 26.24C17.2999 26.26 17.2099 26.28 17.1199 26.28C16.7699 26.28 16.5299 26.07 16.4299 25.67C16.2499 24.93 16.0699 24.19 15.8699 23.46C15.7699 23.1 15.7899 22.78 16.1299 22.51C15.6899 22.48 15.5499 22.2 15.4699 21.85C15.3899 21.46 14.9699 19.81 14.8599 19.42C14.7799 19.12 14.8199 18.87 15.0899 18.66C15.0599 18.65 15.0499 18.63 15.0299 18.63C14.7499 18.57 14.5999 18.38 14.5399 18.12C14.4299 17.68 14.1699 16.62 14.0599 16.18C13.9699 15.83 14.0099 15.68 14.2999 15.4C13.8699 15.35 13.7699 15.03 13.6899 14.68C13.6199 14.39 13.6199 14.37 13.6199 14.37C13.6199 14.37 13.6199 14.35 13.5299 14.06C13.2099 12.93 13.6399 12.55 14.3299 11.64C14.4699 11.46 14.5099 11.28 14.4299 11.06C14.4199 11.06 14.3999 11.05 14.3799 11.04C14.1699 11.03 14.1499 10.84 14.2599 10.73L13.8899 9.25002C13.8499 9.08002 14.3399 8.82002 14.9899 8.66002C15.3099 8.58002 15.5999 8.54002 15.8299 8.54002M15.7799 7.55002C15.4599 7.55002 15.0899 7.60002 14.6999 7.70002C12.8399 8.17002 12.7599 9.03002 12.8799 9.51002L13.1699 10.68C13.1299 10.88 13.1499 11.09 13.2199 11.29C13.2199 11.31 13.2399 11.34 13.2499 11.36C12.6499 12.13 12.1099 12.88 12.5299 14.34C12.5799 14.5 12.5999 14.58 12.6099 14.62C12.6299 14.72 12.6499 14.81 12.6699 14.91C12.7099 15.07 12.7899 15.4 12.9899 15.71C12.9599 15.93 12.9899 16.16 13.0499 16.42L13.2299 17.13C13.3399 17.58 13.4699 18.09 13.5299 18.36C13.5899 18.59 13.6799 18.8 13.8099 18.98C13.7799 19.21 13.8099 19.45 13.8699 19.7C13.9699 20.08 14.3799 21.71 14.4599 22.07C14.5299 22.41 14.6599 22.68 14.8099 22.88C14.7799 23.13 14.7899 23.41 14.8799 23.73C15.0099 24.22 15.1299 24.71 15.2499 25.21L15.4299 25.93C15.6399 26.78 16.2799 27.3 17.0999 27.3C17.2699 27.3 17.4399 27.28 17.6199 27.23L18.9399 26.9L21.3399 26.3C22.3599 26.05 22.8999 25.16 22.6499 24.14L22.4299 23.27C22.3099 22.8 22.1899 22.34 22.0799 21.87C22.0099 21.57 21.8999 21.34 21.7599 21.15C21.7899 20.95 21.7899 20.74 21.7299 20.52C21.6099 20.02 21.1699 18.25 21.0399 17.75C20.9899 17.55 20.8999 17.37 20.7899 17.21C20.8199 16.98 20.7899 16.74 20.7299 16.5C20.6199 16.1 20.3599 15.07 20.2799 14.68C20.2199 14.39 20.1099 14.16 19.9799 13.98C20.0099 13.75 19.9799 13.48 19.9099 13.17C19.8599 12.97 19.8299 12.87 19.8099 12.82L19.7399 12.51C19.4099 11.05 18.5999 10.66 17.7299 10.28C17.7299 10.11 17.6799 9.95002 17.5999 9.79002C17.5599 9.71002 17.4999 9.63002 17.4399 9.57002L17.1599 8.47002C17.0899 8.20002 16.8299 7.58002 15.7799 7.58002V7.55002Z" fill="#00539F"/>
<path d="M32.3693 26.94C32.2093 26.94 32.0493 26.91 31.8793 26.86L27.8693 25.57C27.0593 25.31 26.7193 24.65 26.9693 23.84L27.2193 23.07C27.3893 22.54 27.5693 22 27.7293 21.46C27.7793 21.3 27.8893 20.92 28.2293 20.65C28.1393 20.37 28.1593 20.06 28.2893 19.7C28.4293 19.3 28.9893 17.55 29.1193 17.11C29.2093 16.79 29.3693 16.58 29.5393 16.44C29.4793 16.21 29.4893 15.96 29.5793 15.69L30.2493 13.61C30.3493 13.31 30.4793 13.1 30.6693 12.95C30.5693 12.57 30.6993 12.21 30.7693 11.99C30.8093 11.87 30.8393 11.77 30.8793 11.68L30.9693 11.35C31.3593 9.99003 32.0793 9.72003 33.0793 9.35003L33.4093 9.23003C33.3693 9.12003 33.3593 8.99003 33.3893 8.87003C33.4193 8.71003 33.5093 8.58003 33.6293 8.48003L34.0793 7.08003C34.1493 6.87003 34.3393 6.62003 34.8993 6.62003C35.2193 6.62003 35.6393 6.70003 36.0793 6.84003C36.4593 6.96003 36.7993 7.12003 37.0593 7.27003C37.6093 7.62003 37.6393 7.96003 37.5593 8.19003L37.1193 9.55003C37.1593 9.64003 37.1693 9.73003 37.1593 9.83003C37.1493 10.03 37.0393 10.22 36.8493 10.34L37.0693 10.67C37.6293 11.49 38.0593 12.14 37.6093 13.44L37.4893 13.79C37.4893 13.79 37.4793 13.85 37.3793 14.18C37.3293 14.35 37.2193 14.71 36.9093 14.96C36.9793 15.21 36.9593 15.49 36.8593 15.79C36.7093 16.23 36.3493 17.34 36.2193 17.78C36.1293 18.1 35.9693 18.31 35.7993 18.45C35.8593 18.66 35.8593 18.89 35.7893 19.12C35.6193 19.66 35.0193 21.55 34.8293 22.09C34.7793 22.25 34.6593 22.48 34.4193 22.66C34.4993 22.93 34.4793 23.23 34.3693 23.55C34.1993 24.05 34.0393 24.55 33.8793 25.05L33.5693 26C33.3793 26.6 32.9193 26.95 32.3393 26.95L32.3693 26.94Z" fill="#A5D2ED"/>
<path d="M34.9193 7.12003C35.1693 7.12003 35.5493 7.19003 35.9393 7.31003C36.6393 7.53003 37.1493 7.86003 37.0993 8.04003L36.5893 9.62003C36.6893 9.70003 36.7393 9.82003 36.5893 9.92003C36.5593 9.94003 36.3793 9.95003 36.3793 9.96003C36.2693 10.21 36.2993 10.41 36.4493 10.62C37.1293 11.65 37.5693 12.08 37.1593 13.27C36.9193 13.97 37.1293 13.32 36.9193 14.03C36.8093 14.39 36.6593 14.69 36.1993 14.72C36.4993 14.99 36.5193 15.28 36.4093 15.62C36.2593 16.06 35.8993 17.18 35.7593 17.63C35.6593 17.96 35.4793 18.17 35.0993 18.21C35.1293 18.26 35.1593 18.29 35.1793 18.32C35.3493 18.51 35.3993 18.73 35.3193 18.96C35.1493 19.5 34.5493 21.39 34.3693 21.92C34.2693 22.23 34.0193 22.36 33.6793 22.38C33.9993 22.67 34.0293 23 33.9093 23.38C33.6393 24.19 33.3793 25.02 33.1193 25.83C32.9893 26.23 32.7193 26.44 32.3693 26.44C32.2593 26.44 32.1493 26.42 32.0293 26.38C30.6893 25.95 29.3593 25.52 28.0193 25.09C27.4693 24.91 27.2693 24.53 27.4493 23.99C27.6993 23.2 27.9693 22.41 28.2093 21.61C28.3293 21.22 28.5293 20.93 28.9993 20.87C28.6093 20.59 28.6293 20.25 28.7693 19.87C28.9193 19.45 29.4793 17.68 29.6093 17.26C29.7093 16.93 29.8893 16.72 30.2593 16.68C30.2393 16.65 30.2293 16.63 30.2193 16.61C29.9993 16.39 29.9693 16.13 30.0593 15.85C30.2093 15.38 30.5793 14.24 30.7293 13.77C30.8493 13.39 30.9793 13.27 31.3993 13.18C31.0293 12.88 31.1193 12.53 31.2393 12.16C31.3393 11.85 31.3593 11.83 31.3593 11.83C31.3593 11.83 31.3593 11.81 31.4493 11.49C31.8093 10.25 32.4193 10.15 33.5993 9.70003C33.8393 9.61003 33.9693 9.47003 34.0293 9.22003C34.0293 9.21003 34.0093 9.19003 33.9893 9.17003C33.8093 9.04003 33.8893 8.85003 34.0593 8.82003L34.5693 7.23003C34.5893 7.15003 34.7193 7.12003 34.9093 7.12003M34.9193 6.12003C33.9893 6.12003 33.7093 6.68003 33.6293 6.93003L33.2193 8.21003C33.0693 8.37003 32.9693 8.56003 32.9193 8.78003C32.9193 8.82003 32.8993 8.87003 32.8993 8.91003C31.8993 9.28003 30.9593 9.64003 30.4993 11.23C30.4193 11.49 30.4093 11.56 30.3993 11.58C30.3593 11.68 30.3193 11.78 30.2993 11.85C30.2393 12.02 30.1193 12.38 30.1493 12.78C29.9993 12.96 29.8793 13.19 29.7893 13.47L29.5393 14.23C29.3793 14.72 29.2093 15.26 29.1093 15.55C29.0293 15.8 28.9993 16.04 29.0193 16.28C28.8693 16.46 28.7393 16.69 28.6493 16.99C28.5293 17.41 27.9593 19.16 27.8293 19.55C27.6993 19.91 27.6693 20.23 27.6993 20.5C27.5193 20.71 27.3693 20.98 27.2593 21.33C27.0993 21.86 26.9293 22.4 26.7493 22.93L26.4993 23.7C26.1593 24.77 26.6493 25.71 27.7193 26.06L29.1493 26.52L31.7293 27.35C31.9493 27.42 32.1593 27.46 32.3693 27.46C33.1593 27.46 33.8093 26.96 34.0693 26.16L34.3693 25.22C34.5293 24.72 34.6893 24.22 34.8593 23.72C34.9693 23.4 34.9993 23.11 34.9693 22.86C35.1193 22.69 35.2393 22.49 35.3193 22.26C35.4993 21.72 36.1093 19.82 36.2793 19.28C36.3493 19.06 36.3693 18.85 36.3493 18.63C36.5093 18.44 36.6293 18.2 36.7093 17.93C36.8393 17.5 37.1893 16.39 37.3393 15.96C37.4493 15.65 37.4793 15.38 37.4593 15.14C37.6293 14.93 37.7693 14.66 37.8693 14.33C37.9393 14.1 37.9693 14 37.9793 13.94L38.0993 13.61C38.6293 12.08 38.0793 11.26 37.4993 10.4C37.5993 10.24 37.6693 10.05 37.6793 9.86003C37.6793 9.76003 37.6793 9.66003 37.6593 9.56003L38.0493 8.35003C38.1993 7.87003 38.1693 6.98003 36.2493 6.36003C35.7593 6.20003 35.2893 6.12003 34.9193 6.12003Z" fill="#00539F"/>
<path d="M36.659 9.71002C36.659 9.71002 35.889 9.05002 33.959 8.80002L36.659 9.71002Z" fill="white"/>
<path d="M36.659 9.71002C36.659 9.71002 35.889 9.05002 33.959 8.80002" stroke="#00539F" stroke-linecap="round" stroke-linejoin="round"/>
<path d="M16.8308 10.34C16.8308 10.34 15.8308 10.18 14.0508 10.98L16.8308 10.34Z" fill="white"/>
<path d="M16.8308 10.34C16.8308 10.34 15.8308 10.18 14.0508 10.98" stroke="#00539F" stroke-linecap="round" stroke-linejoin="round"/>
<path d="M37.9892 16.74L24.6292 14.14L11.4492 16.83L13.1392 40.66L24.9792 41.67L36.4992 40L37.9892 16.74Z" fill="white"/>
<g style="mix-blend-mode:multiply">
<path d="M24.8298 13.22L25.0598 19.64L10.7298 25.48L10.0098 16.41L23.8898 13.8" fill="#ACD9F5"/>
</g>
<path d="M24.6297 14.14L37.9897 16.74L36.4997 40L24.9797 41.68L13.1397 40.67L11.4397 16.84L24.6197 14.15M24.6297 11.64C24.4597 11.64 24.2896 11.66 24.1297 11.69L10.9497 14.38C9.71965 14.63 8.86965 15.76 8.95965 17.01L10.6597 40.84C10.7497 42.07 11.7097 43.05 12.9397 43.15L24.7797 44.16C24.8497 44.16 24.9197 44.16 24.9897 44.16C25.1097 44.16 25.2297 44.16 25.3497 44.13L36.8696 42.45C38.0396 42.28 38.9297 41.31 38.9997 40.14L40.4897 16.88C40.5697 15.63 39.7097 14.51 38.4697 14.27L25.1097 11.67C24.9497 11.64 24.7896 11.62 24.6297 11.62V11.64Z" fill="#00539F"/>
<path d="M24.9792 43.46L24.4492 12.52" stroke="#00539F" stroke-linecap="round" stroke-linejoin="round"/>
<path d="M31.6197 30.77C32.7197 30.8 33.7297 30.31 34.4997 29.4C35.1997 28.56 35.6097 27.46 35.6597 26.28L34.2597 26.12C34.2297 26.91 33.9597 27.64 33.4897 28.2C32.9897 28.8 32.3197 29.11 31.5997 29.1C30.7997 29.08 30.1997 28.78 29.8097 28.21L29.6497 27.97L30.4597 27.2L28.1997 26.89L27.9297 29.61L28.5497 29.02L28.6997 29.25C29.2997 30.15 30.4497 30.75 31.6097 30.78L31.6197 30.77Z" fill="#8DC63F"/>
<path d="M34.659 22.6C34.059 21.7 32.909 21.1 31.749 21.07C30.649 21.04 29.639 21.53 28.869 22.44C28.149 23.3 27.739 24.44 27.709 25.66L29.109 25.82C29.109 24.99 29.389 24.22 29.879 23.64C30.379 23.04 31.039 22.72 31.769 22.74C32.569 22.76 33.169 23.06 33.559 23.63L33.719 23.87L32.909 24.64L35.169 24.95L35.439 22.23L34.819 22.82L34.669 22.59L34.659 22.6Z" fill="#8DC63F"/>
</svg>
