<svg width="49" height="48" viewBox="0 0 49 48" fill="none" xmlns="http://www.w3.org/2000/svg">
<path d="M33.9902 8.27002L45.4902 20.75H44.0902" fill="#00579F"/>
<path d="M33.9902 8.27002L45.4902 20.75H44.0902" stroke="#00579F" stroke-width="2.5" stroke-miterlimit="10" stroke-linecap="round" stroke-linejoin="round"/>
<path d="M25.1912 42.06C25.0712 42.06 24.9613 42.04 24.8512 42.01L7.15125 40.11C6.51125 40.04 6.03125 39.51 6.03125 38.87V21.87C6.03125 21.21 6.54125 20.66 7.20125 20.62L24.5812 19.52L33.0312 9.46001C33.2612 9.19001 33.6012 9.02001 33.9612 9.01001C33.9712 9.01001 33.9813 9.01001 33.9913 9.01001C34.3413 9.01001 34.6712 9.15001 34.9112 9.41001L43.5112 18.68C43.7212 18.91 43.8413 19.21 43.8413 19.53V38.02C43.8413 38.63 43.3913 39.16 42.7913 39.25L25.3912 42.04C25.3212 42.06 25.2612 42.06 25.1912 42.06Z" fill="white"/>
<path d="M33.9913 10.27L42.5913 19.54V38.03L25.1912 40.82V40.8L7.28125 38.87V21.87L25.1912 20.74L33.9913 10.27ZM33.9913 7.77002C33.9713 7.77002 33.9513 7.77002 33.9312 7.77002C33.2113 7.79002 32.5412 8.11002 32.0812 8.66002L23.9712 18.31L7.12125 19.38C5.80125 19.46 4.78125 20.56 4.78125 21.88V38.88C4.78125 40.16 5.74125 41.23 7.01125 41.37L24.6512 43.26C24.8312 43.3 25.0112 43.32 25.1912 43.32C25.3212 43.32 25.4513 43.31 25.5812 43.29L42.9813 40.5C44.1912 40.31 45.0813 39.26 45.0813 38.03V19.54C45.0813 18.91 44.8413 18.3 44.4113 17.84L35.8113 8.57002C35.3513 8.06002 34.6813 7.77002 33.9913 7.77002Z" fill="#00579F"/>
<path d="M17.9102 18.21C17.5902 18.21 17.2802 18.09 17.0502 17.87C16.8002 17.63 16.6602 17.31 16.6602 16.96V6.86003C16.6602 6.26003 17.0802 5.75003 17.6702 5.63003L21.8702 4.80003C21.9502 4.78003 22.0302 4.78003 22.1102 4.78003C22.4002 4.78003 22.6802 4.88003 22.9002 5.06003C23.1902 5.30003 23.3602 5.65003 23.3602 6.03003V16.76C23.3602 17.43 22.8402 17.98 22.1702 18.01C22.1702 18 17.9302 18.21 17.9102 18.21Z" fill="white"/>
<path d="M22.1102 6.02002V16.75L17.9102 16.96V6.86002L22.1102 6.02002ZM22.1102 3.52002C21.9502 3.52002 21.7902 3.54002 21.6202 3.57002L17.4202 4.40002C16.2502 4.63002 15.4102 5.66002 15.4102 6.85002V16.95C15.4102 17.63 15.6902 18.29 16.1902 18.76C16.6602 19.2 17.2702 19.45 17.9102 19.45C17.9502 19.45 17.9902 19.45 18.0302 19.45L22.2302 19.24C23.5602 19.17 24.6102 18.08 24.6102 16.74V6.02002C24.6102 5.27002 24.2702 4.56002 23.7002 4.09002C23.2502 3.72002 22.6902 3.52002 22.1102 3.52002Z" fill="#00579F"/>
<path d="M22.1113 18C21.9713 18 21.8313 17.98 21.6913 17.93C21.1913 17.75 20.8613 17.28 20.8613 16.75V6.02002C20.8613 5.65002 21.0213 5.30002 21.3113 5.06002C21.5413 4.87002 21.8213 4.77002 22.1113 4.77002C22.1813 4.77002 22.2513 4.78002 22.3313 4.79002L24.8513 5.23002C25.4513 5.33002 25.8813 5.85002 25.8813 6.46002L25.9213 13.63C25.9213 13.92 25.8213 14.2 25.6413 14.43L23.0813 17.55C22.8413 17.84 22.4813 18 22.1113 18Z" fill="white"/>
<path d="M22.1113 6.02002L24.6313 6.46002L24.6713 13.63L22.1113 16.75V6.02002ZM22.1113 3.52002C21.5313 3.52002 20.9613 3.72002 20.5013 4.11002C19.9313 4.59002 19.6113 5.29002 19.6113 6.02002V16.75C19.6113 17.81 20.2713 18.75 21.2713 19.1C21.5513 19.2 21.8313 19.25 22.1113 19.25C22.8413 19.25 23.5613 18.93 24.0413 18.34L26.6013 15.22C26.9713 14.77 27.1713 14.2 27.1713 13.62L27.1313 6.45002C27.1313 5.24002 26.2613 4.21002 25.0713 4.00002L22.5513 3.56002C22.4013 3.54002 22.2613 3.52002 22.1113 3.52002Z" fill="#00579F"/>
<path d="M33.9904 8.27002L23.5204 22.98L3.15039 23.7L13.0904 11.22L33.9904 8.27002Z" fill="white" stroke="#00579F" stroke-width="2.5" stroke-miterlimit="10" stroke-linecap="round" stroke-linejoin="round"/>
<path d="M22.1109 15.91V6.02002L17.9109 6.86002L17.4609 17.52L22.1109 15.91Z" fill="#ACD9F5"/>
<path d="M17.4004 6.45996V17.07" stroke="#00579F" stroke-miterlimit="10" stroke-linecap="round" stroke-linejoin="round"/>
<path d="M25.1895 40.81V20.75" stroke="#00579F" stroke-miterlimit="10" stroke-linecap="round" stroke-linejoin="round"/>
<path d="M33.3712 42.0401C34.0612 41.9301 34.5212 41.2801 34.4012 40.5901C34.2912 39.9001 33.6412 39.4401 32.9512 39.5601L35.8312 39.0801L36.3012 41.9101L33.3712 42.0401Z" fill="white"/>
<path d="M42.5805 38.12C42.5805 38.82 43.1405 39.38 43.8405 39.38C44.5405 39.38 45.1005 38.82 45.1005 38.12V41.04H42.2305L42.5805 38.12Z" fill="white"/>
<path d="M42.5912 37.3H36.2012V43.17H42.5912V37.3Z" fill="white"/>
<path d="M31.0508 19.42L36.9508 44.04" stroke="#8DC63F" stroke-width="2" stroke-miterlimit="10" stroke-linecap="round" stroke-linejoin="round"/>
<path d="M36.2207 19.15L41.8807 42.53" stroke="#8DC63F" stroke-width="2" stroke-miterlimit="10" stroke-linecap="round" stroke-linejoin="round"/>
<path d="M41.3799 40.16L36.9199 41.03" stroke="#8DC63F" stroke-miterlimit="10" stroke-linecap="round" stroke-linejoin="round"/>
<path d="M40.25 35.4L35.75 35.99" stroke="#8DC63F" stroke-miterlimit="10" stroke-linecap="round" stroke-linejoin="round"/>
<path d="M39.081 30.53L34.541 30.96" stroke="#8DC63F" stroke-miterlimit="10" stroke-linecap="round" stroke-linejoin="round"/>
<path d="M37.8913 25.63L33.3613 25.87" stroke="#8DC63F" stroke-miterlimit="10" stroke-linecap="round" stroke-linejoin="round"/>
<path d="M36.8216 20.95L32.1016 20.85" stroke="#8DC63F" stroke-miterlimit="10" stroke-linecap="round" stroke-linejoin="round"/>
<path d="M24.4995 9.95996C24.4995 9.95996 24.6795 10.74 25.2595 10.79C25.8295 10.83 25.0995 11.14 25.0695 11.13C25.0395 11.12 24.3895 11.23 24.2795 11.06C24.1695 10.89 24.0195 10.29 24.0195 10.29L24.4995 9.95996Z" fill="white"/>
<path d="M22.1113 16.75L22.1313 5.52002L25.1313 6.00002L25.1113 10.28" fill="white"/>
<path d="M22.1113 16.75L22.1313 5.52002L25.1313 6.00002L25.1113 10.28" stroke="#00579F" stroke-miterlimit="10" stroke-linecap="round" stroke-linejoin="round"/>
<path d="M12.0098 31.91V33.95L14.5998 34.09V31.99L12.0098 31.91Z" fill="#ACD9F5" stroke="#ACD9F5" stroke-miterlimit="10" stroke-linecap="round" stroke-linejoin="round"/>
<path d="M14.5998 27.86L12.0098 27.85V29.91L14.5998 29.99V27.86Z" fill="#ACD9F5" stroke="#ACD9F5" stroke-miterlimit="10" stroke-linecap="round" stroke-linejoin="round"/>
<path d="M19.3696 30.14V27.87L16.5996 27.86V30.06L19.3696 30.14Z" fill="#ACD9F5" stroke="#ACD9F5" stroke-miterlimit="10" stroke-linecap="round" stroke-linejoin="round"/>
<path d="M16.5996 34.1999L19.3696 34.3599V32.1399L16.5996 32.0599V34.1999Z" fill="#ACD9F5" stroke="#ACD9F5" stroke-miterlimit="10" stroke-linecap="round" stroke-linejoin="round"/>
</svg>
