<svg width="48" height="48" viewBox="0 0 48 48" fill="none" xmlns="http://www.w3.org/2000/svg">
<path d="M31.3992 40.3L32.5992 39.5C31.7992 38.7 31.2992 37.3 31.1992 35.8C31.1992 34.5 31.4992 33.2 32.0992 32.3L31.8992 31.3L32.1992 30.8C32.4992 30.7 33.2992 30.8 33.5992 30.8C35.4992 30.9 37.1992 32.7 37.2992 35.5C37.2992 38 35.7992 40.5 34.1992 41L32.4992 41.2" fill="#00539F"/>
<path d="M31.3992 40.3L32.5992 39.5C31.7992 38.7 31.2992 37.3 31.1992 35.8C31.1992 34.5 31.4992 33.2 32.0992 32.3L31.8992 31.3L32.1992 30.8C32.4992 30.7 33.2992 30.8 33.5992 30.8C35.4992 30.9 37.1992 32.7 37.2992 35.5C37.2992 38 35.7992 40.5 34.1992 41L32.4992 41.2" stroke="#00539F" stroke-width="2.1226" stroke-miterlimit="10" stroke-linecap="round" stroke-linejoin="round"/>
<path d="M35.9302 36.1409C36.0439 33.2713 34.6151 30.8847 32.7388 30.8104C30.8626 30.736 29.2493 33.002 29.1356 35.8716C29.0219 38.7412 30.4507 41.1277 32.327 41.2021C34.2032 41.2764 35.8164 39.0104 35.9302 36.1409Z" fill="#00539F" stroke="#00539F" stroke-width="2.1226" stroke-miterlimit="9.9998" stroke-linecap="round" stroke-linejoin="round"/>
<path d="M20.8984 41.3C20.7984 41.3 20.7984 41.3 20.6984 41.3L5.99844 38.9C5.39844 38.8 4.99844 38.3 4.89844 37.7L3.59844 16.2C3.29844 16.2 2.99844 16.1 2.79844 15.9C2.49844 15.7 2.39844 15.3 2.39844 15V12.2C2.39844 11.6 2.79844 11.1 3.39844 11L20.1984 7C20.2984 7 20.3984 7 20.4984 7H20.5984L44.6984 9.8C45.2984 9.9 45.7984 10.4 45.7984 11V14.1C45.7984 14.5 45.5984 14.8 45.3984 15C45.1984 15.2 44.8984 15.3 44.5984 15.3H44.3984L42.8984 36.7C42.8984 37.3 42.3984 37.7 41.8984 37.9L21.0984 41.3C20.9984 41.3 20.9984 41.3 20.8984 41.3Z" fill="white"/>
<path d="M20.4992 8.20001L44.5992 11V14.1L43.2992 14L41.6992 36.7L20.8992 40L6.19922 37.6L4.79922 14.8L3.69922 14.9V12.1L20.4992 8.20001ZM20.4992 5.70001C20.2992 5.70001 20.0992 5.70001 19.8992 5.80001L3.09922 9.70001C1.99922 10 1.19922 11 1.19922 12.1V15C1.19922 15.7 1.49922 16.4 1.99922 16.9C2.09922 17 2.29922 17.1 2.39922 17.2L3.69922 37.9C3.79922 39.1 4.59922 40 5.79922 40.2L20.4992 42.6C20.5992 42.6 20.7992 42.6 20.8992 42.6C20.9992 42.6 21.1992 42.6 21.2992 42.6L42.0992 39.2C43.1992 39 44.0992 38.1 44.1992 36.9L45.6992 16.4C45.8992 16.3 46.1992 16.1 46.3992 16C46.8992 15.5 47.1992 14.9 47.1992 14.1V11C47.1992 9.70001 46.1992 8.70001 44.9992 8.50001L20.7992 5.80001C20.6992 5.70001 20.5992 5.70001 20.4992 5.70001Z" fill="#00539F"/>
<path d="M20.7988 11.4L20.9988 19.1L5.39883 25.5L4.79883 14.8L19.6988 12.1" fill="#ACD9F5"/>
<path d="M20.8984 40V12.1" stroke="#00539F" stroke-miterlimit="10" stroke-linecap="round" stroke-linejoin="round"/>
<path d="M20.8984 11.8L44.5984 14.1" stroke="#00539F" stroke-miterlimit="10" stroke-linecap="round" stroke-linejoin="round"/>
<path d="M27.1 25.3C26.8 24.7 26.6 24.3 26.6 24.2C26.4 23.8 26.3 23.2 26.3 22.7C26.3 21.1 27.4 19.8 28.7 19.9C29.3 19.9 29.9 20.1 30.3 20.7L29.2 21.7L32.3 22.1L32.5 20L32.6 19.2L32.7 18.3L31.8 19.1C31.1 18.1 29.9 17.5 28.7 17.5C26.4 17.4 24.5 19.7 24.5 22.6C24.5 23.5 24.7 24.4 25.1 25.2C25.1 25.2 25.5 26.1 26.1 27V26.3V25.2H27L27.1 25.3Z" fill="#8DC63F"/>
<path d="M33.8004 30.8V29.7V29.2C33.2004 30 32.4004 30.7 31.9004 31.3C31.3004 30.7 30.4004 29.8 29.6004 28.7C29.4004 28.4 29.2004 28.1 29.0004 27.8L30.0004 26.6H27.9004H26.9004V28.6V30.4L27.6004 29.5C27.8004 29.8 28.0004 30.1 28.2004 30.4C29.6004 32.3 31.3004 33.8 31.3004 33.8C31.5004 33.9 31.7004 34 31.8004 34C32.0004 34 32.2004 33.9 32.4004 33.8C32.6004 33.6 33.9004 32.4 35.0004 31H34.6004L33.8004 30.8Z" fill="#8DC63F"/>
<path d="M39.0004 25.7C39.4004 24.9 39.6004 24 39.6004 23.1C39.6004 20.2 37.5004 17.6 35.2004 17.7C34.6004 17.7 34.0004 17.9 33.6004 18.2L33.4004 21.3C33.9004 20.5 34.6004 19.9 35.4004 19.9C36.7004 19.9 37.7004 21.4 37.7004 22.9C37.7004 23.4 37.6004 23.9 37.4004 24.3C37.4004 24.3 37.0004 25.1 36.3004 26.1C36.1004 26.4 35.9004 26.6 35.7004 26.9L34.8004 25.7V27.7V29.4H36.1004H37.9004L37.1004 28.4C37.3004 28.1 37.6004 27.9 37.8004 27.6C38.5004 26.7 39.0004 25.7 39.0004 25.7Z" fill="#8DC63F"/>
<path d="M20.5 8V11.6" stroke="#00539F" stroke-miterlimit="10" stroke-linecap="round" stroke-linejoin="round"/>
<path d="M20.4984 11.8L3.39844 15.2" stroke="#00539F" stroke-miterlimit="10" stroke-linecap="round" stroke-linejoin="round"/>
<path d="M10.5984 42.6L11.8984 41.8C10.9984 40.9 10.4984 39.5 10.3984 37.8C10.3984 36.3 10.7984 35 11.3984 34L11.1984 33L11.5984 32.5C11.9984 32.4 12.7984 32.5 13.0984 32.5C15.0984 32.6 16.9984 34.6 16.9984 37.5C16.9984 40.2 15.3984 42.8 13.5984 43.4L11.7984 43.6" fill="#00539F"/>
<path d="M10.5984 42.6L11.8984 41.8C10.9984 40.9 10.4984 39.5 10.3984 37.8C10.3984 36.3 10.7984 35 11.3984 34L11.1984 33L11.5984 32.5C11.9984 32.4 12.7984 32.5 13.0984 32.5C15.0984 32.6 16.9984 34.6 16.9984 37.5C16.9984 40.2 15.3984 42.8 13.5984 43.4L11.7984 43.6" stroke="#00539F" stroke-width="2.5" stroke-miterlimit="10" stroke-linecap="round" stroke-linejoin="round"/>
<path d="M15.4726 38.1299C15.5951 35.0396 14.0839 32.4706 12.0973 32.3918C10.1107 32.3131 8.40088 34.7545 8.2784 37.8448C8.15593 40.9351 9.66712 43.5041 11.6538 43.5829C13.6404 43.6616 15.3502 41.2202 15.4726 38.1299Z" fill="white" stroke="#00539F" stroke-width="2.5" stroke-miterlimit="9.9998" stroke-linecap="round" stroke-linejoin="round"/>
<path d="M13.3738 38.0467C13.4241 36.7775 12.7939 35.722 11.9661 35.6892C11.1384 35.6564 10.4265 36.6587 10.3762 37.9279C10.3259 39.1972 10.9562 40.2527 11.784 40.2855C12.6117 40.3183 13.3235 39.316 13.3738 38.0467Z" fill="#ACD9F5"/>
</svg>
