<svg width="48" height="48" viewBox="0 0 48 48" fill="none" xmlns="http://www.w3.org/2000/svg">
<path d="M36.5491 22.32L30.2891 21.96V37.7L36.5491 36.45V22.32Z" fill="#ACD9F5"/>
<path d="M36.5491 36.45V22.11L30.2891 21.74V37.7" stroke="#00579F" stroke-linecap="round" stroke-linejoin="round"/>
<mask id="mask0_4078_7595" style="mask-type:luminance" maskUnits="userSpaceOnUse" x="3" y="8" width="22" height="11">
<path d="M15.8297 17.32C15.3097 17.38 14.7797 17.42 14.2497 17.46C12.0097 17.63 9.77969 17.8 7.53969 17.97C6.33969 18.06 5.13969 18.15 3.92969 18.25C5.92969 16.59 7.76969 13.92 7.76969 11.12L24.8997 8.27002C24.6197 9.16002 24.5297 10.14 24.3197 11.05C23.9797 12.54 23.2097 13.77 22.0897 14.83C20.3197 16.52 18.1197 17.06 15.8197 17.32H15.8297Z" fill="white"/>
</mask>
<g mask="url(#mask0_4078_7595)">
<path d="M15.3902 17.06C14.8702 17.12 14.3402 17.16 13.8102 17.2C11.5702 17.37 9.34023 17.54 7.10023 17.71C5.90023 17.8 4.70023 17.89 3.49023 17.99C5.49023 16.33 7.33023 13.66 7.33023 10.86L24.4602 8.00997C24.6402 7.97997 23.8502 11.31 23.7202 11.6C23.2402 12.72 22.5302 13.73 21.6502 14.57C19.8802 16.26 17.6802 16.8 15.3802 17.06H15.3902Z" fill="#8DC63F"/>
<path d="M9.80039 17.3099C9.28039 17.3699 8.75039 17.4099 8.22039 17.4499C5.98039 17.6199 3.75039 17.7899 1.51039 17.9599C0.31039 18.0499 -0.889609 18.1399 -2.09961 18.2399C-0.0896094 16.5799 1.19039 13.8899 1.19039 11.0899C13.3504 9.14327 19.2504 8.1966 18.8904 8.24994C18.8904 8.24994 18.3204 10.8299 18.2704 11.0299C17.9004 12.5299 17.2204 13.7199 16.0804 14.8099C14.3104 16.4999 12.1104 17.0399 9.81039 17.2999L9.80039 17.3099Z" fill="white"/>
<path d="M4.41953 17.76C3.89953 17.82 3.36953 17.86 2.83953 17.9C0.599531 18.07 -1.63047 18.24 -3.87047 18.41C-5.07047 18.5 -6.27047 18.59 -7.48047 18.69C-5.48047 17.03 -4.20047 14.34 -4.20047 11.54C7.95953 9.59334 13.8595 8.64668 13.4995 8.70001C13.5595 8.92001 13.3595 9.42001 13.3095 9.63001C13.1795 10.25 13.0495 10.88 12.9095 11.5C12.5695 12.98 11.7995 14.21 10.6895 15.26C8.91953 16.95 6.71953 17.49 4.41953 17.75V17.76Z" fill="#8DC63F"/>
<path d="M-1.16055 18C-1.68055 18.06 -2.21055 18.1 -2.74055 18.14C-4.98055 18.31 -7.21055 18.48 -9.45055 18.65C-10.6505 18.74 -11.8505 18.83 -13.0605 18.93C-11.0605 17.27 -9.78055 14.58 -9.78055 11.78C-9.78055 11.78 7.90945 8.95002 7.91945 8.94002C8.09945 8.91002 7.86946 12.26 7.74945 12.55C7.26945 13.67 5.99945 14.66 5.11945 15.5C3.34945 17.19 1.14945 17.73 -1.15055 17.99L-1.16055 18Z" fill="white"/>
</g>
<mask id="mask1_4078_7595" style="mask-type:luminance" maskUnits="userSpaceOnUse" x="25" y="8" width="20" height="10">
<path d="M25.0393 8.18005C25.0393 10.6101 26.0393 12.9801 27.7793 14.6801C29.8993 16.7501 32.6193 17.1601 35.4493 17.3401C37.6293 17.4801 39.7993 17.6201 41.9793 17.7601C42.6693 17.8001 43.3693 17.8501 44.0593 17.8901C43.8193 17.7601 43.5793 17.6201 43.3493 17.4701C41.4193 16.1701 39.7193 13.4501 39.7193 10.9501L25.0293 8.18005H25.0393Z" fill="white"/>
</mask>
<g mask="url(#mask1_4078_7595)">
<path d="M50.9794 17.9701C48.1494 17.7901 45.4294 17.3801 43.3094 15.3101C40.4894 12.5501 40.8894 13.0501 40.6094 9.53009L35.3594 8.59009C35.3594 11.0201 36.3594 13.3901 38.0994 15.0901C40.2194 17.1601 42.9394 17.5701 45.7694 17.7501C47.9494 17.8901 50.1194 18.0301 52.2994 18.1701C52.9894 18.2101 53.6894 18.2601 54.3794 18.3001C54.3094 18.2601 54.2494 18.2201 54.1794 18.1801C53.1094 18.1101 52.0494 18.0401 50.9794 17.9801V17.9701Z" fill="#8DC63F"/>
<path d="M45.7604 17.74C42.9304 17.56 40.2104 17.15 38.0904 15.08C36.5104 13.54 35.5504 11.45 35.3904 9.26003L30.6504 8.41003C30.6504 10.84 31.6504 13.21 33.3904 14.91C35.5104 16.98 38.2304 17.39 41.0604 17.57C43.2404 17.71 45.4104 17.85 47.5904 17.99C48.2804 18.03 48.9804 18.08 49.6704 18.12C49.5904 18.08 49.5104 18.03 49.4404 17.98C48.2104 17.9 46.9904 17.82 45.7604 17.75V17.74Z" fill="white"/>
<path d="M41.0595 17.5701C38.2295 17.3901 35.5095 16.9801 33.3895 14.9101C31.8195 13.3801 30.8595 11.3101 30.6895 9.13006L25.4395 8.19006C25.4395 10.6201 26.4395 12.9901 28.1795 14.6901C30.2995 16.7601 33.0195 17.1701 35.8595 17.3501C38.0395 17.4901 40.2095 17.6301 42.3895 17.7601C43.0795 17.8001 43.7795 17.8501 44.4695 17.8901C44.3995 17.8501 44.3395 17.8101 44.2695 17.7701C43.1995 17.7001 42.1395 17.6301 41.0695 17.5701H41.0595Z" fill="#8DC63F"/>
</g>
<path d="M25.0391 39.83V8.17004" stroke="#00579F" stroke-linecap="round" stroke-linejoin="round"/>
<path d="M10.6406 22.45V30.48L20.8906 30.82V21.98L10.6406 22.45Z" fill="#ACD9F5" stroke="#ACD9F5" stroke-linecap="round" stroke-linejoin="round"/>
<path d="M25.0393 8.18005C25.0393 10.6101 26.0393 12.9801 27.7793 14.6801C29.8993 16.7501 32.6193 17.1601 35.4493 17.3401C37.6293 17.4801 39.7993 17.6201 41.9793 17.7601C42.6693 17.8001 43.3693 17.8501 44.0593 17.8901C43.8193 17.7601 43.5793 17.6201 43.3493 17.4701C41.4193 16.1701 39.7193 13.4501 39.7193 10.9501L25.0293 8.18005H25.0393Z" stroke="#00579F" stroke-linecap="round" stroke-linejoin="round"/>
<path d="M15.8297 17.32C15.3097 17.38 14.7797 17.42 14.2497 17.46C12.0097 17.63 9.77969 17.8 7.53969 17.97C6.33969 18.06 5.13969 18.15 3.92969 18.25C5.92969 16.59 7.76969 13.92 7.76969 11.12L24.8997 8.27002C24.6197 9.16002 24.5297 10.14 24.3197 11.05C23.9797 12.54 23.2097 13.77 22.0897 14.83C20.3197 16.52 18.1197 17.06 15.8197 17.32H15.8297Z" stroke="#00579F" stroke-linecap="round" stroke-linejoin="round"/>
<path d="M45.8504 18.7399C45.5804 18.5999 45.3304 18.4499 45.0804 18.2799C42.9804 16.8599 41.1304 13.8999 41.1304 11.1799L24.6404 8.31995C22.1304 8.73995 6.33039 11.3699 6.33039 11.3699C6.33039 14.4299 4.33039 17.3299 2.15039 19.1399C3.34039 19.0499 4.53039 18.9599 5.72039 18.8699V37.4899L25.0404 39.3399L41.6004 36.0499V18.4699C42.2604 18.5099 42.9204 18.5499 43.5804 18.5999C44.3404 18.6499 45.0904 18.6999 45.8504 18.7399Z" stroke="#00579F" stroke-width="2.5" stroke-linecap="round" stroke-linejoin="round"/>
</svg>
