<svg width="72" height="63" viewBox="0 0 72 63" fill="none" xmlns="http://www.w3.org/2000/svg">
<path d="M31.3398 30.54C37.3459 30.54 42.2148 25.6711 42.2148 19.665C42.2148 13.6589 37.3459 8.79004 31.3398 8.79004C25.3337 8.79004 20.4648 13.6589 20.4648 19.665C20.4648 25.6711 25.3337 30.54 31.3398 30.54Z" fill="#ACD9F5" stroke="#ACD9F5" stroke-width="1.5" stroke-miterlimit="10"/>
<path d="M31.3398 5.01005V1.42505" stroke="#ACD9F5" stroke-width="1.5" stroke-miterlimit="10" stroke-linecap="round" stroke-linejoin="round"/>
<path d="M21.9057 8.42992L19.5957 5.66992" stroke="#ACD9F5" stroke-width="1.5" stroke-miterlimit="10" stroke-linecap="round" stroke-linejoin="round"/>
<path d="M16.8648 17.1001L13.3398 16.4851" stroke="#ACD9F5" stroke-width="1.5" stroke-miterlimit="10" stroke-linecap="round" stroke-linejoin="round"/>
<path d="M18.5894 26.9851L15.4844 28.7851" stroke="#ACD9F5" stroke-width="1.5" stroke-miterlimit="10" stroke-linecap="round" stroke-linejoin="round"/>
<path d="M26.2691 33.45L25.0391 36.825" stroke="#ACD9F5" stroke-width="1.5" stroke-miterlimit="10" stroke-linecap="round" stroke-linejoin="round"/>
<path d="M36.3047 33.4648L37.5347 36.8398" stroke="#ACD9F5" stroke-width="1.5" stroke-miterlimit="10" stroke-linecap="round" stroke-linejoin="round"/>
<path d="M44 27.0298L47.105 28.8298" stroke="#ACD9F5" stroke-width="1.5" stroke-miterlimit="10" stroke-linecap="round" stroke-linejoin="round"/>
<path d="M45.7559 17.1598L49.2959 16.5298" stroke="#ACD9F5" stroke-width="1.5" stroke-miterlimit="10" stroke-linecap="round" stroke-linejoin="round"/>
<path d="M40.7598 8.46009L43.0698 5.71509" stroke="#ACD9F5" stroke-width="1.5" stroke-miterlimit="10" stroke-linecap="round" stroke-linejoin="round"/>
<path d="M26.314 5.88013L25.084 2.50513" stroke="#ACD9F5" stroke-width="1.5" stroke-miterlimit="10" stroke-linecap="round" stroke-linejoin="round"/>
<path d="M18.6206 12.3298L15.5156 10.5298" stroke="#ACD9F5" stroke-width="1.5" stroke-miterlimit="10" stroke-linecap="round" stroke-linejoin="round"/>
<path d="M16.8642 22.2002L13.3242 22.8302" stroke="#ACD9F5" stroke-width="1.5" stroke-miterlimit="10" stroke-linecap="round" stroke-linejoin="round"/>
<path d="M21.8588 30.9001L19.5488 33.6451" stroke="#ACD9F5" stroke-width="1.5" stroke-miterlimit="10" stroke-linecap="round" stroke-linejoin="round"/>
<path d="M31.2793 34.3499V37.9349" stroke="#ACD9F5" stroke-width="1.5" stroke-miterlimit="10" stroke-linecap="round" stroke-linejoin="round"/>
<path d="M40.7148 30.9299L43.0248 33.6899" stroke="#ACD9F5" stroke-width="1.5" stroke-miterlimit="10" stroke-linecap="round" stroke-linejoin="round"/>
<path d="M45.7539 22.2449L49.2939 22.8749" stroke="#ACD9F5" stroke-width="1.5" stroke-miterlimit="10" stroke-linecap="round" stroke-linejoin="round"/>
<path d="M44.0293 12.375L47.1343 10.575" stroke="#ACD9F5" stroke-width="1.5" stroke-miterlimit="10" stroke-linecap="round" stroke-linejoin="round"/>
<path d="M36.3496 5.90991L37.5796 2.53491" stroke="#ACD9F5" stroke-width="1.5" stroke-miterlimit="10" stroke-linecap="round" stroke-linejoin="round"/>
<path d="M57.125 50.9401C57.275 54.6751 59.585 57.3751 62.27 56.9701C64.955 56.5651 67.01 53.1901 66.845 49.4551L57.125 50.9401Z" fill="#00539F" stroke="#00539F" stroke-width="2.36415" stroke-miterlimit="10" stroke-linecap="round" stroke-linejoin="round"/>
<path d="M16.0703 54.7348L34.4903 55.7398L48.0653 52.1398C48.0653 52.1398 48.5453 48.0898 45.7403 46.9348C42.9353 45.7798 35.5403 48.6448 35.5403 48.6448L18.0953 47.5198L16.0703 54.7348Z" fill="#00539F"/>
<path d="M35.7794 20.655L10.9844 25.725L12.1544 45.585L13.0244 48.315L35.2544 48.66" fill="white"/>
<path d="M35.7794 20.655L10.9844 25.725L12.1544 45.585L13.0244 48.315L35.2544 48.66" stroke="white" stroke-width="2.2632" stroke-miterlimit="10" stroke-linecap="round" stroke-linejoin="round"/>
<path d="M51.1097 23.73L51.1397 19.275L35.5847 17.865L35.5547 48.645L50.7047 43.785" fill="#00539F"/>
<path d="M51.1097 23.73L51.1397 19.275L35.5847 17.865L35.5547 48.645L50.7047 43.785" stroke="#00539F" stroke-width="2.2632" stroke-miterlimit="10" stroke-linecap="round" stroke-linejoin="round"/>
<path d="M51.545 52.3648C51.635 48.1948 49.835 46.6948 46.685 46.3498C43.805 46.0348 40.52 46.7698 40.52 46.7698C40.52 46.7698 40.49 36.3148 40.925 30.6748C41.36 25.0348 44.075 24.5098 44.075 24.5098C44.075 24.5098 53.54 22.9648 57.905 23.0698C62.06 23.1598 63.005 24.9448 64.31 26.8048C65.375 28.3348 66.5 37.2448 66.5 37.2448C66.5 37.2448 66.395 44.8798 66.32 48.2998" fill="white"/>
<path d="M20.6757 53.97C20.7507 51.45 19.6557 49.47 18.2307 49.545C18.0057 49.56 17.6907 49.605 17.4357 49.695L16.2207 50.175L16.3407 51.045C15.8607 51.885 15.5607 53.01 15.5157 54.255C15.4707 55.665 15.8157 56.895 16.3557 57.705L16.6557 58.95H16.8657L18.2607 58.74C19.4907 58.29 20.6007 56.235 20.6757 53.97Z" fill="#00539F" stroke="#00539F" stroke-width="2.39865" stroke-miterlimit="10" stroke-linecap="round" stroke-linejoin="round"/>
<path d="M19.2415 54.5357C19.4093 52.0146 18.3927 49.8941 16.9709 49.7995C15.5492 49.7049 14.2606 51.672 14.0928 54.1931C13.9251 56.7143 14.9416 58.8348 16.3634 58.9294C17.7851 59.024 19.0737 57.0569 19.2415 54.5357Z" fill="white" stroke="#00539F" stroke-width="2.39865" stroke-miterlimit="10" stroke-linecap="round" stroke-linejoin="round"/>
<path d="M56.3145 49.1399L59.8245 48.78L70.8195 45.825V49.815L60.5745 53.985L56.3145 53.805V49.1399Z" fill="#00539F" stroke="#00539F" stroke-width="1.40895" stroke-miterlimit="10" stroke-linecap="round" stroke-linejoin="round"/>
<path d="M48.5146 27.3747C43.9846 28.2597 44.0146 28.4547 44.0596 29.0097L43.8496 35.6247C43.8496 35.8197 43.9246 36.0147 44.0596 36.1647C44.2096 36.2997 44.3896 36.3747 44.5996 36.3597L48.0346 36.0897L51.9046 39.2997C52.0396 39.4047 52.1896 39.4647 52.3546 39.4647C52.4596 39.4647 52.5496 39.4497 52.6546 39.4047C52.8946 39.2847 53.0596 39.0447 53.0596 38.7747C53.0746 37.8897 53.1646 30.1197 50.5846 27.9297C49.9996 27.4197 49.2796 27.2247 48.5146 27.3747Z" fill="#ACD9F5"/>
<path d="M65.7504 26.9549C65.6904 26.8349 65.6004 26.7299 65.4804 26.6549C62.7354 24.9299 57.8604 25.1549 55.9254 25.5299C55.2804 25.6649 54.8304 25.9349 54.6054 26.3699C54.3954 26.7599 54.4554 27.1799 54.5304 27.3449C54.5454 27.3899 55.7454 31.4549 55.8954 36.1049C55.9104 36.3449 56.0304 36.5549 56.2254 36.6749L59.4204 38.6849C59.5254 38.7599 59.6604 38.7899 59.7954 38.7899C59.8554 38.7899 59.9004 38.7899 59.9604 38.7749L67.1754 37.4099C67.5204 37.3199 67.7454 36.6299 67.7154 36.2699C66.8904 29.4599 65.7954 27.0599 65.7504 26.9549Z" fill="#ACD9F5"/>
<path d="M9.65008 48.255L35.3451 49.065H36.9501L38.9301 48.69C40.9401 47.91 42.5601 47.265 45.1251 47.475C48.0351 47.715 48.2001 47.625 49.7301 52.275L60.6051 51.495L60.8451 51.48L61.4001 51.195C62.3301 50.79 68.1201 48.57 68.4051 48.27C68.4801 44.49 68.4651 36.78 68.4651 36.78C68.4651 36.78 67.2201 26.91 66.0351 25.215C64.5801 23.145 63.9201 21.99 59.1951 21.33C57.2451 21.06 54.9801 21.21 51.7851 21.57L52.4901 21.21L52.5201 17.685L36.5901 16.095L36.5451 18.435L9.45508 22.935" stroke="#00539F" stroke-width="3.75" stroke-miterlimit="10" stroke-linecap="round" stroke-linejoin="round"/>
<path d="M42.1247 59.8199L43.7297 58.7849C42.6797 57.6749 41.9747 55.9499 41.9447 53.9249C41.9147 52.1699 42.3797 50.5349 43.1597 49.2899L42.8747 48.0449L43.7447 47.6849C44.1947 47.5499 44.7497 47.4599 45.1697 47.4149C47.7347 47.2049 49.8797 49.9499 49.9547 53.5499C50.0147 56.7899 48.0497 60.0749 45.8597 60.7649L43.6997 61.0049" fill="#00539F"/>
<path d="M42.1247 59.8199L43.7297 58.7849C42.6797 57.6749 41.9747 55.9499 41.9447 53.9249C41.9147 52.1699 42.3797 50.5349 43.1597 49.2899L42.8747 48.0449L43.7447 47.6849C44.1947 47.5499 44.7497 47.4599 45.1697 47.4149C47.7347 47.2049 49.8797 49.9499 49.9547 53.5499C50.0147 56.7899 48.0497 60.0749 45.8597 60.7649L43.6997 61.0049" stroke="#00539F" stroke-width="2.3442" stroke-miterlimit="10" stroke-linecap="round" stroke-linejoin="round"/>
<path d="M48.0989 54.3734C48.2482 50.6071 46.3762 47.4749 43.9178 47.3774C41.4593 47.28 39.3453 50.2542 39.1961 54.0205C39.0468 57.7869 40.9188 60.9191 43.3772 61.0165C45.8357 61.1139 47.9497 58.1397 48.0989 54.3734Z" fill="white" stroke="#00539F" stroke-width="2.39865" stroke-miterlimit="10" stroke-linecap="round" stroke-linejoin="round"/>
<path d="M45.4758 54.2693C45.5374 52.7131 44.7688 51.4191 43.7589 51.3791C42.749 51.3391 41.8804 52.5682 41.8187 54.1244C41.757 55.6806 42.5257 56.9746 43.5356 57.0146C44.5454 57.0546 45.4141 55.8255 45.4758 54.2693Z" fill="#ACD9F5"/>
<mask id="mask0_128_25945" style="mask-type:luminance" maskUnits="userSpaceOnUse" x="43" y="25" width="25" height="15">
<path d="M48.5009 27.3749C43.9709 28.2599 44.0009 28.4549 44.0459 29.0099L43.8359 35.6249C43.8359 35.8199 43.9109 36.0149 44.0459 36.1649C44.1959 36.2999 44.3759 36.3749 44.5859 36.3599L48.0209 36.0899L51.8909 39.2999C52.0259 39.4049 52.1759 39.4649 52.3409 39.4649C52.4459 39.4649 52.5359 39.4499 52.6409 39.4049C52.8809 39.2849 53.0459 39.0449 53.0459 38.7749C53.0609 37.8899 53.1509 30.1199 50.5709 27.9299C49.9709 27.4199 49.2659 27.2249 48.5009 27.3749ZM65.7209 26.9549C65.6609 26.8349 65.5709 26.7299 65.4509 26.6549C62.7059 24.9299 57.8309 25.1549 55.8959 25.5299C55.2509 25.6649 54.8009 25.9349 54.5759 26.3699C54.3659 26.7599 54.4259 27.1799 54.5009 27.3449C54.5159 27.3899 55.7159 31.4549 55.8659 36.1049C55.8809 36.3449 56.0009 36.5549 56.1959 36.6749L59.3909 38.6849C59.4959 38.7599 59.6309 38.7899 59.7659 38.7899C59.8259 38.7899 59.8709 38.7899 59.9309 38.7749L67.2209 37.4099C67.5659 37.3199 67.7159 36.6299 67.6709 36.2699C66.8759 29.4599 65.7809 27.0599 65.7209 26.9549Z" fill="white"/>
</mask>
<g mask="url(#mask0_128_25945)">
<path fill-rule="evenodd" clip-rule="evenodd" d="M53.7056 40.3347C53.8256 40.7997 54.1856 40.9947 54.4406 41.3097C54.7706 41.7297 55.1006 42.1347 55.4906 42.4797C55.5506 42.5247 55.5956 42.6147 55.6406 42.6597C55.8206 42.7947 55.9856 42.9597 56.1656 43.0797C56.2556 43.1397 56.4206 43.1697 56.4806 43.2447C56.5256 43.2897 56.4956 43.3647 56.5406 43.3947C56.6006 43.4097 56.6756 43.4097 56.7356 43.4247C56.8106 43.4697 56.8706 43.5597 56.9456 43.6047C57.1106 43.7097 57.3356 43.7547 57.5306 43.7847C57.6806 43.8147 58.1006 43.7547 58.1606 43.8597C58.0256 44.0397 58.0256 44.2797 57.9506 44.5347C57.8156 45.0147 57.7406 45.4647 57.7856 46.1397C57.8006 46.2747 57.8006 46.4097 57.8156 46.5597C57.8456 46.7397 57.8906 46.9047 57.9206 47.0847C57.9206 47.2047 57.9206 47.3247 57.9206 47.4447C57.9806 47.6847 58.0406 48.4797 58.0106 48.7197C57.9806 48.9747 58.0106 49.2747 57.9806 49.5297C57.9356 49.7847 58.0556 50.0997 58.0106 50.3247C58.0256 50.5497 58.0406 50.7897 58.0556 51.0147C58.0406 51.1347 58.0706 51.2847 58.0406 51.4347C58.0106 51.5847 57.9806 51.7497 57.9956 51.9297C58.0256 52.2747 58.2506 52.7247 58.1756 53.1447C58.1456 53.3697 58.0706 53.5797 58.0256 53.8047C57.9056 54.3297 57.9056 54.8997 57.8006 55.4097C57.7856 55.6497 57.7856 55.8747 57.7706 56.1147C57.6806 56.5647 57.5756 57.2247 57.7406 57.7947C57.7556 57.9147 57.7706 58.0347 57.7856 58.1547C57.8306 58.2747 57.9356 58.3797 57.9806 58.4547C58.0706 58.6497 57.8606 59.1147 57.8306 59.2647C57.7406 59.7147 58.1006 60.1497 58.1906 60.4047C58.2056 60.4347 58.2356 60.8397 58.2356 60.8547C58.2206 60.8997 58.1756 60.9297 58.1906 60.9897C58.2506 61.2447 58.2506 61.5897 58.3256 61.8447C58.3256 61.9497 58.3256 62.0547 58.3256 62.1597C58.3556 62.2197 58.3856 62.2047 58.4306 62.2797C58.7606 62.4447 59.6006 62.3847 59.9756 62.2197C60.1256 62.1447 60.2906 62.1747 60.3956 62.0697C60.4106 62.0397 60.4106 62.0097 60.4106 61.9497C60.3056 61.8147 60.3506 61.4547 60.2906 61.2747C60.2606 61.1847 60.2006 61.0497 60.1856 60.9597C60.1406 60.8247 60.1406 60.5547 60.0656 60.4047C60.1856 60.1347 60.3656 59.9097 60.4256 59.5797C60.4556 59.3847 60.3356 59.2347 60.3506 59.0697C60.3656 58.9947 60.3956 58.8447 60.3656 58.7547C60.2906 58.4697 60.2156 58.2147 60.1406 57.9747C60.0506 57.6897 60.1706 57.3747 60.2306 57.1797C60.3056 56.8947 60.3206 56.6097 60.4106 56.3247C60.4856 56.0697 60.5756 55.7847 60.6356 55.5297C60.6356 54.7797 60.6356 54.0447 60.6356 53.2947C60.7106 52.8597 60.8456 52.6347 60.9356 52.2597C60.9356 52.1847 60.9356 52.0947 60.9356 52.0197C60.9806 51.7647 60.9656 51.5097 61.0106 51.2397C61.1006 50.8497 61.1756 50.4597 61.2656 50.0697C61.2656 49.9947 61.2656 49.9347 61.2656 49.8597C61.3406 49.4697 61.3856 49.0497 61.4906 48.6897H61.5056C61.5056 48.7347 61.5056 48.7647 61.5056 48.8097C61.6106 48.9747 61.5806 49.2447 61.6406 49.4397C61.7006 49.6647 61.7456 49.9197 61.8356 50.1447C61.8806 50.2647 61.9706 50.4147 62.0006 50.5347C62.0156 50.5797 61.9856 50.7747 61.9856 50.8197C62.0006 51.1047 62.0156 51.3897 62.0306 51.6897C62.1656 52.1697 62.4056 52.5447 62.5556 53.0547C62.6306 53.3097 62.5556 53.5947 62.5256 53.7897C62.4806 54.0597 62.5706 54.5847 62.6456 54.7947C62.6756 54.8697 62.7356 54.9747 62.7656 55.0497C62.8856 55.3497 62.9156 55.6347 63.0356 55.9197C63.1106 56.0847 63.2306 56.1297 63.2606 56.3547C63.1856 56.4447 63.0956 56.6847 63.0806 56.8197C63.0656 56.9397 63.1406 57.0747 63.1706 57.1497C63.2906 57.4647 63.3656 57.7647 63.5306 58.0347C63.5906 58.1247 63.6956 58.2597 63.7256 58.3647C63.7406 58.4247 63.6956 58.5897 63.7256 58.6797C63.8156 59.0097 63.8456 59.3997 63.8606 59.7297C63.9056 59.7597 63.9206 59.8047 63.9506 59.8347C63.9956 59.8647 64.0406 59.8197 64.1006 59.8497C64.1306 59.8647 64.1606 59.9247 64.2206 59.9397C64.3106 59.9547 64.3556 59.8497 64.4306 59.8497C64.5356 59.8497 64.4756 59.9697 64.6406 59.9697C64.7456 60.0297 64.8506 59.8797 64.9106 59.9097C64.9406 59.9547 64.9256 59.9547 64.9856 59.9847C65.1806 60.0897 65.3156 59.7897 65.5406 59.8347C65.7206 59.8647 65.8556 60.0147 66.0056 60.0897C66.0056 60.1497 66.0206 60.1947 66.0356 60.2397C66.1106 60.2697 66.1556 60.2697 66.2456 60.2397C66.2456 60.2997 66.2156 60.2997 66.2756 60.3297C66.3506 60.3897 66.4106 60.3297 66.4856 60.2997C66.4856 60.3147 66.4856 60.3297 66.4856 60.3447C66.4706 60.3897 66.4706 60.3747 66.4856 60.4197C66.6056 60.4197 66.6806 60.3897 66.7856 60.3597C66.7856 60.3747 66.7856 60.4047 66.7856 60.4197H66.7706L66.7856 60.4347C66.8906 60.5097 67.0256 60.3897 67.1306 60.3597C67.2056 60.4497 67.4456 60.3447 67.5356 60.3147C67.8506 60.2247 68.2106 60.0447 68.3456 59.7897C68.2856 59.7297 68.2856 59.6397 68.2406 59.5647C68.1656 59.4447 67.9556 59.1447 67.8506 59.0847C67.7156 59.0097 67.4906 59.0547 67.3256 59.0097C67.2206 58.9797 66.6356 58.6797 66.5756 58.6047C66.5456 58.5597 66.5606 58.4997 66.5306 58.4397C66.4856 58.3497 66.3656 58.2597 66.3206 58.1697C66.2756 58.0947 66.2756 57.9897 66.2306 57.9147C66.2006 57.8847 66.1856 57.8697 66.1556 57.8397C66.1106 57.4497 66.0506 57.0297 65.9156 56.6847C65.7956 56.3847 65.6456 56.0847 65.4806 55.8447C65.4206 55.7547 65.2856 55.6647 65.2406 55.5747C65.2256 55.4247 65.2256 55.2597 65.2106 55.1097C65.2406 55.0647 65.2256 54.8697 65.2106 54.7947C65.1506 54.5697 65.1056 54.3897 65.0306 54.1497C64.9106 53.7747 64.9406 53.5497 65.0006 53.1447C65.0456 52.8147 64.9106 52.3347 64.8506 52.1247C64.8506 52.0497 64.8356 51.9747 64.8356 51.8997C64.7756 51.6747 64.5356 51.1947 64.5806 50.9247C64.6256 50.7447 64.6706 50.5647 64.7306 50.3847C64.7906 50.0847 64.7756 49.7697 64.8206 49.4697C64.8206 49.2597 64.8056 49.0497 64.8056 48.8547C64.8506 48.5097 64.8806 48.0147 64.7756 47.6547C64.7006 47.3997 64.8656 47.2047 64.7756 46.9197C64.7156 46.7247 64.6706 46.4847 64.6106 46.3047C64.5956 46.2297 64.6106 46.1097 64.6106 46.0647C64.6256 45.9447 64.5806 45.8097 64.5506 45.7347C64.5206 45.5997 64.5806 45.4347 64.5956 45.3297C64.6256 45.1647 64.6106 44.6397 64.5506 44.4597C64.4456 44.1147 64.2506 43.8747 64.1156 43.5897C64.0406 43.4547 64.0406 43.3347 63.9356 43.2447C63.9656 43.0797 63.9656 42.8547 63.9506 42.6147C64.0856 42.5547 64.3556 42.2697 64.4456 42.1497C64.6406 42.2847 65.2406 42.1047 65.4356 42.0447C65.6456 41.9847 65.8556 42.1347 66.0056 41.9997C66.1256 41.8947 66.1406 41.7297 66.1856 41.5497C66.2006 41.4747 66.2606 41.3847 66.2756 41.3097C66.3056 41.1597 66.1856 40.7697 66.1406 40.6647C66.1256 40.5597 66.1106 40.4697 66.0806 40.3647C66.0956 40.3347 66.1556 40.3497 66.1256 40.2597C66.0956 40.1097 66.0056 39.9747 65.9606 39.8547C65.8856 39.6897 65.8856 39.5247 65.8256 39.3597C65.4506 38.3847 65.1056 37.2447 64.6106 36.3897C64.4756 36.1497 64.3856 35.7597 64.1606 35.6097C63.6656 35.2797 63.0356 35.1147 62.5106 34.8147C62.4056 34.7547 62.0456 34.6497 61.9856 34.5747C61.9256 34.5147 61.9256 34.3947 61.8806 34.3197C61.8056 34.2147 61.7756 34.1097 61.7156 33.9597C61.6856 33.8847 61.5806 33.8097 61.5506 33.7497C61.4906 33.6147 61.5806 33.0147 61.6106 32.9097C61.6406 32.7897 61.6106 32.5797 61.6856 32.5047C61.7306 32.5347 61.7756 32.5047 61.8356 32.4897C61.9406 32.2497 62.0006 31.7697 61.9106 31.4247C61.8806 31.4097 61.8506 31.4097 61.8056 31.4097C61.8356 30.8397 61.7306 30.0147 61.4756 29.6697C61.3556 29.5047 61.0856 29.4597 60.8756 29.3847C60.6956 29.3247 60.4706 29.2497 60.2456 29.2197C59.8856 29.1747 59.4956 29.5647 59.3156 29.7147C59.2256 29.7897 59.1056 29.8497 59.0456 29.9547C58.8656 30.2547 58.9406 31.1097 58.9706 31.6047H58.9556C58.8956 31.5597 58.8506 31.6047 58.8356 31.6647C58.6856 31.8897 58.9256 32.5947 59.0906 32.6397C59.1506 32.6697 59.2106 32.6397 59.2556 32.6097C59.3156 32.9697 59.4656 33.2547 59.5106 33.6897C59.4356 33.6897 59.4056 33.7047 59.3756 33.7347C59.2706 33.8547 59.1356 34.0197 59.0606 34.1547C59.0156 34.2147 59.0006 34.3647 58.9556 34.4097C58.9106 34.4547 58.8206 34.4247 58.7606 34.4547C58.7156 34.4847 58.6556 34.5447 58.6106 34.5747C58.4756 34.6497 58.3556 34.6497 58.2206 34.7097C57.8606 34.8747 57.4706 35.1147 57.1406 35.2947C57.0356 35.3547 56.7956 35.3697 56.7506 35.4147C56.7356 35.4297 56.6156 35.5947 56.6006 35.6097C56.5556 35.6997 56.5556 35.8197 56.4956 35.8797C56.0906 36.2547 55.7456 36.7347 55.4456 37.1997C55.2806 37.4547 54.9806 37.7247 54.7556 37.9347C54.5306 38.1447 54.3506 38.4747 54.1406 38.7147C54.1556 38.7897 54.1856 38.8347 54.1706 38.8647C54.0956 39.0297 53.9756 39.1797 53.9006 39.3447C53.7956 39.5397 53.7806 39.7497 53.7206 40.0047C53.7206 40.0497 53.6756 40.2297 53.7056 40.3347ZM64.0856 39.8097C64.1606 39.8847 64.2356 39.9597 64.3106 40.0347C64.3556 40.1397 64.4006 40.2597 64.4456 40.3647C64.3556 40.3797 64.3556 40.4097 64.2656 40.4397L64.2506 40.4247C64.2206 40.2597 64.0406 39.9147 64.0856 39.8097ZM56.6006 41.7897C56.6156 41.7897 56.6306 41.7897 56.6306 41.7897C56.6756 41.8347 56.7056 41.8347 56.7206 41.8947H56.7056V41.8797C56.6756 41.8497 56.6306 41.8197 56.6006 41.7897ZM55.4156 40.0497C55.4306 40.0347 55.4156 40.0497 55.4306 40.0047C55.7156 39.9747 55.7756 39.6747 55.9406 39.5397C56.1806 39.3297 56.4806 39.2097 56.7506 39.0147C56.8106 38.9697 56.8856 38.8797 56.9606 38.8497C57.1106 38.8347 57.2606 38.8347 57.4106 38.8197C57.4556 38.8497 57.4856 38.8947 57.5306 38.9247C57.5606 39.5097 57.8006 40.0047 57.9506 40.4547C58.0556 40.7697 57.9806 41.1147 58.0856 41.4297C58.1606 41.6547 58.2956 41.7597 58.3406 42.0147C58.2806 42.0897 58.2806 42.2397 58.1906 42.3147C58.1456 42.3447 57.7106 42.5547 57.6656 42.5397C57.6356 42.5397 57.6056 42.4947 57.5756 42.4947C57.5306 42.4947 57.5306 42.5397 57.5006 42.5397C57.4706 42.5097 57.4556 42.4947 57.4256 42.4647C57.4106 42.4647 57.3956 42.5097 57.3506 42.4947C57.3056 42.4797 57.2006 42.3147 57.1706 42.2847C57.1406 42.2697 57.0956 42.2697 57.0656 42.2547C57.0356 42.2247 57.0356 42.1797 57.0056 42.1497C56.9606 42.0897 56.8706 42.0597 56.8106 42.0147C56.7806 41.9847 56.7806 41.9247 56.7506 41.8797C56.7056 41.8197 56.6156 41.8047 56.5406 41.7597C56.4356 41.6997 56.3756 41.6097 56.3006 41.5047H56.3156C56.3456 41.5347 56.3306 41.5197 56.3756 41.5347V41.5197C56.3456 41.5047 56.3156 41.4897 56.2856 41.4597C56.2406 41.4297 56.2256 41.3847 56.1806 41.3247L56.1956 41.3397C56.2106 41.3697 56.2106 41.2947 56.2106 41.2947C56.0606 41.2197 56.0606 41.0397 55.9706 40.8897C55.8506 40.6647 55.4906 40.2897 55.4156 40.0497ZM56.3006 41.4297C56.3156 41.4297 56.3156 41.4447 56.3156 41.4147C56.3006 41.4147 56.2856 41.4147 56.2856 41.4147C56.2856 41.4297 56.3006 41.4297 56.3006 41.4297Z" fill="#00539F"/>
<path fill-rule="evenodd" clip-rule="evenodd" d="M45.3066 35.8196C45.3066 35.8196 45.2166 35.8796 45.1116 35.9546C45.0516 35.9996 44.9916 36.0596 44.9466 36.0896C44.8266 36.1796 44.6616 36.2546 44.6166 36.2696C44.5716 36.2846 44.5266 36.3446 44.5116 36.3746C44.4966 36.4046 44.4516 36.4496 44.4516 36.4796C44.4366 36.5246 44.4066 36.5696 44.4216 36.7046C44.3166 36.8846 44.2716 37.0646 44.2716 37.1096C44.2566 37.1546 44.2566 37.3196 44.2266 37.4246C44.2116 37.5296 44.1816 37.6946 44.1816 37.7846C44.1666 37.8746 44.1516 38.0096 44.1516 38.0096C44.1516 38.0096 44.0766 38.2496 44.0316 38.6096C43.9716 38.9696 44.0166 39.2246 44.0166 39.2246C44.0166 39.2246 43.9116 39.4946 43.8816 39.6296C43.8516 39.7646 43.8516 39.7946 43.8516 39.8396C43.8516 39.8696 43.8066 39.9446 43.7766 40.0346C43.7616 40.0946 43.7466 40.1696 43.7166 40.2146C43.6716 40.3496 43.7016 40.4096 43.7166 40.4396C43.7166 40.4696 43.7166 40.4696 43.7016 40.4846C43.6866 40.4996 43.6416 40.5896 43.6416 40.6646C43.5966 40.6796 43.5516 40.6946 43.5066 40.7246C43.4766 40.7696 43.4916 40.8146 43.5666 40.8446C43.5516 40.8896 43.5366 40.9646 43.5216 41.0246C43.5216 41.0696 43.4916 41.2496 43.4916 41.2796C43.4916 41.3096 43.5066 41.3246 43.5066 41.3246C43.5066 41.3246 43.4916 41.3996 43.5066 41.5196C43.5216 41.6396 43.5816 41.7596 43.6116 41.8196C43.6416 41.8796 43.7316 42.1196 43.7466 42.1796C43.7616 42.2396 43.7616 42.3296 43.7916 42.4046C43.8216 42.4796 43.9866 42.6146 44.0166 42.6446C44.0316 42.6746 44.0916 42.7346 44.1066 42.7646C44.1216 42.7946 44.1966 42.8996 44.3166 42.9596C44.4216 43.0196 44.5566 43.0046 44.6616 42.9446C44.7816 42.8846 44.8416 42.7796 44.8716 42.7496C44.9016 42.7196 44.9316 42.6746 45.0216 42.6296C45.1116 42.5846 45.2766 42.4046 45.2766 42.4046V42.9446C45.2766 42.9446 45.2616 45.9596 45.2766 46.0196C45.2766 46.0796 45.2616 49.5596 45.2616 49.6946C45.2616 49.7696 45.2466 52.4696 45.2466 52.6196C45.2466 52.7696 45.2316 55.7996 45.2166 55.9196C45.2166 56.0396 45.1866 58.2446 45.1866 58.5296C45.1866 58.8146 45.1416 60.8396 45.1416 60.8396C45.1416 60.8396 45.0516 60.8396 45.0366 60.8396C45.0216 60.8396 44.9766 60.8396 44.9466 60.8246C44.9166 60.8246 44.8416 60.8096 44.8116 60.8096C44.8116 60.8096 44.8116 60.8096 44.7066 60.7946C44.5416 60.7646 44.3466 60.8696 44.2716 60.9746C44.1966 61.0796 43.6716 61.7246 43.6266 61.7996C43.5666 61.8746 43.0416 62.5496 42.8916 62.7446C42.7416 62.9396 42.5316 63.1796 42.5316 63.1796C42.5316 63.1796 41.4366 62.9996 41.3316 62.9846C41.2266 62.9696 41.1516 62.9546 41.0016 62.9996C40.8666 63.0446 40.7466 63.1496 40.6566 63.2696C40.5666 63.3896 40.4766 63.5096 40.4766 63.6596C40.4766 63.8096 40.5366 63.8846 40.6266 63.9896C40.7016 64.0946 40.7466 64.1246 40.7466 64.1246C40.7466 64.1246 40.7316 64.2296 40.7316 64.2896C40.7316 64.3496 40.7016 64.3646 40.7016 64.3946C40.7016 64.4246 40.7616 64.4546 40.8066 64.4546C40.8516 64.4546 40.9566 64.4846 40.9716 64.4846C41.0016 64.4846 41.2566 64.5146 41.3616 64.5296C41.4666 64.5446 41.4666 64.5296 41.5416 64.5446C41.6166 64.5596 41.6016 64.6046 41.6166 64.6046C41.6316 64.6046 41.6616 64.5896 41.7066 64.5896C41.7366 64.5896 41.8416 64.5896 41.9016 64.5746C41.9016 64.5746 49.2066 65.8946 49.3266 65.9096C49.4466 65.9246 49.7316 65.9546 49.8066 65.9546C49.8816 65.9546 49.9566 65.9696 50.0766 66.0146C50.1966 66.0596 50.4366 66.0146 50.5116 66.0146C50.5866 66.0146 50.7066 66.0296 50.7366 66.0296C50.7666 66.0296 50.9466 66.0446 50.9766 66.0446C51.0066 66.0446 50.9616 66.0296 50.9616 66.0296C50.9616 66.0296 51.0066 66.0146 51.0216 65.9996C51.0366 65.9846 51.0666 65.9696 51.0966 65.9696C51.1266 65.9696 51.2466 65.9546 51.2766 65.9546C51.3066 65.9396 51.2616 65.9246 51.2616 65.9246C51.2616 65.9246 51.3066 65.9096 51.3366 65.9096C51.3516 65.9096 51.2916 65.8946 51.2766 65.8796C51.2616 65.8646 51.2616 65.8496 51.2766 65.8496C51.2916 65.8496 51.3666 65.8496 51.3666 65.8496L51.3366 65.7896C51.3366 65.7896 51.3666 65.7746 51.3666 65.7446C51.3666 65.7146 51.2766 65.6846 51.3216 65.6846C51.3666 65.6846 51.3366 65.6396 51.3216 65.6246C51.3066 65.5946 51.2316 65.5346 51.2316 65.5346C51.2316 65.5346 51.2616 65.5496 51.3066 65.5496C51.3516 65.5496 51.2616 65.5196 51.2616 65.5196C51.2766 65.5046 51.2616 65.4746 51.2466 65.4446C51.2316 65.4146 51.1116 65.3996 51.0816 65.3846C51.0516 65.3696 50.9616 65.3246 50.9466 65.3246C50.9316 65.3246 50.8566 65.2796 50.8266 65.2646C50.7966 65.2496 50.7216 65.2346 50.6766 65.2196C50.6466 65.2196 50.3766 65.0096 50.3766 65.0096C50.3766 65.0096 50.3766 64.9796 50.3466 64.9046C50.3166 64.8446 50.1966 64.6346 50.1216 64.5596C50.0466 64.4696 49.9266 64.4696 49.7466 64.4396C49.5666 64.4096 48.1866 64.1696 48.1866 64.1696C48.1866 64.1696 48.1266 64.0646 48.0516 63.9746C47.9766 63.8846 47.5416 63.1046 47.4366 62.9246C47.3316 62.7446 46.7016 61.6496 46.6566 61.5746C46.6116 61.4996 46.5216 61.3046 46.3716 61.1546C46.2216 61.0046 46.0416 60.9896 45.9366 60.9746C45.9366 60.9746 45.9216 60.9596 45.8916 60.9746C45.8916 60.9746 45.8316 60.9746 45.7866 60.9596C45.7266 60.9446 45.6366 60.8996 45.6366 60.8996C45.6366 60.8996 45.6966 57.5096 45.6966 57.3446C45.6966 57.1646 45.7266 53.3846 45.7416 53.1596C45.7566 52.9346 45.8166 47.9996 45.8166 47.8646C45.8166 47.8046 45.8166 45.8246 45.8166 45.4946C45.8166 45.1646 45.8166 42.5096 45.8166 42.4196C45.8166 42.3296 45.8166 40.8296 45.8166 40.6496C45.8316 40.6646 45.8916 40.6646 45.8916 40.6646L45.9516 40.9196C45.9516 40.9196 45.9366 41.3396 45.9516 41.5646C45.9666 41.7746 45.9516 41.9696 45.9666 42.1646C45.9816 42.3596 46.0416 42.6146 46.0416 42.6446C46.0416 42.6746 46.0566 42.7796 46.0566 42.8246C46.0566 42.8546 46.0266 42.9896 46.0416 43.0796C46.0566 43.1696 46.0716 43.2746 46.1316 43.2896C46.1766 43.3046 46.2666 43.3496 46.2966 43.3646C46.3266 43.3646 46.3566 43.3646 46.3866 43.3646C46.4166 43.3646 46.4916 43.3796 46.5066 43.3646C46.5216 43.3646 46.5516 43.3496 46.5666 43.3796C46.5516 43.4246 46.5366 43.4996 46.5516 43.6046C46.5666 43.7096 46.5666 43.9346 46.5666 44.0246C46.5666 44.1146 46.5816 44.1446 46.6116 44.1896C46.6116 44.1896 46.6266 44.2346 46.6416 44.2646C46.6416 44.2646 46.6116 44.3096 46.5966 44.3996C46.5816 44.4896 46.5066 44.7446 46.5066 44.7746C46.5066 44.8046 46.4766 44.8196 46.4466 44.9096C46.4016 44.9996 46.4166 45.0296 46.3566 45.2846C46.3116 45.5396 46.2816 45.5846 46.2816 45.8846C46.2666 46.1696 46.2816 46.4696 46.2966 46.5296C46.3116 46.5896 46.2966 46.6196 46.2966 46.6796C46.2966 46.7396 46.2966 46.8746 46.2966 47.0546C46.2966 47.2346 46.3266 47.3996 46.3716 47.5196C46.4166 47.6546 46.4466 47.8946 46.4466 47.9246C46.4466 47.9546 46.4316 47.9846 46.4466 48.1346C46.4466 48.2696 46.5216 48.3596 46.5366 48.3896C46.5366 48.4196 46.5366 48.4496 46.5516 48.5396C46.5666 48.6296 46.5516 48.6446 46.5366 48.8246C46.5216 49.0196 46.5216 49.1546 46.5366 49.2146C46.5516 49.2746 46.5216 49.2896 46.5216 49.3496C46.5216 49.4096 46.5366 49.5896 46.5516 49.7696C46.5666 49.9496 46.6116 50.1896 46.6416 50.3246C46.6716 50.4596 46.6866 50.7446 46.6866 50.8046C46.6866 50.8646 46.6716 50.9996 46.6866 51.1196C46.7016 51.2546 46.7166 51.5846 46.7166 51.6596C46.7166 51.7346 46.7316 51.8546 46.7466 52.0046C46.7616 52.1546 46.7616 52.2146 46.7766 52.4246C46.7916 52.6346 46.8066 52.7246 46.8216 52.9796C46.8516 53.2346 46.8666 53.2046 46.8816 53.2346C46.8966 53.2496 46.9116 53.3696 46.9416 53.5046C46.9716 53.6396 47.0316 53.6696 47.0466 53.7146C47.0616 53.7596 47.0916 53.9246 47.1066 54.0896C47.1216 54.2546 47.1516 54.5396 47.1366 54.6446C47.1216 54.7496 47.1366 54.9446 47.1516 55.1246C47.1666 55.3046 47.1966 55.4396 47.1966 55.4996C47.1966 55.5746 47.1966 55.9646 47.1966 56.0546C47.1966 56.1596 47.2266 56.5646 47.2266 56.6546C47.2266 56.7446 47.0766 57.0296 47.0766 57.1946C47.0616 57.3596 47.1216 57.4946 47.1816 57.7196C47.2416 57.9446 47.4066 58.5596 47.4066 58.6046C47.4066 58.6496 47.5416 59.1746 47.5866 59.3696C47.6316 59.5496 47.6466 59.6396 47.6316 59.6996C47.6316 59.7596 47.5566 60.1346 47.5716 60.2846C47.5866 60.4346 47.7516 60.6896 47.7666 60.7046C47.7816 60.7196 47.7816 60.7346 47.7966 60.7796C47.8116 60.8246 47.9016 61.0346 47.9166 61.0946C47.9316 61.1546 47.9316 61.1546 47.9616 61.1696C47.9616 61.2446 48.0516 61.6196 48.0516 61.6196C48.0516 61.6196 48.0216 61.6646 48.0066 61.7096C47.9916 61.7696 48.0066 61.7846 48.0366 61.7846C48.0366 61.7846 48.0366 61.8146 48.0366 61.8446C48.0366 61.8746 48.0366 61.8896 48.0966 61.9796C48.0966 61.9946 48.0966 62.0846 48.0966 62.0996C48.0966 62.1146 48.0816 62.1896 48.1116 62.2496C48.1116 62.3096 48.1116 62.4446 48.1866 62.5346C48.1716 62.5646 48.1866 62.6246 48.1866 62.6246C48.1866 62.6246 48.1716 62.6546 48.1566 62.7296C48.1416 62.8046 48.1416 62.8196 48.1716 62.8346C48.1716 62.8646 48.1566 62.8796 48.1716 62.9246C48.1866 62.9696 48.2166 62.9846 48.2766 62.9696C48.2766 62.9996 48.2616 62.9996 48.2916 63.0296C48.2916 63.0296 48.3516 63.0896 48.3666 63.0896C48.3816 63.0896 48.4566 63.0746 48.4866 63.0746C48.5166 63.0746 48.7266 63.0746 48.7566 63.0596C48.7866 63.0446 48.8616 63.0596 48.9066 63.0596C48.9066 63.0596 48.9366 63.0596 48.9516 63.0596C48.9666 63.0596 49.0566 63.0596 49.1016 63.0446C49.1016 63.0446 49.2066 63.0446 49.2516 63.0446C49.2666 63.0446 49.3266 63.0446 49.3566 63.0296C49.3866 63.0296 49.4316 63.0146 49.4316 63.0146C49.4316 63.0146 49.4916 63.0146 49.5216 62.9996C49.5516 62.9996 49.5666 62.9996 49.5816 62.9846C49.5966 62.9696 49.6116 62.9846 49.6566 62.9696C49.6566 62.9846 49.6716 62.9996 49.7016 62.9846C49.7316 62.9846 49.8066 62.9546 49.8516 62.9396C49.8966 62.9246 49.9116 62.9246 49.9266 62.8946C49.9266 62.8946 49.9566 62.9096 49.9866 62.8946C50.0166 62.8946 50.1216 62.8496 50.1816 62.8346C50.2416 62.8196 50.3166 62.7896 50.3466 62.7746C50.3766 62.7596 50.3766 62.7596 50.3616 62.7296C50.3616 62.6996 50.3316 62.6246 50.3016 62.5946C50.3016 62.5946 50.2866 62.2346 50.2416 62.1896C50.2416 62.1896 50.2116 62.0546 50.1816 61.9796C50.1516 61.8896 50.1066 61.7096 50.0766 61.6496C50.0766 61.6346 50.0766 61.5896 50.0466 61.5896C50.0466 61.5896 50.0166 61.5296 50.0166 61.5146C50.0016 61.4996 49.9716 61.3796 49.9416 61.3046C49.9416 61.2746 49.9266 61.2446 49.9116 61.1846C49.9266 61.1846 49.9416 61.1696 49.9416 61.1396C49.9416 61.1096 49.9716 61.0646 49.9866 60.9746C50.0166 60.8846 50.0316 60.8846 50.0766 60.7796C50.1216 60.6746 50.1216 60.6296 50.1366 60.3446C50.1516 60.0596 50.0916 59.7746 50.0766 59.5796C50.0466 59.3846 50.0316 59.2646 50.0016 59.1746C49.9716 59.0846 49.8666 58.8296 49.8366 58.7546C49.8066 58.6646 49.7766 58.6496 49.7916 58.4846C49.8066 58.3196 49.8666 58.0946 49.8966 57.8846C49.9266 57.6746 49.9266 57.5696 49.9266 57.4796C49.9266 57.3896 49.8516 57.2846 49.8516 57.2846C49.8516 57.2846 49.8516 57.0596 49.8216 56.8646C49.8066 56.7146 49.7766 56.5796 49.7766 56.5346C49.7616 56.4596 49.7316 56.2496 49.7316 56.1746C49.7166 56.0996 49.6866 55.7846 49.6716 55.7696C49.6716 55.7546 49.6716 55.5296 49.6716 55.4846C49.6716 55.4546 49.6716 55.3946 49.6716 55.2446C49.6716 55.1546 49.6866 54.9746 49.6866 54.8246C49.6866 54.7346 49.6866 54.6296 49.6866 54.6296C49.6866 54.6146 49.6866 54.2846 49.6866 54.1796C49.6866 54.0746 49.7016 53.9396 49.6866 53.7896C49.6716 53.6396 49.6266 53.4146 49.6266 53.3996C49.6116 53.3396 49.5816 53.1296 49.5816 53.0996C49.5816 53.0846 49.5966 53.0246 49.5966 52.9796C49.5966 52.9346 49.6716 52.7396 49.6716 52.7096C49.6716 52.6646 49.7316 52.3046 49.7316 52.2896C49.7316 52.2746 49.8066 51.9746 49.8216 51.9146C49.8366 51.8546 49.8666 51.6146 49.8966 51.5096C49.9116 51.4046 49.9566 51.1046 49.9566 51.0596C49.9566 51.0146 49.9866 50.7296 50.0016 50.7146C50.0166 50.6996 50.0316 50.3696 50.0466 50.3396C50.0616 50.2946 50.0916 50.1596 50.0916 50.0696C50.0916 49.9796 50.1216 49.7396 50.1366 49.7396C50.2116 49.8896 50.2416 50.1296 50.2566 50.2046C50.2716 50.2796 50.3316 50.6696 50.3766 50.8196C50.4216 50.9696 50.5116 51.2846 50.5416 51.3596C50.5566 51.3896 50.5716 51.4796 50.6016 51.6296C50.6466 51.7796 50.6766 51.8996 50.6766 51.8996C50.6766 51.8996 50.6616 51.9596 50.6466 52.0346C50.6466 52.1096 50.6316 52.2446 50.6616 52.3196C50.6766 52.3946 50.7366 52.6196 50.7516 52.7096C50.7666 52.7996 50.7966 52.9796 50.8116 53.1896C50.8266 53.3996 50.8566 53.6246 50.8716 53.7896C50.8866 53.9396 50.9016 54.0446 50.9466 54.2246C50.9916 54.4046 51.0366 54.5396 51.0816 54.6446C51.1266 54.7496 51.2616 54.9596 51.2616 54.9746C51.2616 54.9896 51.2766 55.0196 51.2916 55.1246C51.3066 55.2296 51.3366 55.4096 51.3366 55.4396C51.3366 55.4696 51.3216 55.5896 51.2916 55.7096C51.2616 55.8296 51.2016 55.9646 51.1716 56.0546C51.1416 56.1446 51.0966 56.2646 51.0816 56.3696C51.0666 56.4896 51.0816 56.5646 51.1266 56.7146C51.1716 56.8646 51.1866 57.1796 51.2316 57.3596C51.2616 57.5246 51.2766 57.7796 51.3066 57.9296C51.3366 58.0796 51.3516 58.1546 51.3966 58.2596C51.4416 58.3646 51.5016 58.4996 51.5766 58.6196C51.6516 58.7396 51.7866 59.0396 51.8316 59.0846C51.8766 59.1296 51.9216 59.2646 51.9216 59.2946C51.9216 59.3246 51.9066 59.3246 51.9066 59.4296C51.9066 59.5346 51.9366 59.6546 51.9516 59.6846C51.9666 59.7146 51.9966 59.8046 52.0116 59.8496C52.0266 59.8946 52.0416 59.9996 52.0866 60.0746C52.1316 60.1496 52.2066 60.2246 52.2066 60.2246C52.2066 60.2246 52.2066 60.2696 52.2066 60.3596C52.2066 60.4496 52.2216 60.4646 52.2216 60.4796C52.2216 60.4946 52.2366 60.5846 52.2366 60.5846C52.2366 60.5846 52.2216 60.6596 52.2066 60.6746C52.2066 60.6896 52.2066 60.7046 52.1916 60.7346C52.1766 60.7796 52.2066 60.8246 52.2216 60.8396C52.2366 60.8396 52.2666 60.8396 52.2666 60.8396C52.2666 60.8396 52.2516 60.8996 52.2816 60.8996C52.2966 60.9146 52.3566 60.9746 52.3866 60.9746C52.4166 60.9746 52.5066 60.9296 52.5066 60.9296H52.5216C52.5216 60.9296 52.5216 60.9596 52.5216 60.9896C52.5216 61.0046 52.5216 61.0346 52.5366 61.0496C52.5516 61.0646 52.7016 61.0946 52.7166 61.1096C52.7316 61.1096 52.7616 61.0946 52.8366 61.0646C52.8366 61.1096 52.8666 61.1546 52.8816 61.1546C52.8966 61.1546 53.0316 61.1996 53.0616 61.1846C53.0916 61.1846 53.1366 61.1546 53.1666 61.1396C53.1966 61.1246 53.1966 61.0946 53.2116 61.0946C53.2116 61.0946 53.2716 61.0796 53.2866 61.0796C53.3016 61.0796 53.3316 61.1396 53.3316 61.1396C53.3316 61.1396 53.3766 61.1696 53.3766 61.1846C53.3766 61.1996 53.4216 61.2596 53.4366 61.2746C53.4516 61.2896 53.4966 61.4096 53.4966 61.4096C53.4966 61.4096 53.4816 61.4696 53.4816 61.4996C53.4816 61.5296 53.4816 61.6046 53.5116 61.6196C53.5266 61.6346 53.5566 61.6196 53.5566 61.6196C53.5566 61.6196 53.5416 61.6646 53.5416 61.6946C53.5416 61.7246 53.5716 61.7546 53.5716 61.7546C53.5866 61.7546 53.6616 61.7396 53.6616 61.7546C53.6616 61.7696 53.6466 61.8146 53.6616 61.8296C53.6766 61.8446 53.6916 61.8746 53.7066 61.8746C53.7216 61.8746 53.8566 61.8596 53.8566 61.8596C53.8566 61.8596 53.8416 61.9196 53.8416 61.9346C53.8416 61.9496 53.8866 61.9646 53.9166 61.9646C53.9466 61.9646 54.0666 61.9346 54.0666 61.9346C54.0666 61.9346 54.0816 61.9646 54.0966 61.9646C54.1116 61.9646 54.1866 61.9646 54.2466 61.9496C54.2916 61.9346 54.7716 61.8746 54.8466 61.8746C54.9216 61.8596 55.0416 61.8146 55.0866 61.8146C55.1316 61.8146 55.2516 61.7696 55.2666 61.7546C55.2816 61.7396 55.2816 61.7246 55.2966 61.7246C55.3116 61.7246 55.3416 61.7246 55.3566 61.7246C55.3866 61.7246 55.6116 61.6196 55.6416 61.6046C55.6716 61.5896 55.6716 61.5746 55.7016 61.5596C55.7316 61.5446 55.7316 61.5446 55.7316 61.5146C55.7316 61.4846 55.7166 61.4396 55.6716 61.3646C55.6716 61.3646 55.6566 61.2446 55.6116 61.2146C55.6116 61.2146 55.5966 61.0796 55.5516 60.9296C55.5066 60.7796 55.4166 60.6896 55.3866 60.6446C55.3266 60.5696 55.2966 60.5696 55.2816 60.5546C55.2666 60.5396 55.2216 60.4646 55.1916 60.4646C55.1916 60.4496 55.1766 60.4046 55.1466 60.4046C55.1166 60.3596 55.0116 60.2996 54.9066 60.2096C54.8016 60.1196 54.7716 60.1046 54.7566 60.0746C54.7416 60.0446 54.5616 59.8646 54.5016 59.8196C54.5166 59.8046 54.5016 59.7596 54.4866 59.6996C54.4866 59.6396 54.4566 59.4596 54.4566 59.3996C54.4566 59.3546 54.4416 59.3096 54.4266 59.2646C54.4116 59.2196 54.4116 59.0846 54.4116 58.9946C54.4266 58.8896 54.4116 58.7546 54.3816 58.6946C54.3516 58.6346 54.3216 58.5296 54.3066 58.4696C54.2916 58.4096 54.1866 58.3346 54.1866 58.3346C54.1866 58.3346 54.0966 58.1846 54.0366 58.0496C53.9766 57.9146 53.7666 57.5996 53.6916 57.4796C53.7216 57.4046 53.7516 57.2996 53.7666 57.2396C53.7816 57.1946 53.8566 56.8496 53.9016 56.6246C53.9466 56.3996 54.0066 56.2646 54.0216 56.2196C54.0366 56.1746 54.1116 56.1596 54.1716 56.0096C54.2316 55.8596 54.2166 55.7996 54.2166 55.6196C54.2166 55.4396 54.2316 55.2146 54.2466 55.1096C54.2616 55.0046 54.2016 54.9146 54.1866 54.8546C54.1566 54.7946 54.1266 54.7046 54.1266 54.6896C54.1266 54.6596 54.1266 54.6596 54.1116 54.5846C54.0816 54.4496 54.0516 54.3896 54.0516 54.3746C54.0516 54.3596 54.0366 54.3446 54.0066 54.1496C53.9766 53.9546 53.8266 53.6246 53.8266 53.6246C53.8266 53.6096 53.8266 53.1146 53.8116 52.8296C53.7966 52.5446 53.7516 52.4546 53.7516 52.4246C53.7516 52.3946 53.7366 52.3796 53.7066 52.1096C53.6766 51.8396 53.6766 51.7196 53.6766 51.6896C53.6766 51.6596 53.6766 51.6146 53.6766 51.5996C53.6766 51.5846 53.6616 51.5696 53.6616 51.5246C53.6616 51.4796 53.6166 51.2246 53.6166 51.2246C53.6166 51.2246 53.6166 51.0596 53.6016 50.8796C53.5866 50.6996 53.5566 50.5046 53.5566 50.4746C53.5566 50.4296 53.6016 49.9346 53.6016 49.7396C53.6016 49.5446 53.6166 49.5296 53.6166 49.3496C53.6166 49.1696 53.6166 48.8846 53.6166 48.7796C53.6166 48.6746 53.6016 48.4796 53.6016 48.4346C53.5866 48.3896 53.5866 48.2096 53.5866 48.1496C53.5866 48.0896 53.5866 47.9546 53.5866 47.8646C53.5866 47.7896 53.5716 47.5946 53.5566 47.5496C53.5416 47.5046 53.5566 47.4146 53.5416 47.2196C53.5416 47.0246 53.4816 46.8296 53.4666 46.7996C53.4516 46.7696 53.4516 46.7246 53.4366 46.5896C53.4066 46.2896 53.3916 46.1996 53.3616 46.0946C53.3316 45.9896 53.3316 45.8996 53.3316 45.8996C53.3316 45.8996 53.3466 45.7946 53.3466 45.6746C53.3466 45.5996 53.3466 45.4946 53.3316 45.4496C53.3166 45.3296 53.3466 45.3746 53.2866 45.1346C53.2266 44.8946 53.1366 44.6996 53.1366 44.6996C53.1366 44.6996 53.1816 44.6396 53.1966 44.6396C53.2116 44.6246 53.2116 44.6396 53.2566 44.6246C53.3316 44.5946 53.3616 44.5496 53.3616 44.5046C53.3616 44.4596 53.3466 44.3996 53.4066 44.3696C53.4666 44.3246 53.4666 44.3696 53.4816 44.3546C53.5116 44.3396 53.4966 44.3096 53.5416 44.2946C53.5716 44.2796 53.5716 44.2796 53.5866 44.2796C53.6016 44.2796 53.6316 44.2796 53.6616 44.2646C53.6916 44.2496 53.6916 44.2646 53.7066 44.2646C53.7216 44.2646 53.7366 44.2646 53.7666 44.2796C53.7816 44.2796 53.8566 44.2946 53.9766 44.2646C54.0966 44.2346 54.2166 44.1446 54.2766 44.0696C54.3366 43.9946 54.4116 43.8446 54.4716 43.7096C54.5316 43.6796 54.5466 43.6646 54.5916 43.5596C54.6216 43.4546 54.6366 43.3496 54.5766 43.2446C54.6066 43.1846 54.6366 42.9146 54.6516 42.7346C54.6816 42.5396 54.7866 42.2246 54.8466 41.9546C54.9066 41.6846 54.9966 41.1146 54.9816 41.0396C54.9666 40.9646 54.9966 40.4246 54.9816 40.1996C54.9666 39.9296 54.8766 39.7046 54.7716 39.4046C54.6666 39.1046 54.6066 39.0296 54.6066 39.0296C54.6066 39.0296 54.5916 39.0146 54.5916 38.9846C54.5916 38.9546 54.5766 38.9246 54.5616 38.8496C54.5466 38.7746 54.4866 38.6996 54.4566 38.6696C54.4416 38.5796 54.3816 38.5046 54.3666 38.4896C54.3366 38.4596 54.2316 38.2796 54.2166 38.2346C54.2016 38.2046 53.9466 37.8746 53.9316 37.8446C53.9166 37.8146 53.8716 37.7096 53.7666 37.5446C53.6766 37.3796 53.5116 37.1396 53.4216 37.0196C53.3916 36.9146 53.3016 36.7946 53.2866 36.7646C53.2716 36.7346 53.2416 36.6896 53.2266 36.6446C53.2116 36.5996 53.1666 36.5846 53.0766 36.4346C52.9866 36.2846 52.9116 36.2096 52.8816 36.1646C52.8516 36.1346 52.8516 36.1046 52.8366 36.0296C52.8216 35.9546 52.7316 35.9246 52.7166 35.9096C52.7016 35.9096 52.6716 35.8946 52.6266 35.8346C52.5816 35.7746 52.5966 35.7596 52.5516 35.6246C52.5066 35.4896 52.4316 35.4446 52.3716 35.4296C52.3116 35.4146 52.2666 35.4446 52.2666 35.4446C52.2666 35.4446 52.0416 35.3996 52.0266 35.3846C52.0116 35.3696 51.9666 35.3396 51.9366 35.3246C51.9066 35.3096 51.8016 35.2646 51.7116 35.2196C51.6216 35.1746 51.4416 35.1296 51.3966 35.1146C51.3516 35.0996 51.3066 35.0996 51.1716 35.0246C51.0366 34.9646 50.9016 34.9196 50.8116 34.9046C50.7216 34.8746 50.6316 34.8446 50.5416 34.8146C50.4666 34.7696 50.3766 34.7396 50.3016 34.7096C50.2266 34.6796 50.0316 34.6346 50.0316 34.6346C50.0316 34.6346 49.9416 34.5446 49.9116 34.5146C49.8816 34.4846 49.7916 34.4096 49.7766 34.3946C49.7616 34.3796 49.7616 34.3646 49.7466 34.2896C49.7316 34.2146 49.6116 34.1096 49.6116 34.1096L49.5816 33.5246C49.5816 33.5246 49.6416 33.4196 49.6716 33.2996C49.7016 33.1946 49.7166 33.0896 49.7166 33.0146C49.7466 33.0296 49.8216 33.0146 49.8666 32.9696C49.9116 32.9246 49.9116 32.8796 49.9116 32.8646C49.9116 32.8496 50.0166 32.6846 50.0316 32.6396C50.0316 32.5796 50.0766 32.4146 50.0766 32.3396C50.0766 32.2646 50.0916 32.0696 50.0916 32.0246C50.0766 31.9796 50.0466 31.9196 50.0016 31.9196C49.9416 31.9046 49.9116 31.9496 49.9116 31.9496C49.9116 31.9496 49.9116 31.9046 49.9116 31.8896C49.9116 31.8746 49.9266 31.8446 49.9266 31.8146C49.9416 31.7846 49.9416 31.6796 49.9416 31.6346C49.9566 31.5896 49.9416 31.5596 49.9416 31.5596C49.9416 31.5596 50.0466 31.4996 50.1066 31.4246C50.1816 31.3196 50.1666 31.2146 50.1366 31.0946C50.1066 30.9746 49.9266 30.7796 49.9266 30.7796C49.9266 30.7796 49.9266 30.7346 49.9266 30.6296C49.9266 30.5246 49.8966 30.3896 49.8366 30.2396C49.7766 30.1046 49.7316 30.1046 49.6416 30.0146C49.5516 29.9396 49.3416 29.7746 49.2816 29.7446C49.2816 29.7296 49.1916 29.6696 49.1466 29.6696C48.9816 29.5646 48.8316 29.5196 48.8166 29.5046C48.7866 29.4896 48.7116 29.4746 48.6516 29.4746C48.6366 29.4596 48.6066 29.4596 48.4866 29.4746C48.3666 29.4896 48.0816 29.5496 48.0816 29.5496C48.0816 29.5496 48.0516 29.5496 47.9916 29.5646C47.9466 29.5796 47.9316 29.6096 47.9166 29.6096C47.9016 29.6096 47.5266 29.7446 47.4966 29.7596C47.4816 29.7596 47.3466 29.8196 47.2716 29.9096C47.1966 29.9996 47.1666 30.1046 47.1366 30.1796C47.1066 30.2546 47.0766 30.2846 47.0016 30.4796C46.9266 30.6596 46.9116 30.7346 46.8816 30.9146C46.8516 31.0796 46.8666 31.3496 46.8516 31.3796C46.8516 31.4096 46.8516 31.5296 46.8516 31.5896C46.8666 31.6496 46.8816 31.8146 46.8816 31.8146C46.8816 31.8146 46.8216 31.8296 46.7916 31.9046C46.7616 31.9796 46.7766 32.0546 46.7766 32.1146C46.7916 32.1746 46.7916 32.2496 46.8066 32.4146C46.8216 32.5946 46.8816 32.6846 46.9116 32.7446C46.9416 32.8046 46.9566 32.8496 47.0016 32.9096C47.0466 32.9696 47.1666 32.9546 47.1966 32.9546C47.2116 32.9546 47.2416 32.9546 47.2416 32.9546C47.2416 32.9696 47.2716 33.1196 47.2866 33.2696C47.3016 33.4196 47.3766 34.1096 47.3766 34.1096C47.3766 34.1096 47.2266 34.1096 47.1516 34.1546C47.0916 34.1846 47.0616 34.3196 47.0616 34.3346C47.0616 34.3496 47.0466 34.4246 47.0166 34.4546C46.9866 34.4846 46.9566 34.5746 46.9416 34.6046C46.9266 34.6346 46.8216 34.8746 46.8216 34.9946C46.8216 34.9946 46.6866 35.0546 46.6416 35.0846C46.5966 35.1146 46.5216 35.1596 46.5066 35.1746C46.4916 35.1896 46.3866 35.2496 46.3566 35.2646C46.3266 35.2796 46.2666 35.3396 46.2366 35.3396C46.2216 35.3546 46.1916 35.3696 46.1166 35.3996C46.0416 35.4296 45.8616 35.5346 45.8616 35.5346L45.3066 35.8196ZM45.1416 62.5946C45.0666 62.6096 45.0366 62.6396 45.0366 62.6696C45.0216 62.7146 45.0516 62.7446 45.0966 62.7596C45.0966 62.8496 45.1116 63.0446 45.1116 63.0746C45.1116 63.1046 45.0516 63.5396 45.0366 63.5696C45.0216 63.5996 45.0066 63.6596 45.0066 63.6596L42.8466 63.2996C42.8466 63.2996 42.9216 63.1946 43.0716 62.9996C43.2216 62.8196 43.9116 61.9346 43.9566 61.8746C44.0016 61.8146 44.3166 61.4246 44.3466 61.3796C44.3766 61.3346 44.5116 61.1246 44.6766 61.1246C44.7366 61.1096 44.9016 61.1546 44.9016 61.1546C44.9466 61.1696 44.9766 61.1696 44.9766 61.1696C44.9766 61.1696 45.0366 61.1696 45.0666 61.1846C45.0966 61.1996 45.1716 61.2596 45.1716 61.2596L45.1416 62.5946ZM45.9666 61.3196C45.9966 61.3196 46.0116 61.2896 46.0116 61.2896C46.0116 61.2896 46.1916 61.3046 46.2816 61.3796C46.3866 61.4696 46.4316 61.5746 46.5216 61.7246C46.6116 61.8746 46.8966 62.3696 46.9416 62.4296C46.9716 62.4746 47.4366 63.2846 47.7366 63.7946C47.8716 64.0196 47.9466 64.1696 47.9466 64.1696L45.6966 63.7796C45.6966 63.7796 45.6816 63.4646 45.6516 63.3446C45.6216 63.2246 45.6966 62.7596 45.6966 62.7596C45.6966 62.7596 45.7416 62.7296 45.7566 62.6846C45.7566 62.6246 45.6966 62.5946 45.6666 62.5946C45.6816 62.5196 45.6816 62.3846 45.6966 62.3096C45.6966 62.2496 45.7116 61.2746 45.7116 61.2746C45.7116 61.2746 45.8766 61.3046 45.9666 61.3196ZM53.0166 44.3096C53.0166 44.3246 53.0016 44.3396 53.0016 44.3396C52.9716 44.3096 52.9716 44.2946 52.9866 44.2646C53.0016 44.2346 53.0766 44.1596 53.0766 44.1596L53.1066 44.1896C53.0766 44.2346 53.0316 44.2946 53.0166 44.3096ZM53.5566 40.5896C53.5416 40.6496 53.5266 40.7096 53.5116 40.9046C53.4816 41.0996 53.4816 41.2196 53.4816 41.3996C53.4816 41.5646 53.5116 41.7146 53.5266 41.9246C53.5566 42.1346 53.5566 42.1496 53.5566 42.2846C53.5566 42.4346 53.5416 42.5846 53.5416 42.6896C53.5266 42.7796 53.5116 42.8696 53.5116 42.8696C53.5116 42.8696 53.4516 42.9146 53.4366 42.9446C53.4216 42.9746 53.4216 42.9896 53.4066 43.0346C53.4066 43.0796 53.4066 43.0946 53.4066 43.1096C53.4066 43.1246 53.3916 43.1396 53.3766 43.1396C53.3616 43.1396 53.3316 43.1246 53.2716 43.1096C53.2116 43.0946 53.1666 43.0496 53.0916 43.0346C53.0016 43.0196 52.9416 43.0196 52.9266 43.0196C52.9116 43.0196 52.8216 42.9596 52.7616 42.9296C52.7016 42.8996 52.6116 42.8096 52.5816 42.7346C52.6266 42.6896 52.7466 42.5996 52.7766 42.5846C52.8066 42.5696 52.8366 42.5096 52.8516 42.4496C52.8666 42.4046 52.8516 42.3746 52.8216 42.3146C52.7916 42.2546 52.7466 42.2246 52.7316 42.1796C52.7166 42.1496 52.7016 42.1346 52.7016 42.1196C52.7016 42.0896 52.6866 42.0746 52.6866 42.0596C52.6866 42.0446 52.6866 41.9246 52.6566 41.8496C52.6266 41.7746 52.6266 41.7296 52.5966 41.6696C52.5666 41.5796 52.5366 41.5046 52.5066 41.4596C52.4766 41.4296 52.4166 41.3096 52.4166 41.3096C52.4166 41.3096 52.3866 41.1896 52.3416 41.0996C52.3116 41.0096 52.3116 40.9646 52.2666 40.8896C52.2216 40.8146 52.1916 40.7846 52.1616 40.7396C52.1316 40.6946 52.0866 40.5896 52.0566 40.5296C52.0416 40.5146 52.0116 40.2596 51.9966 40.1846C51.9816 40.0946 51.9366 39.8996 51.9366 39.8546C51.9366 39.8246 51.9516 39.7046 51.9366 39.6296C51.9216 39.5546 51.8316 39.2396 51.8316 39.2396C51.8316 39.2396 51.9066 39.0446 51.9216 39.0146C51.9366 38.9846 51.9366 38.9246 51.9366 38.9246L51.9816 38.8946C51.9816 38.8946 52.0716 38.8646 52.1166 38.8796C52.1616 38.8946 52.2216 38.9396 52.2366 38.9246C52.2516 38.9096 52.2816 38.9246 52.2966 38.9396C52.3116 38.9546 52.3566 38.9396 52.3566 38.9396C52.3566 38.9396 52.3866 38.9546 52.5066 39.0296C52.6266 39.1046 52.7316 39.1796 52.7616 39.2096C52.7916 39.2546 52.7916 39.2096 52.8816 39.2996C52.9716 39.3746 53.1066 39.4946 53.1066 39.5096C53.1066 39.5246 53.1216 39.5546 53.1666 39.5996C53.2116 39.6446 53.2866 39.7346 53.3016 39.7496C53.3166 39.7646 53.3616 39.8396 53.3916 39.8546C53.4216 39.8846 53.4516 39.8846 53.4516 39.8846C53.4516 39.8846 53.5266 39.9746 53.5716 40.1996C53.5716 40.4246 53.5716 40.5446 53.5566 40.5896Z" fill="#00539F"/>
<path d="M54.0664 37.3645H49.9414V40.8145H54.0664V37.3645Z" fill="#00539F"/>
</g>
<path d="M20.4652 41.5801L5.66016 41.7001" stroke="#00539F" stroke-width="1.46205" stroke-miterlimit="10" stroke-linecap="round" stroke-linejoin="round"/>
<path d="M26.5398 34.1699L2.50977 35.9099" stroke="#8DC63F" stroke-width="3.75" stroke-miterlimit="10" stroke-linecap="round" stroke-linejoin="round"/>
<path d="M23.3 28.0801L5.75 30.1951" stroke="#00539F" stroke-width="1.46205" stroke-miterlimit="10" stroke-linecap="round" stroke-linejoin="round"/>
</svg>
