<svg xmlns="http://www.w3.org/2000/svg" viewBox="0 0 800 400" fill="none" stroke="black" stroke-width="3">
  <!-- Truck Cab -->
  <rect x="100" y="150" width="120" height="80" fill="#f2f2f2" stroke="#000" />
  <rect x="110" y="160" width="40" height="40" fill="#cce0ff" stroke="#000" /> <!-- Window -->
  <rect x="160" y="160" width="10" height="10" fill="#000" /> <!-- Mirror -->

  <!-- Front Grille -->
  <rect x="90" y="160" width="10" height="60" fill="#333" />
  <line x1="90" y1="170" x2="100" y2="170" />
  <line x1="90" y1="185" x2="100" y2="185" />
  <line x1="90" y1="200" x2="100" y2="200" />

  <!-- Dump Bed -->
  <polygon points="220,150 600,120 600,200 220,200" fill="#e6e6e6" stroke="#000" />
  <line x1="220" y1="150" x2="220" y2="200" />
  <line x1="600" y1="120" x2="600" y2="200" />

  <!-- Wheels -->
  <circle cx="130" cy="240" r="25" fill="#000" />
  <circle cx="190" cy="240" r="25" fill="#000" />
  <circle cx="300" cy="240" r="25" fill="#000" />
  <circle cx="360" cy="240" r="25" fill="#000" />
  <circle cx="420" cy="240" r="25" fill="#000" />
  <circle cx="480" cy="240" r="25" fill="#000" />
  <circle cx="540" cy="240" r="25" fill="#000" />

  <!-- Bumper -->
  <rect x="90" y="230" width="130" height="10" fill="#444" />

  <!-- Headlights -->
  <circle cx="95" cy="180" r="5" fill="#ffcc00" />
  <circle cx="95" cy="195" r="5" fill="#ffcc00" />
</svg>
