<?xml version="1.0" encoding="UTF-8"?>
<svg id="a" xmlns="http://www.w3.org/2000/svg" viewBox="0 0 150 150">
  <defs>
    <style>
      .cls-1 {
        fill: none;
      }

      .cls-2 {
        fill: #01509b;
      }
    </style>
  </defs>
  <path class="cls-1" d="M0,0H150V150H0V0Z"/>
  <path class="cls-2" d="M132.48,92.83c-4.38-.71-13.09-3.74-17.24-2.33v-3.26h-.93v-.47h-1.4v-.47c-1.56-.65-20.13,1.57-18.18-1.4,4.6-13.69,15.92-50.97,16.78-68.04h-1.4c0,.13-.04,4.03,.1,4.01-2.32,1.19-1.55-2.01-1.04-3.08,.15-1.32-.4-2.42,.47-3.73,0-.47,0-.93-.47-.93-.27-1.23,1.77-6.91-.47-7.92-.87,1.92-.73,4.57-2.33,6.06-2.38,.08-4.56,.43-4.66-3.73,0,0,3.26-5.13,3.73-5.59v-.93c-4.16,1.56-8.22,7.28-11.65,10.25h-.47v-1.4h-1.4l-.43,6.08c-.24-.02-.73-.03-.96-.03v-1.4c-.47-.47-.93-.47-1.4,0v1.4h-.47c-7.58,8.48-15.85,18.41-23.3,27.03-13.06,14.15-29.75,29.3-40.55,45.21,1,4.63,1,12.56,6.99,13.52,1.03,.73-1.83,1.75-.47,2.33,.76,3.58,8.4,2.03,10.72,2.33,.45-3.68,12.39-1.17,13.05-1.86v.47h.47c-.03-1.45,4.67-1.05,5.59-1.4v-.47h.58l-.12,.93c2.87-.02,5.11,.07,7.48,1.31l-.03,.09,.27,.54c-1.85,6.11,1.36,16.76-1.2,21.83,.47-.47,1.4,.93,1.4,.93-1.12,21.95,6.98-8.32,7.82-14.01,.44,0,.75,.38,.9,.68-.18,1.11-1.46,6.53-1.73,7.74,1.86,.47,1.86,1.86,1.86,1.86l.26,.26c-.91,3.39-8.78,30.94-1.66,21.64,1.89-8.6,6.08-21.55,8.86-29.36l-.19-.1c.41-1.02,1.12-2.23,1.12-2.23-.26-5.9,1.73-11.32,6.99-11.65v.47h2.33v-.47h2.8v-.47h7.46c5.05-1.72,12.55-1.03,17.71-2.33,.4-1.62-4.88-.71-5.59-.93-.14-.45-.47-1.63-.93-1.86h-6.06c1.54-4.01-3.18-3.59-6.06-3.73-2.78-1.7,3.48-1.01,5.13-.47,4.4-.35,10.59,.89,14.91,0l.47,.93c.47,0,.93,0,1.4-.47h6.52v-1.4h-1.4l.02,.02Zm-71.77-7.92s-.93,.47-1.4-.47l-.45-.03c2.82-7.09,16.24-24.95,20.02-27l.27,.27c-.47,3.04-2.02,8.65-.27,11.38-1.37,2.98-1.37,7.53-2.33,10.72-.27,1.66-1.51,4.66-1.4,6.32-.61-.35-3.04-.25-3.73-.26l-4.66-2.8c-.58-.31-5.44,1.68-6.06,1.86h.01Z"/>
</svg>