<?xml version='1.0' encoding='utf-8'?>
<svg xmlns="http://www.w3.org/2000/svg" width="1136px" height="812px" version="1.1" viewBox="-32 634 1136 812"> <g> <g fill="#bebebe"> <path d="m-32.001 633.24c-0.20044 0-0.39267 0.0796-0.5344 0.2213s-0.22136 0.334-0.22136 0.5344l1e-3 812c0 0.4174 0.33837 0.7557 0.75576 0.7557l1136 1e-3c0.2004 0 0.3927-0.0796 0.5344-0.2213s0.2213-0.334 0.2213-0.5344l-1e-3 -812c0-0.41736-0.3383-0.75574-0.7557-0.75574l-1136-9.6e-4z"/> </g> <g fill="#ececec"> <path d="m1104.7 1242.3q-568.75 0.9176-1137.5 1.8353l3.76e-4 39.674 1137.5-1.8335v-38.934-0.7413z"/> </g> <g fill-opacity=".1451"> <path d="m893.18 1357.9q-8.9674 8.3792-147.09 14.006-137.05 5.6885-319.02 6.1983-250.81 0.1944-344.89-9.3346-21.653-2.5043-19.892-5.2618 4.7869-3.1609 17.584-4.7977 21.062-3.0244 59.776-5.5164l23.816-1.3384 47.173-2.2539q48.904-2.0398 107.07-3.4218 13.094-0.4483 92.46-1.7033 119.2-1.6068 235.35-0.4872 115.82 1.4923 176.91 4.8711 33.408 1.6339 56.893 4.8009 13.144 2.2233 13.842 4.2383"/> </g> <g fill="#ececec"> <path d="m773.86 750.88 256.65 0.50693q-0.5004 253.83-1.0009 507.65-128.32-0.2525-256.65-0.505 0.50036-253.83 1.0008-507.65"/> </g> <g> <path d="m197.05 906.28 0.24177 0.5293q1.7002 3.6928 3.2187 4.122 1.6897 1.0162 5.5964-0.80895 5.4934-2.3325 26.618-21.8l-2.5541-13.234-39.141 8.8739 6.0202 22.317"/> </g> <g fill="#f3a785"> <path d="m226.42 935.96 2.7555-10.773 0.86808-6.6223q14.253 5.8564 16.868-0.21616 0.96682-2.719 0.53572-6.4129-0.24252-2.4121-1.313-2.9249l-0.77632-2.9569 2.1728-1.739 1.5059-5.0147 4.2274-0.30223 0.92755-3.2028q-4.9481-9.2612-6.5566-11.201l0.49014-7.2564-19.282-2.1652-2.1473 8.5068-3.9618 5.9q-2.2753-4.306-4.5733-5.9222-3.1532-2.0869-5.2592-0.79237-2.029 1.8222-2.2729 5.8966-0.47244 3.8018 1.3841 7.5327l-6.6485 7.499-8.3801 0.3596-5.1818 12.926 34.617 18.881"/> </g> <g fill="#af9175"> <path d="m127.74 1303.6 1.297 1.4727q8.3329 9.8059 15.174 14.059 6.0042 3.9613 20.118 6.9011 8.9005-21.274 19.948-37.321 9.87-15.081 42.804-56.064l6.4001-28.039 9.9751 16.408q0.12614 23.621 2.0932 37.858 0.9256 6.2744 2.377 11.934 7.0523 24.574 7.2666 27.406 2.4255 12.682 3.7057 32.392 21.928 4.0104 41.211-8.6703-4.6441-10.244-5.6669-20.908l-5.5399-65.268q-0.29492-1.0209-0.9227-23.915-0.86401-8.151-2.3938-13.026-3-11.317-12.615-33.174-4.3618-10.375-17.301-33.471l-4.6969-10.262q-5.1494-12.91-12.184-36.985l-66.759-13.55q-6.9624 27.477-5.3806 39.659 0.67818 12.459 12.16 34.265 3.5579 46.646 5.4856 66.582-5.3845 4.8038-24.034 33.151l-32.52 58.566"/> </g> <g> <path d="m130.63 1306.8-17.415 18.234 16.406 17.142 3.7936-1.9802q4.5591 6.8192 9.6607 12.631 6.2088 6.3027 9.6159 7.6179 6.5379 3.1429 14.877 2.9391 6.8437 0.0267 20.4-2.2246 1.966-9.6313-1.7451-12.183-2.8736-2.9561-18.009-4.3424l-7.0467-21.529-30.537-16.304"/> <path d="m261.35 1330.3-1.6118 24.839 27.667-0.186-0.31903-4.2962q10.463 1.3946 16.208 1.4477 5.7357-0.0466 6.8622-0.2754 2.2744-0.2307 4.527-0.6931 9.0382-1.5516 26.456-11.664-2.4577-7.2842-7.1786-9.3353-3.2959-1.2201-8.4739-0.5749-4.2044 0.4283-13.066 2.4802l-16.582-11.031-34.49 9.2899"/> </g> <g fill="#375975"> <path d="m172.08 1078.3-6.6185-18.407 5.3755-20.594q-4.4948-22.732-7.3707-43.551-1.8174-13.762-1.7159-25.256 0.30207-17.065 6.3806-27.307 0.73235-2.0385 6.7928-9.3977 3.6963-4.3446 13.92-12.593l2.769-8.3187 38.531 22.592 7.0596 23.427 1.145 131.77-66.269-12.367"/> </g> <g fill="#555861"> <path d="m229 875.95 1.6929 0.2655q11.848 1.846 16.753 1.3502 5.7385-0.21646 12.038-2.7057 5.4205-2.4123 7.403-5.3666 2.2088-2.5626 3.1221-9.8889l-24.546 4.3535q-5.973-8.7642-8.8048-10.589-3.9851-3.2821-9.2923-4.0328-7.2677-0.9332-15.475 1.5367-8.7302 2.8849-13.163 6.4035-10.831 7.6492-9.6379 20.079 0.0053 3.9403 4.3146 17.12l35.595-18.525"/> </g> <g fill="#237ab8"> <path d="m205.78 841.67h-6e-5 6e-5"/> </g> <g fill="#3e1d08"> <path d="m305.98 730.09v5e-4l-6e-5 3.5e-4 6e-5 -8.5e-4"/> </g> <g> <path d="m711.55 906.37-0.24012 0.53004q-1.6882 3.6984-3.2054 4.1325-1.6864 1.0217-5.599-0.791-5.5009-2.3148-26.688-21.714l2.5117-13.242 39.169 8.7479-5.9484 22.336"/> </g> <g fill="#f3a785"> <path d="m682.27 936.14-2.7902-10.764-0.8892-6.6195q-14.234 5.9022-16.869-0.16184-0.97556-2.7158-0.5564-6.4112 0.23477-2.4128 1.3037-2.9292l0.7669-2.9593-2.1785-1.7319-1.5221-5.0098-4.2282-0.2886-0.93785-3.1997q4.9183-9.2771 6.5205-11.222l-0.5134-7.2548 19.275-2.2274 2.1744 8.5 3.9808 5.8873q2.2615-4.3133 4.5543-5.9368 3.1464-2.0973 5.2567-0.80935 2.0347 1.8156 2.2917 5.8893 0.4848 3.8002-1.3598 7.5369l6.6726 7.4776 8.3811 0.33277 5.2234 12.909-34.557 18.993"/> </g> <g fill="#53565f"> <path d="m782.13 1303.5-1.2922 1.4772q-8.3016 9.8325-15.129 14.107-5.9914 3.9806-20.096 6.9658-8.969-21.245-20.068-37.257-9.9184-15.05-42.984-55.926l-6.4901-28.019-9.9224 16.44q-0.0502 23.621-1.9715 37.864-0.90526 6.2773-2.3386 11.942-6.9734 24.596-7.1786 27.429-2.3848 12.69-3.6016 32.404-21.915 4.0808-41.239-8.5381 4.611-10.259 5.5996-20.926l5.3302-65.286q0.29173-1.022 0.84593-23.918 0.83784-8.1538 2.3519-13.033 2.9635-11.326 12.508-33.215 4.3288-10.388 17.194-33.526l4.6638-10.277q5.108-12.927 12.066-37.024l66.715-13.764q7.0508 27.455 5.5082 39.642-0.6382 12.462-12.05 34.303-3.408 46.658-5.2716 66.6 5.3998 4.7869 24.14 33.074l32.708 58.461"/> </g> <g> <path d="m779.25 1305 17.473 18.178-16.351 17.194-3.8-1.9682q-4.5372 6.8338-9.6201 12.662-6.1886 6.3227-9.5913 7.6486-6.5279 3.1642-14.868 2.987-6.8436 0.0488-20.407-2.159-1.997-9.6249 1.706-12.189 2.8642-2.9654 17.995-4.4l6.9776-21.552 30.485-16.401"/> <path d="m648.61 1330.5 1.6915 24.834-27.668-0.0973 0.3053-4.2974q-10.459 1.4284-16.203 1.5001-5.7358-0.0283-6.8631-0.2534-2.2751-0.2234-4.5292-0.6787-9.0433-1.5223-26.494-11.579 2.4344-7.2922 7.1487-9.3584 3.2919-1.2306 8.472-0.6021 4.2058 0.4146 13.073 2.4381l16.546-11.085 34.52 9.1794"/> </g> <g fill="#9e9fa3"> <path d="m737.07 1078.3 6.5594-18.428-5.4419-20.576q4.422-22.746 7.2308-43.575 1.7731-13.767 1.6346-25.262-0.35693-17.064-6.4681-27.286-0.73896-2.0361-6.8232-9.3759-3.7102-4.3326-13.96-12.548l-2.7958-8.3097-38.458 22.716-6.9845 23.45-0.72146 131.78 66.229-12.58"/> </g> <g fill="#237ab8"> <path d="m679.5 876.14-1.6919 0.27087q-11.843 1.8842-16.748 1.4042-5.739-0.19774-12.047-2.6667-5.4281-2.3949-7.4201-5.3429-2.217-2.5556-3.154-9.8788l24.56 4.2743q5.9445-8.7834 8.7706-10.618 3.9744-3.295 9.2793-4.0628 7.2646-0.95656 15.48 1.487 8.7395 2.8568 13.184 6.3612 10.856 7.6143 9.7025 20.048 0.0073 3.9404-4.2598 17.134l-35.654-18.411"/> <path d="m702.61 841.79v1.2e-4 -1.2e-4"/> </g> <g fill="#241b06"> <path d="m690.52 1115.9-467.58-3.9155-5.1458-118.73q-8.6329-19.055-7.2472-21.459 2.7846-9.1162 11.08-11.436 5.835-2.0052 36.427-7.8422-2.5736-16.118 1.6861-47.431 2.1761-11.146 9.5591-16.333 6.4168-5.0018 25.493-6.2222 67.023 0.2531 139.33-0.90085 16.996 1.1934 20.294 11.765 3.257-8.3808 10.699-10.446l116.78-0.4112q49.758 0.0472 64.086 6.9322 3.9265 2.5633 6.7426 12.089l3.97 52.353q41.451 11.135 43.551 15.516 3.3002 7.8154-7.0622 30.689l-2.6577 115.78"/> </g> <g fill="#47291f"> <path d="m262 1062.6 19.717 0.9295q59.532 2.8789 115.63 4.941 18.572 0.657 36.381 1.133l17.57 0.4189 17.094 0.3058 16.569 0.1809 16.012 0.0487 15.488-0.0762 15.011-0.1894q14.772-0.2462 28.781-0.6738 35.213-1.0236 92.721-4.2631l-390.97-2.7553"/> <path d="m630.62 1011.5-8.1054-0.7129q-24.424-2.2202-47.876-3.7054-7.7818-0.46777-15.348-0.77237l-7.4986-0.2535q-7.4378-0.2074-14.579-0.19044-7.1322 0.0238-13.968 0.27224l-6.775 0.2943q-6.7076 0.3453-13.2 0.8541-16.283 1.231-43.933 4.7044 27.413-7.0774 43.614-9.5659 6.4578-1.0294 13.143-1.7208l6.7558-0.5864 6.8979-0.3755 7.0538-0.1433 7.2196 0.1024 7.3756 0.3346 7.5177 0.54553q7.5886 0.65077 15.404 1.6392 19.482 2.3864 56.3 9.2799"/> <path d="m440.11 1009.9-8.1053-0.71289q-28.013-2.5276-51.324-3.9053-21.017-1.1477-35.559-1.0083-9.0871 0.0503-19.162 0.55833-9.216 0.48867-16.958 1.1555-15.597 1.3156-40.174 4.4028 20.56-5.193 26.999-6.4473 9.4152-2.0126 16.616-3.1186 10.416-1.64 19.898-2.3071l6.8977-0.37548 7.054-0.14331 7.2196 0.10256 7.3756 0.3346q10.342 0.6103 22.922 2.1845 8.6589 1.0604 20.742 3.0116 8.0992 1.2128 35.558 6.2683"/> <path d="m460.95 1012.7-0.49334 0.27695q-3.3038 1.692-4.5258 4.0441-1.162 2.0063-1.3926 8.339-0.3374-5.3036-1.9404-7.5071-1.3474-2.2836-6.9109-5.9545 3.3426 0.18997 4.9092-4.128 0.63348-1.6238 1.1992-4.2815l0.54432-2.9808q0.52532-3.2718 0.95732-7.9654 0.42914-4.7366 0.76496-10.895 0.21356-2.3844 0.83996-21.028 0.58631-19.258 1.1187-61.884-0.90802 76.401 0.03839 93.513 0.20679 4.7274 0.50629 8.0595l0.31836 3.0465q0.33947 2.7297 0.74652 4.4446 1.0003 4.5405 3.3198 4.9002"/> </g> <g fill="#3e1d08"> <path d="m779.8 777.48v4.6e-4 4e-4 -8.6e-4"/> </g> <g fill="#f3a785"> <path d="m695.77 996.43 1.7358 0.2274q11.474 1.3778 17.321 3.4238 5.3461 1.7407 11.918 7.3678l-11.733 25.007q-11.959 21.538-20.719 31.836-8.2634 10.382-30.349 30.206l-7.7214 28.953-27.865 2.3879-8.4975-9.0528 8.6995-1.4055 3.5259-14.913-10.457 7.4359q-4.4043 0.7107-5.5515-0.0883-1.3108-0.5923-1.7224-4.0837 5.2233-2.0445 6.9565-3.8539l1.6764-1.9169q2.9024-4.8247 4.5995-6.6838 1.5131-1.7217 3.9025-3.1338 5.5333-3.0986 17.804-5.9011 20.172-36.454 26.438-45.47 6.9471-10.66 13.199-13.56 0.9847-11.037 2.1881-15.398 1.0767-4.5671 4.6522-11.385"/> <path d="m213.11 996.29-1.7351 0.23291q-11.47 1.4148-17.31 3.4796-5.3406 1.758-11.894 7.4064l11.813 24.969q12.029 21.499 20.821 31.77 8.2967 10.356 30.446 30.108l7.8143 28.928 27.872 2.2984 8.4682-9.0797-8.7038-1.3778-3.5737-14.901 10.481 7.4022q4.4064 0.6966 5.551-0.1057 1.309-0.5966 1.7094-4.0896-5.2299-2.0277-6.969-3.8314l-1.6825-1.9112q-2.9179-4.8156-4.6209-6.6691-1.5188-1.7169-3.9126-3.1216-5.5431-3.0809-17.823-5.8441-20.29-36.388-26.584-45.385-6.9814-10.638-13.243-13.518-1.02-11.034-2.2376-15.391-1.0913-4.5636-4.6888-11.37"/> </g> <g fill="#6b5c55"> <path d="m792.82 777.87 217.53-0.2943q0.34254 251.99 0.68518 503.98-108.77 0.1487-217.53 0.2974-0.3423-251.99-0.6849-503.98"/> </g> <g fill="#bcbfc0"> <path d="m823.34 1047.7-0.0791 1.1992q-0.56847 3.6244-3.3479 5.801-2.7989 2.1748-6.5965 1.7697-3.6244-0.5684-5.8009-3.3481-0.6975-0.8986-1.1495-1.9586l-0.3804-1.0901q-0.3137-1.1248-0.3188-2.3485 0.0893-3.7551 2.5794-6.2518 2.4898-2.4971 6.2447-2.5972 3.7552 0.0895 6.2521 2.5796 2.4968 2.4898 2.5969 6.2448"/> <path d="m813.32 1044.7 24.277-0.0334q0.00475 3.4511 0.00963 6.9023-12.139 0.0172-24.277 0.0344-0.0048-3.4515-0.0096-6.9033"/> <path d="m832.5 800.26 1e-4 1.4e-4v1.2e-4 -1.2e-4l-1e-4 -1.4e-4 1e-4 1.4e-4v1.2e-4q0-1.2e-4 -1e-4 -2.6e-4"/> </g> </g> </svg>